<?xml version="1.0" encoding="UTF-8" standalone="no"?>
<!-- Created with Inkscape (http://www.inkscape.org/) -->

<svg
   xmlns:dc="http://purl.org/dc/elements/1.1/"
   xmlns:cc="http://creativecommons.org/ns#"
   xmlns:rdf="http://www.w3.org/1999/02/22-rdf-syntax-ns#"
   xmlns:svg="http://www.w3.org/2000/svg"
   xmlns="http://www.w3.org/2000/svg"
   xmlns:sodipodi="http://sodipodi.sourceforge.net/DTD/sodipodi-0.dtd"
   xmlns:inkscape="http://www.inkscape.org/namespaces/inkscape"
   width="841mm"
   height="594mm"
   viewBox="0 0 841 594"
   version="1.1"
   id="svg1459"
   inkscape:version="0.92.5 (2060ec1f9f, 2020-04-08)"
   sodipodi:docname="board.svg">
  <defs
     id="defs1453" />
  <sodipodi:namedview
     id="base"
     pagecolor="#ffffff"
     bordercolor="#666666"
     borderopacity="1.0"
     inkscape:pageopacity="0.0"
     inkscape:pageshadow="2"
     inkscape:zoom="0.24748737"
     inkscape:cx="1080.2714"
     inkscape:cy="851.32491"
     inkscape:document-units="mm"
     inkscape:current-layer="layer1"
     showgrid="false"
     inkscape:window-width="1608"
     inkscape:window-height="986"
     inkscape:window-x="72"
     inkscape:window-y="27"
     inkscape:window-maximized="1" />
  <metadata
     id="metadata1456">
    <rdf:RDF>
      <cc:Work
         rdf:about="">
        <dc:format>image/svg+xml</dc:format>
        <dc:type
           rdf:resource="http://purl.org/dc/dcmitype/StillImage" />
        <dc:title></dc:title>
      </cc:Work>
    </rdf:RDF>
  </metadata>
  <g
     inkscape:label="Layer 1"
     inkscape:groupmode="layer"
     id="layer1"
     transform="translate(0,297)">
    <rect
       style="opacity:1;fill:#efefef;fill-opacity:1;fill-rule:nonzero;stroke:#000000;stroke-width:0.29343766;stroke-linecap:round;stroke-linejoin:round;stroke-miterlimit:4;stroke-dasharray:none;stroke-dashoffset:0.39999998;stroke-opacity:1;paint-order:normal"
       id="rect2004-5"
       width="198.92049"
       height="405.19049"
       x="525.96509"
       y="-230.27541" />
    <rect
       style="opacity:1;fill:#efefef;fill-opacity:1;fill-rule:nonzero;stroke:#000000;stroke-width:0.22378568;stroke-linecap:round;stroke-linejoin:round;stroke-miterlimit:4;stroke-dasharray:none;stroke-dashoffset:0.39999998;stroke-opacity:1;paint-order:normal"
       id="rect2004-5-9"
       width="115.68693"
       height="405.21671"
       x="138.55309"
       y="-228.24748" />
    <rect
       style="opacity:1;fill:#efef60;fill-opacity:1;fill-rule:nonzero;stroke:#000000;stroke-width:0.25;stroke-linecap:round;stroke-linejoin:round;stroke-miterlimit:4;stroke-dasharray:none;stroke-dashoffset:0.39999998;stroke-opacity:1;paint-order:normal"
       id="rect1379"
       width="190"
       height="190"
       x="530.19849"
       y="-228.15877"
       rx="20"
       ry="20" />
    <circle
       style="opacity:1;fill:none;fill-opacity:1;fill-rule:nonzero;stroke:#0000ff;stroke-width:0.25;stroke-linecap:round;stroke-linejoin:round;stroke-miterlimit:4;stroke-dasharray:none;stroke-dashoffset:0.39999998;stroke-opacity:1;paint-order:normal"
       id="path1381"
       cx="629.43188"
       cy="-135.27676"
       r="5" />
    <path
       style="opacity:1;fill:#efef00;fill-opacity:1;fill-rule:nonzero;stroke:#000000;stroke-width:0.25;stroke-linecap:round;stroke-linejoin:round;stroke-miterlimit:4;stroke-dasharray:none;stroke-dashoffset:0.39999998;stroke-opacity:1;paint-order:normal"
       d="m 596.03313,-156.61513 -40.96391,21.86388 41.11739,21.63692 -0.0444,-11.75019 h 64.18264 l 10.07691,9.34723 24.63467,0.1571 -9.66556,-9.50433 h 1.48725 v -20.00035 l -1.76217,-0.0145 9.85986,-9.69404 -24.63777,0.15658 -10.29911,9.55193 h -63.94132 z"
       id="rect1404-8"
       inkscape:connector-curvature="0"
       sodipodi:nodetypes="cccccccccccccccc" />
    <circle
       style="opacity:1;fill:#efefef;fill-opacity:1;fill-rule:nonzero;stroke:#000000;stroke-width:0.5;stroke-linecap:round;stroke-linejoin:round;stroke-miterlimit:4;stroke-dasharray:none;stroke-dashoffset:0.39999998;stroke-opacity:1;paint-order:normal"
       id="path2056"
       cx="167.36705"
       cy="-194.21693"
       r="27" />
    <circle
       style="opacity:1;fill:#efefef;fill-opacity:1;fill-rule:nonzero;stroke:#000000;stroke-width:0.5;stroke-linecap:round;stroke-linejoin:round;stroke-miterlimit:4;stroke-dasharray:none;stroke-dashoffset:0.39999998;stroke-opacity:1;paint-order:normal"
       id="path2056-8"
       cx="624.59088"
       cy="16.995892"
       r="19" />
    <circle
       style="opacity:1;fill:#efefef;fill-opacity:1;fill-rule:nonzero;stroke:#000000;stroke-width:0.5;stroke-linecap:round;stroke-linejoin:round;stroke-miterlimit:4;stroke-dasharray:none;stroke-dashoffset:0.39999998;stroke-opacity:1;paint-order:normal"
       id="path2056-1"
       cx="225.1969"
       cy="-195.19971"
       r="27.000002" />
    <circle
       style="opacity:1;fill:#efefef;fill-opacity:1;fill-rule:nonzero;stroke:#000000;stroke-width:0.5;stroke-linecap:round;stroke-linejoin:round;stroke-miterlimit:4;stroke-dasharray:none;stroke-dashoffset:0.39999998;stroke-opacity:1;paint-order:normal"
       id="path2056-0"
       cx="165.95457"
       cy="-138.62254"
       r="27.000002" />
    <circle
       style="opacity:1;fill:#efefef;fill-opacity:1;fill-rule:nonzero;stroke:#000000;stroke-width:0.5;stroke-linecap:round;stroke-linejoin:round;stroke-miterlimit:4;stroke-dasharray:none;stroke-dashoffset:0.39999998;stroke-opacity:1;paint-order:normal"
       id="path2056-1-3"
       cx="223.78433"
       cy="-139.6053"
       r="27.000002" />
    <circle
       style="opacity:1;fill:#efefef;fill-opacity:1;fill-rule:nonzero;stroke:#000000;stroke-width:0.5;stroke-linecap:round;stroke-linejoin:round;stroke-miterlimit:4;stroke-dasharray:none;stroke-dashoffset:0.39999998;stroke-opacity:1;paint-order:normal"
       id="path2056-0-0"
       cx="164.8855"
       cy="-82.783508"
       r="27.000002" />
    <circle
       style="opacity:1;fill:#efefef;fill-opacity:1;fill-rule:nonzero;stroke:#000000;stroke-width:0.5;stroke-linecap:round;stroke-linejoin:round;stroke-miterlimit:4;stroke-dasharray:none;stroke-dashoffset:0.39999998;stroke-opacity:1;paint-order:normal"
       id="path2056-1-3-4"
       cx="222.71532"
       cy="-83.766281"
       r="27.000002" />
    <circle
       style="opacity:1;fill:#efefef;fill-opacity:1;fill-rule:nonzero;stroke:#000000;stroke-width:0.5;stroke-linecap:round;stroke-linejoin:round;stroke-miterlimit:4;stroke-dasharray:none;stroke-dashoffset:0.39999998;stroke-opacity:1;paint-order:normal"
       id="path2056-0-4"
       cx="165.41466"
       cy="-26.047142"
       r="27.000002" />
    <circle
       style="opacity:1;fill:#efefef;fill-opacity:1;fill-rule:nonzero;stroke:#000000;stroke-width:0.5;stroke-linecap:round;stroke-linejoin:round;stroke-miterlimit:4;stroke-dasharray:none;stroke-dashoffset:0.39999998;stroke-opacity:1;paint-order:normal"
       id="path2056-1-3-44"
       cx="223.24448"
       cy="-27.029911"
       r="27.000002" />
    <circle
       style="opacity:1;fill:#efefef;fill-opacity:1;fill-rule:nonzero;stroke:#000000;stroke-width:0.5;stroke-linecap:round;stroke-linejoin:round;stroke-miterlimit:4;stroke-dasharray:none;stroke-dashoffset:0.39999998;stroke-opacity:1;paint-order:normal"
       id="path2056-0-7"
       cx="165.91154"
       cy="31.240623"
       r="27.000002" />
    <circle
       style="opacity:1;fill:#efefef;fill-opacity:1;fill-rule:nonzero;stroke:#000000;stroke-width:0.5;stroke-linecap:round;stroke-linejoin:round;stroke-miterlimit:4;stroke-dasharray:none;stroke-dashoffset:0.39999998;stroke-opacity:1;paint-order:normal"
       id="path2056-1-3-6"
       cx="223.74142"
       cy="30.257843"
       r="27.000002" />
    <circle
       style="opacity:1;fill:#efefef;fill-opacity:1;fill-rule:nonzero;stroke:#000000;stroke-width:0.5;stroke-linecap:round;stroke-linejoin:round;stroke-miterlimit:4;stroke-dasharray:none;stroke-dashoffset:0.39999998;stroke-opacity:1;paint-order:normal"
       id="path2056-0-3"
       cx="168.09268"
       cy="90.126877"
       r="27.000002" />
    <circle
       style="opacity:1;fill:#efefef;fill-opacity:1;fill-rule:nonzero;stroke:#000000;stroke-width:0.5;stroke-linecap:round;stroke-linejoin:round;stroke-miterlimit:4;stroke-dasharray:none;stroke-dashoffset:0.39999998;stroke-opacity:1;paint-order:normal"
       id="path2056-1-3-1"
       cx="225.92252"
       cy="89.144096"
       r="27.000002" />
    <circle
       style="opacity:1;fill:#efefef;fill-opacity:1;fill-rule:nonzero;stroke:#000000;stroke-width:0.5;stroke-linecap:round;stroke-linejoin:round;stroke-miterlimit:4;stroke-dasharray:none;stroke-dashoffset:0.39999998;stroke-opacity:1;paint-order:normal"
       id="path2056-0-3-7"
       cx="168.60037"
       cy="148.54962"
       r="27.000002" />
    <circle
       style="opacity:1;fill:#efefef;fill-opacity:1;fill-rule:nonzero;stroke:#000000;stroke-width:0.5;stroke-linecap:round;stroke-linejoin:round;stroke-miterlimit:4;stroke-dasharray:none;stroke-dashoffset:0.39999998;stroke-opacity:1;paint-order:normal"
       id="path2056-1-3-1-5"
       cx="226.43018"
       cy="147.56688"
       r="27.000002" />
    <circle
       style="opacity:1;fill:#efefef;fill-opacity:1;fill-rule:nonzero;stroke:#000000;stroke-width:0.5;stroke-linecap:round;stroke-linejoin:round;stroke-miterlimit:4;stroke-dasharray:none;stroke-dashoffset:0.39999998;stroke-opacity:1;paint-order:normal"
       id="path2056-8-9"
       cx="669.5108"
       cy="29.185242"
       r="19.000002" />
    <circle
       style="opacity:1;fill:#efefef;fill-opacity:1;fill-rule:nonzero;stroke:#000000;stroke-width:0.5;stroke-linecap:round;stroke-linejoin:round;stroke-miterlimit:4;stroke-dasharray:none;stroke-dashoffset:0.39999998;stroke-opacity:1;paint-order:normal"
       id="path2056-8-6"
       cx="695.7193"
       cy="69.367714"
       r="19.000002" />
    <circle
       style="opacity:1;fill:#efefef;fill-opacity:1;fill-rule:nonzero;stroke:#000000;stroke-width:0.5;stroke-linecap:round;stroke-linejoin:round;stroke-miterlimit:4;stroke-dasharray:none;stroke-dashoffset:0.39999998;stroke-opacity:1;paint-order:normal"
       id="path2056-8-2"
       cx="676.99432"
       cy="122.26089"
       r="19.000002" />
    <circle
       style="opacity:1;fill:#efefef;fill-opacity:1;fill-rule:nonzero;stroke:#000000;stroke-width:0.5;stroke-linecap:round;stroke-linejoin:round;stroke-miterlimit:4;stroke-dasharray:none;stroke-dashoffset:0.39999998;stroke-opacity:1;paint-order:normal"
       id="path2056-8-1"
       cx="633.20502"
       cy="135.65134"
       r="19.000002" />
    <circle
       style="opacity:1;fill:#efefef;fill-opacity:1;fill-rule:nonzero;stroke:#000000;stroke-width:0.5;stroke-linecap:round;stroke-linejoin:round;stroke-miterlimit:4;stroke-dasharray:none;stroke-dashoffset:0.39999998;stroke-opacity:1;paint-order:normal"
       id="path2056-8-7"
       cx="584.53516"
       cy="107.87661"
       r="19.000002" />
    <circle
       style="opacity:1;fill:#efefef;fill-opacity:1;fill-rule:nonzero;stroke:#000000;stroke-width:0.5;stroke-linecap:round;stroke-linejoin:round;stroke-miterlimit:4;stroke-dasharray:none;stroke-dashoffset:0.39999998;stroke-opacity:1;paint-order:normal"
       id="path2056-8-8"
       cx="579.68677"
       cy="55.998569"
       r="19.000002" />
    <text
       xml:space="preserve"
       style="font-style:normal;font-variant:normal;font-weight:normal;font-stretch:normal;font-size:21.16666603px;line-height:125%;font-family:'Ubuntu Condensed';-inkscape-font-specification:'Ubuntu Condensed, ';text-align:center;letter-spacing:0px;word-spacing:0px;text-anchor:middle;fill:#000000;fill-opacity:1;stroke:none;stroke-width:0.26458332px;stroke-linecap:butt;stroke-linejoin:miter;stroke-opacity:1"
       x="617.12598"
       y="-247.07861"
       id="text2770"><tspan
         sodipodi:role="line"
         x="617.12598"
         y="-247.07861"
         style="stroke-width:0.26458332px"
         id="tspan2790">Spinner (3mm ply 190x190mm)</tspan></text>
    <text
       xml:space="preserve"
       style="font-style:normal;font-variant:normal;font-weight:normal;font-stretch:normal;font-size:21.16666603px;line-height:125%;font-family:'Ubuntu Condensed';-inkscape-font-specification:'Ubuntu Condensed, ';text-align:center;letter-spacing:0px;word-spacing:0px;text-anchor:middle;fill:#000000;fill-opacity:1;stroke:none;stroke-width:0.26458332px;stroke-linecap:butt;stroke-linejoin:miter;stroke-opacity:1"
       x="394.26294"
       y="248.39857"
       id="text2774"><tspan
         sodipodi:role="line"
         id="tspan2772"
         x="394.26294"
         y="248.39857"
         style="stroke-width:0.26458332px">One A3 cardboard sheet cut longways after printing</tspan><tspan
         sodipodi:role="line"
         x="394.26294"
         y="274.8569"
         style="stroke-width:0.26458332px"
         id="tspan2788" /></text>
    <path
       style="fill:none;fill-rule:evenodd;stroke:#000000;stroke-width:0.26458332px;stroke-linecap:butt;stroke-linejoin:miter;stroke-opacity:1"
       d="m 301.74675,219.03719 c -11.74077,2.93521 1.86953,-0.10004 -7.48355,1.0691 -1.80305,0.22537 -3.54657,0.81209 -5.34539,1.06908 -0.70556,0.10078 -1.43514,-0.11719 -2.13815,0 -1.44932,0.24153 -2.827,0.82751 -4.27632,1.06907 -1.04393,0.17399 -4.30146,-0.17399 -5.34539,0 -1.11157,0.18526 -2.11397,0.79576 -3.20723,1.06908 -0.34572,0.0864 -0.71272,0 -1.06908,0 -1.42544,0 -2.85088,0 -4.27631,0 -1.77027,0 -6.0354,0.24135 -7.48355,0 -4.44925,-0.74155 -1.8556,-0.97489 -5.34539,-2.13815 -0.67615,-0.2254 -1.42544,0 -2.13816,0 -1.42543,0 -2.85087,0 -4.27631,0 -0.71272,0 -1.42544,0 -2.13816,0 -0.35635,0 -0.72336,0.0864 -1.06907,0 -2.18653,-0.54663 -4.27632,-1.42545 -6.41447,-2.13818 -1.06908,-0.35634 -2.24092,-0.48927 -3.20724,-1.06908 -0.86429,-0.51855 -1.3318,-1.53339 -2.13815,-2.13815 -1.27495,-0.9562 -2.95029,-1.25412 -4.27633,-2.13815 -0.41932,-0.27956 -0.64975,-0.78951 -1.06908,-1.06907 -0.66302,-0.44202 -1.57471,-0.50562 -2.13817,-1.06908 -0.56346,-0.56346 -0.50563,-1.57472 -1.06908,-2.13815 -0.56346,-0.56346 -1.47515,-0.62709 -2.13817,-1.0691 -0.41933,-0.27953 -0.64976,-0.78952 -1.06909,-1.06908 -3.8834,-2.58892 -0.75601,0.31308 -3.20725,-2.13815"
       id="path2776"
       inkscape:connector-curvature="0" />
    <path
       style="fill:none;fill-rule:evenodd;stroke:#000000;stroke-width:0.26458332px;stroke-linecap:butt;stroke-linejoin:miter;stroke-opacity:1"
       d="m 219.42766,205.13918 c -2.63182,3e-5 -0.77034,-0.34573 0,4.27633 0.39113,2.34675 -0.39113,5.13678 0,7.48353 0.44747,2.6848 1.29083,4.94154 2.13817,7.48355 0.35636,1.06908 0.84808,2.10222 1.06908,3.20723 0.13978,0.6989 0,1.42544 0,2.13815 0,2.44639 -0.22538,2.75648 1.06909,5.3454 1.32107,2.64213 1.06908,-0.36901 1.06908,2.13815 0,0.35637 0,0.71274 0,1.06908 0,0.35637 0.35637,1.06907 0,1.06907 -0.35636,0 0,-0.7127 0,-1.06907 0,-0.71271 0,-1.42542 0,-2.13815"
       id="path2778"
       inkscape:connector-curvature="0" />
    <path
       style="fill:none;fill-rule:evenodd;stroke:#000000;stroke-width:0.26458332px;stroke-linecap:butt;stroke-linejoin:miter;stroke-opacity:1"
       d="m 219.42766,205.13918 c 3.56361,-0.71273 7.09892,-1.58554 10.69084,-2.13815 1.05665,-0.16256 2.13817,0 3.20725,0 2.49452,0 4.98903,0 7.48355,0 2.78287,0 4.16493,0.11139 6.41446,-2.13815"
       id="path2780"
       inkscape:connector-curvature="0" />
    <path
       style="fill:none;fill-rule:evenodd;stroke:#000000;stroke-width:0.26458332px;stroke-linecap:butt;stroke-linejoin:miter;stroke-opacity:1"
       d="m 467.45385,220.10629 c 13.1853,0 26.3706,0 39.5559,0 2.85086,0 5.70174,0 8.55263,0 1.06907,0 2.1527,0.17574 3.20722,0 4.44924,-0.74155 1.85561,-0.97491 5.34538,-2.13818 0.33809,-0.11268 0.71964,0.0699 1.06908,0 1.44079,-0.28815 2.82702,-0.82751 4.27633,-1.06907 0.70302,-0.11716 1.43258,0.1008 2.13815,0 1.79882,-0.25697 3.55303,-0.77034 5.3454,-1.06908 2.48555,-0.41426 5.05248,-0.40605 7.48353,-1.06907 1.53754,-0.41934 2.74394,-1.70035 4.27633,-2.13815 1.02793,-0.29372 2.1464,0.13261 3.20722,0 14.13531,-1.76692 -1.14443,-0.19876 8.55263,-2.13815 0.69887,-0.13978 1.42544,0 2.13815,0 1.06908,-0.35637 2.11397,-0.79576 3.20723,-1.06908 1.03799,-0.2595 4.73051,0.30745 5.3454,0 0.90152,-0.45077 1.2995,-1.57906 2.13815,-2.13818 0.66302,-0.44201 1.47513,-0.62706 2.13815,-1.06907 0.41934,-0.27953 0.71274,-0.71271 1.06908,-1.06908 1.06907,-1.06907 2.13818,-2.13815 3.20725,-3.20722 0.35634,-0.35637 0.71271,-0.71274 1.06908,-1.06908 0.35634,-0.35637 0.84367,-0.61833 1.06907,-1.06907 0.15936,-0.31875 0,-0.71274 0,-1.06908"
       id="path2782"
       inkscape:connector-curvature="0" />
    <path
       style="fill:none;fill-rule:evenodd;stroke:#000000;stroke-width:0.26458332px;stroke-linecap:butt;stroke-linejoin:miter;stroke-opacity:1"
       d="m 581.84521,198.72473 c -13.80625,-4.53811 -13.04687,-6.96312 -22.45063,-4.27633 -2.1671,0.61918 -4.20444,1.69614 -6.41448,2.13815 -0.69887,0.13978 -1.42545,0 -2.13815,0 -2.5762,0 -4.12626,-0.45638 -6.41448,1.06908 -0.41931,0.27956 -0.61831,0.8437 -1.06908,1.0691 -0.31874,0.15936 -1.32106,0.25196 -1.06907,0 0.56345,-0.56346 1.42544,-0.71273 2.13815,-1.0691"
       id="path2784"
       inkscape:connector-curvature="0" />
    <path
       style="fill:none;fill-rule:evenodd;stroke:#000000;stroke-width:0.26458332px;stroke-linecap:butt;stroke-linejoin:miter;stroke-opacity:1"
       d="m 581.84521,198.72473 c 2.04904,2.04904 0.50022,0.18148 2.13815,4.2763 0.29594,0.73986 0.87583,1.36509 1.06908,2.13815 0.17285,0.69144 0,1.42545 0,2.13815 0,1.78181 0,3.5636 0,5.34541 0,0.25405 -0.1198,4.03669 0,4.2763 0.64145,1.28291 2.5658,1.92434 3.20722,3.20725 0.15939,0.31872 -0.0864,0.72335 0,1.06908 0.27332,1.09325 0.71274,2.13815 1.06911,3.20722 0.7127,2.13815 1.59152,4.22794 2.13815,6.41448 0.3471,1.3884 -0.34028,3.98431 0,5.34538 1.29061,5.16252 0.50805,-0.053 2.13815,3.20722 0.31946,0.63892 -0.70377,2.13818 1.06907,2.13818 0.79685,0 1.42545,-0.71273 2.13815,-1.06907"
       id="path2786"
       inkscape:connector-curvature="0" />
    <text
       xml:space="preserve"
       style="font-style:normal;font-variant:normal;font-weight:normal;font-stretch:normal;font-size:21.16666603px;line-height:125%;font-family:'Ubuntu Condensed';-inkscape-font-specification:'Ubuntu Condensed, ';text-align:center;letter-spacing:0px;word-spacing:0px;text-anchor:middle;fill:#000000;fill-opacity:1;stroke:none;stroke-width:0.26458332px;stroke-linecap:butt;stroke-linejoin:miter;stroke-opacity:1"
       x="390.48141"
       y="-36.471817"
       id="text2796"><tspan
         sodipodi:role="line"
         id="tspan2794"
         x="390.48141"
         y="-36.471817"
         style="stroke-width:0.26458332px">Empty table area for &quot;play&quot;</tspan></text>
    <path
       style="fill:none;fill-rule:evenodd;stroke:#000000;stroke-width:0.26458332px;stroke-linecap:butt;stroke-linejoin:miter;stroke-opacity:1"
       d="M 94.344837,-24.711949 742.20692,-25.781028"
       id="path2817"
       inkscape:connector-curvature="0" />
    <text
       xml:space="preserve"
       style="font-style:normal;font-variant:normal;font-weight:normal;font-stretch:normal;font-size:21.16666603px;line-height:125%;font-family:'Ubuntu Condensed';-inkscape-font-specification:'Ubuntu Condensed, ';text-align:center;letter-spacing:0px;word-spacing:0px;text-anchor:middle;fill:#000000;fill-opacity:1;stroke:none;stroke-width:0.26458332px;stroke-linecap:butt;stroke-linejoin:miter;stroke-opacity:1"
       x="58.203037"
       y="-14.840428"
       id="text2821"><tspan
         sodipodi:role="line"
         id="tspan2819"
         x="58.203037"
         y="-14.840428"
         style="stroke-width:0.26458332px">Scored fold</tspan></text>
  </g>
</svg>
