<?xml version="1.0" encoding="UTF-8" standalone="no"?>
<!-- Created with Inkscape (http://www.inkscape.org/) -->

<svg
   width="120mm"
   height="30mm"
   viewBox="0 0 120 30"
   version="1.1"
   id="svg834"
   inkscape:version="1.3.2 (1:1.3.2+202311252150+091e20ef0f)"
   sodipodi:docname="spinner_pointer.svg"
   xmlns:inkscape="http://www.inkscape.org/namespaces/inkscape"
   xmlns:sodipodi="http://sodipodi.sourceforge.net/DTD/sodipodi-0.dtd"
   xmlns="http://www.w3.org/2000/svg"
   xmlns:svg="http://www.w3.org/2000/svg"
   xmlns:rdf="http://www.w3.org/1999/02/22-rdf-syntax-ns#"
   xmlns:cc="http://creativecommons.org/ns#"
   xmlns:dc="http://purl.org/dc/elements/1.1/">
  <defs
     id="defs828">
    <inkscape:path-effect
       effect="fillet_chamfer"
       id="path-effect1"
       is_visible="true"
       lpeversion="1"
       nodesatellites_param="F,0,0,1,0,0.52916667,0,1 @ F,0,0,1,0,0.52916667,0,1 @ F,0,0,1,0,0.52916667,0,1 @ F,0,0,1,0,0.52916667,0,1 @ F,0,0,1,0,0.52916667,0,1 @ F,0,0,1,0,0.52916667,0,1 @ F,0,0,1,0,0.52916667,0,1 @ F,0,0,1,0,0.52916667,0,1 @ F,0,0,1,0,0.52916667,0,1 @ F,0,0,1,0,0.52916667,0,1 @ F,0,0,1,0,0.52916667,0,1 @ F,0,0,1,0,0.52916667,0,1 @ F,0,0,1,0,0.52916667,0,1 @ F,0,0,1,0,0.52916667,0,1 @ F,0,0,1,0,0.52916667,0,1"
       radius="2"
       unit="px"
       method="auto"
       mode="F"
       chamfer_steps="1"
       flexible="false"
       use_knot_distance="true"
       apply_no_radius="true"
       apply_with_radius="true"
       only_selected="false"
       hide_knots="false" />
  </defs>
  <sodipodi:namedview
     id="base"
     pagecolor="#ffffff"
     bordercolor="#666666"
     borderopacity="1.0"
     inkscape:pageopacity="0.0"
     inkscape:pageshadow="2"
     inkscape:zoom="5.6568542"
     inkscape:cx="71.68295"
     inkscape:cy="49.851028"
     inkscape:document-units="mm"
     inkscape:current-layer="layer1"
     showgrid="false"
     inkscape:window-width="1608"
     inkscape:window-height="986"
     inkscape:window-x="72"
     inkscape:window-y="27"
     inkscape:window-maximized="1"
     inkscape:showpageshadow="2"
     inkscape:pagecheckerboard="0"
     inkscape:deskcolor="#d1d1d1" />
  <metadata
     id="metadata831">
    <rdf:RDF>
      <cc:Work
         rdf:about="">
        <dc:format>image/svg+xml</dc:format>
        <dc:type
           rdf:resource="http://purl.org/dc/dcmitype/StillImage" />
      </cc:Work>
    </rdf:RDF>
  </metadata>
  <g
     inkscape:label="Layer 1"
     inkscape:groupmode="layer"
     id="layer1">
    <circle
       style="opacity:1;fill:none;fill-opacity:1;fill-rule:nonzero;stroke:#0000ff;stroke-width:0.0825;stroke-linecap:round;stroke-linejoin:round;stroke-miterlimit:4;stroke-dasharray:none;stroke-dashoffset:0.4;stroke-opacity:1;paint-order:normal"
       id="path1381-3"
       cx="60.70155"
       cy="15.426306"
       r="1.65" />
    <path
       style="opacity:1;fill:none;fill-opacity:1;fill-rule:nonzero;stroke:#000000;stroke-width:0.163672;stroke-linecap:round;stroke-linejoin:round;stroke-miterlimit:4;stroke-dasharray:none;stroke-dashoffset:0.4;stroke-opacity:1;paint-order:normal"
       d="M 36.441081,4.2108452 3.9036863,15.314774 a 0.17931571,0.17931571 89.876623 0 0 7.314e-4,0.339659 L 36.566009,26.643931 a 0.37790282,0.37790282 144.12873 0 0 0.498408,-0.360407 l -0.03012,-5.092943 a 0.52604631,0.52604631 134.83057 0 1 0.526037,-0.529157 h 51.490813 a 1.9295358,1.9295358 15.336057 0 1 0.984304,0.269941 l 7.340125,4.353417 a 1.9450741,1.9450741 15.452867 0 0 0.984299,0.272099 l 19.111185,0.07792 a 0.15136238,0.15136238 106.19622 0 0 0.0812,-0.2795 l -7.01767,-4.412224 a 0.15253015,0.15253015 106.07941 0 1 0.0812,-0.281658 h 0.15934 a 0.52916667,0.52916667 135 0 0 0.52917,-0.529167 v -9.411897 a 0.53188774,0.53188774 45.146934 0 0 -0.52916,-0.531881 l -0.38445,-0.002 a 0.15398249,0.15398249 74.069373 0 1 -0.0812,-0.2843436 l 7.17671,-4.5115716 a 0.1513474,0.1513474 73.80598 0 0 -0.0812,-0.2794785 L 98.291315,5.1888131 A 1.9452867,1.9452867 164.54942 0 0 97.306998,5.4608742 L 89.784982,9.921483 a 1.9297917,1.9297917 164.66588 0 1 -0.984322,0.26991 H 37.507442 A 0.53230605,0.53230605 44.830544 0 1 36.975145,9.6622356 L 36.945018,4.5690939 A 0.38091638,0.38091638 35.409013 0 0 36.441081,4.2108452 Z"
       id="rect1404-8"
       inkscape:connector-curvature="0"
       sodipodi:nodetypes="cccccccccccccccc"
       inkscape:path-effect="#path-effect1"
       inkscape:original-d="M 36.941888,4.0399365 3.4028794,15.485683 37.067547,26.812681 37.031167,20.661424 h 52.549147 l 8.250399,4.893299 20.169507,0.08224 -7.91363,-4.97554 h 1.21768 V 10.191192 l -1.44277,-0.0074 8.07271,-5.0748308 -20.172057,0.082003 -8.432326,5.0004288 H 36.978275 Z" />
  </g>
</svg>
