<?xml version="1.0" encoding="UTF-8" standalone="no"?>
<!-- Created with Inkscape (http://www.inkscape.org/) -->

<svg
   xmlns:dc="http://purl.org/dc/elements/1.1/"
   xmlns:cc="http://creativecommons.org/ns#"
   xmlns:rdf="http://www.w3.org/1999/02/22-rdf-syntax-ns#"
   xmlns:svg="http://www.w3.org/2000/svg"
   xmlns="http://www.w3.org/2000/svg"
   xmlns:sodipodi="http://sodipodi.sourceforge.net/DTD/sodipodi-0.dtd"
   xmlns:inkscape="http://www.inkscape.org/namespaces/inkscape"
   width="210mm"
   height="297mm"
   viewBox="0 0 210 297"
   version="1.1"
   id="svg834"
   inkscape:version="0.92.5 (2060ec1f9f, 2020-04-08)"
   sodipodi:docname="spinner.svg">
  <defs
     id="defs828" />
  <sodipodi:namedview
     id="base"
     pagecolor="#ffffff"
     bordercolor="#666666"
     borderopacity="1.0"
     inkscape:pageopacity="0.0"
     inkscape:pageshadow="2"
     inkscape:zoom="0.70710678"
     inkscape:cx="73.07166"
     inkscape:cy="509.02142"
     inkscape:document-units="mm"
     inkscape:current-layer="layer1"
     showgrid="false"
     inkscape:window-width="1608"
     inkscape:window-height="986"
     inkscape:window-x="72"
     inkscape:window-y="27"
     inkscape:window-maximized="1" />
  <metadata
     id="metadata831">
    <rdf:RDF>
      <cc:Work
         rdf:about="">
        <dc:format>image/svg+xml</dc:format>
        <dc:type
           rdf:resource="http://purl.org/dc/dcmitype/StillImage" />
        <dc:title />
      </cc:Work>
    </rdf:RDF>
  </metadata>
  <g
     inkscape:label="Layer 1"
     inkscape:groupmode="layer"
     id="layer1">
    <path
       style="fill:#000000;stroke-width:0.26458332"
       d="m 82.648701,194.42718 c 0.0084,-0.32745 10.85836,-40.78002 10.966921,-40.88858 0.07914,-0.0791 0.200318,-0.0874 0.269293,-0.0185 0.06897,0.069 -2.198746,8.86967 -5.039373,19.55711 -2.840631,10.68745 -5.282901,19.8782 -5.427271,20.4239 -0.144373,0.54571 -0.376965,0.99219 -0.516877,0.99219 -0.139912,0 -0.253624,-0.0298 -0.252693,-0.0661 z m 46.852039,-0.92604 c -0.14437,-0.54571 -2.58664,-9.73646 -5.42727,-20.4239 -2.84063,-10.68744 -5.10835,-19.48815 -5.03937,-19.55712 0.069,-0.069 0.19015,-0.0607 0.26929,0.0185 0.10856,0.10856 10.95854,40.56114 10.96692,40.88858 0.001,0.0364 -0.11278,0.0661 -0.25269,0.0661 -0.13991,0 -0.37251,-0.44649 -0.51688,-0.99219 z M 97.728257,182.05791 v -2.64584 h 2.645833 2.64583 v 2.64584 2.64583 h -2.64583 -2.645833 z m 4.233333,0 v -1.5875 h -1.5875 -1.587499 v 1.5875 1.5875 h 1.587499 1.5875 z m -2.116668,0 c 0,-0.35278 0.176388,-0.52917 0.529168,-0.52917 0.35278,0 0.52917,0.17639 0.52917,0.52917 0,0.35277 -0.17639,0.52916 -0.52917,0.52916 -0.35278,0 -0.529168,-0.17639 -0.529168,-0.52916 z m 4.233338,2.11666 c 0,-0.44097 0.17638,-0.52916 1.05833,-0.52916 0.88194,0 1.05833,0.0882 1.05833,0.52916 0,0.44098 -0.17639,0.52917 -1.05833,0.52917 -0.88195,0 -1.05833,-0.0882 -1.05833,-0.52917 z m 5.29166,-2.11666 v -2.64584 h 2.64583 2.64584 v 2.64584 2.64583 h -2.64584 -2.64583 z m 4.23333,0 v -1.5875 h -1.5875 -1.5875 v 1.5875 1.5875 h 1.5875 1.5875 z m -2.11666,0 c 0,-0.35278 0.17639,-0.52917 0.52916,-0.52917 0.35278,0 0.52917,0.17639 0.52917,0.52917 0,0.35277 -0.17639,0.52916 -0.52917,0.52916 -0.35277,0 -0.52916,-0.17639 -0.52916,-0.52916 z m -4.23334,1.05833 c 0,-0.47037 -0.17638,-0.52917 -1.58749,-0.52917 -1.41112,0 -1.5875,-0.0588 -1.5875,-0.52916 0,-0.35278 0.17638,-0.52917 0.52916,-0.52917 0.35278,0 0.52917,-0.17639 0.52917,-0.52917 0,-0.35277 0.17639,-0.52916 0.52917,-0.52916 0.35277,0 0.52916,0.17639 0.52916,0.52916 0,0.44098 0.17639,0.52917 1.05833,0.52917 h 1.05834 v 1.05833 c 0,0.88195 -0.0882,1.05834 -0.52917,1.05834 -0.35278,0 -0.52917,-0.17639 -0.52917,-0.52917 z m 0,-3.175 c 0,-0.35278 0.17639,-0.52917 0.52917,-0.52917 0.35278,0 0.52917,0.17639 0.52917,0.52917 0,0.35278 -0.17639,0.52917 -0.52917,0.52917 -0.35278,0 -0.52917,-0.17639 -0.52917,-0.52917 z m -3.17499,-1.5875 v -1.05833 h 2.11666 c 1.94028,0 2.11667,0.0441 2.11667,0.52916 0,0.47037 -0.17639,0.52917 -1.5875,0.52917 -1.41111,0 -1.5875,0.0588 -1.5875,0.52917 0,0.35277 -0.17639,0.52916 -0.52917,0.52916 -0.44097,0 -0.52916,-0.17639 -0.52916,-1.05833 z m -6.350003,-0.52917 c 0,-0.35277 0.17639,-0.52916 0.529167,-0.52916 0.352777,0 0.529167,-0.17639 0.529167,-0.52917 0,-0.48507 0.176389,-0.52917 2.116669,-0.52917 1.94027,0 2.11666,0.0441 2.11666,0.52917 0,0.35278 -0.17639,0.52917 -0.52916,0.52917 -0.35278,0 -0.52917,0.17639 -0.52917,0.52916 0,0.35278 -0.17639,0.52917 -0.52917,0.52917 -0.35278,0 -0.52916,-0.17639 -0.52916,-0.52917 0,-0.35277 -0.17639,-0.52916 -0.52917,-0.52916 -0.35278,0 -0.529168,0.17639 -0.529168,0.52916 0,0.44098 -0.17639,0.52917 -1.058331,0.52917 -0.881944,0 -1.058334,-0.0882 -1.058334,-0.52917 z m 11.641663,-0.52916 v -1.05834 h -1.05833 c -0.88195,0 -1.05834,-0.0882 -1.05834,-0.52916 0,-0.35278 -0.17638,-0.52917 -0.52916,-0.52917 -0.35278,0 -0.52917,-0.17639 -0.52917,-0.52917 0,-0.44097 0.17639,-0.52916 1.05833,-0.52916 0.88195,0 1.05834,0.0882 1.05834,0.52916 0,0.44098 0.17639,0.52917 1.05833,0.52917 0.88195,0 1.05833,-0.0882 1.05833,-0.52917 0,-0.35277 0.17639,-0.52916 0.52917,-0.52916 0.44097,0 0.52917,0.17639 0.52917,1.05833 0,0.88194 -0.0882,1.05833 -0.52917,1.05833 -0.44097,0 -0.52917,0.17639 -0.52917,1.05834 0,0.88194 -0.0882,1.05833 -0.52916,1.05833 -0.44097,0 -0.52917,-0.17639 -0.52917,-1.05833 z m 2.11667,0.52916 c 0,-0.35277 0.17639,-0.52916 0.52916,-0.52916 0.35278,0 0.52917,0.17639 0.52917,0.52916 0,0.35278 -0.17639,0.52917 -0.52917,0.52917 -0.35277,0 -0.52916,-0.17639 -0.52916,-0.52917 z m 2.11666,-0.52916 c 0,-0.88195 -0.0882,-1.05834 -0.52916,-1.05834 -0.35278,0 -0.52917,-0.17639 -0.52917,-0.52916 0,-0.35278 0.17639,-0.52917 0.52917,-0.52917 0.35278,0 0.52916,-0.17639 0.52916,-0.52917 0,-0.35277 0.17639,-0.52916 0.52917,-0.52916 0.48507,0 0.52917,0.17639 0.52917,2.11666 0,1.94028 -0.0441,2.11667 -0.52917,2.11667 -0.44097,0 -0.52917,-0.17639 -0.52917,-1.05833 z m -9.52499,-2.11667 c 0,-0.88194 0.0882,-1.05833 0.52916,-1.05833 0.44097,0 0.52917,0.17639 0.52917,1.05833 0,0.88194 -0.0882,1.05833 -0.52917,1.05833 -0.44097,0 -0.52916,-0.17639 -0.52916,-1.05833 z m 37.00042,0.51134 c -0.23345,-0.13064 -1.6556,-2.38273 -3.16033,-5.00464 -1.50474,-2.62191 -2.82412,-4.76712 -2.93196,-4.76712 -0.10784,0 -0.31876,0.45562 -0.4687,1.01248 -0.34107,1.26663 -1.38947,1.95713 -2.0177,1.3289 -0.44157,-0.44157 -0.51736,-1.06369 -0.25299,-2.07679 0.0949,-0.3638 0.21607,-0.84005 0.26919,-1.05834 0.0531,-0.21828 0.1148,-0.39687 0.13706,-0.39687 0.0223,0 0.0839,-0.17859 0.13707,-0.39688 0.0531,-0.21828 0.17003,-0.69453 0.25981,-1.05833 0.0898,-0.3638 0.19543,-0.82676 0.23479,-1.02879 0.11,-0.56461 0.9385,-1.06038 1.57473,-0.9423 1.73771,0.32251 3.26217,0.75303 3.58896,1.01355 0.20426,0.16285 0.41262,0.26632 0.46302,0.22994 0.36362,-0.2625 1.10905,0.0359 1.32189,0.52916 0.59284,1.37393 -0.33649,2.0576 -2.12549,1.56363 -0.52627,-0.14531 -0.95686,-0.21038 -0.95686,-0.14459 0,0.0658 1.20667,2.20575 2.68148,4.75548 1.47482,2.54973 2.68176,4.83779 2.68211,5.08458 0.001,0.89448 -0.08,1.09589 -0.54178,1.34301 -0.28172,0.15078 -0.6398,0.15635 -0.8943,0.0139 z m -43.350423,-1.04051 c 0,-0.44097 0.17639,-0.52916 1.058334,-0.52916 0.881941,0 1.058331,0.0882 1.058331,0.52916 0,0.44098 -0.17639,0.52917 -1.058331,0.52917 -0.881944,0 -1.058334,-0.0882 -1.058334,-0.52917 z m 3.175003,-1.05833 c 0,-1.41111 0.0588,-1.5875 0.52916,-1.5875 0.44097,0 0.52917,0.17639 0.52917,1.05833 0,0.88195 0.0882,1.05834 0.52917,1.05834 0.35277,0 0.52916,0.17639 0.52916,0.52916 0,0.44098 -0.17639,0.52917 -1.05833,0.52917 h -1.05833 z m -3.175003,-1.05833 c 0,-0.35278 0.17639,-0.52917 0.529167,-0.52917 0.352777,0 0.529167,0.17639 0.529167,0.52917 0,0.35277 -0.17639,0.52916 -0.529167,0.52916 -0.352777,0 -0.529167,-0.17639 -0.529167,-0.52916 z m 5.291663,-0.52917 c 0,-0.88194 0.0882,-1.05833 0.52917,-1.05833 0.44097,0 0.52917,0.17639 0.52917,1.05833 0,0.88194 -0.0882,1.05833 -0.52917,1.05833 -0.44097,0 -0.52917,-0.17639 -0.52917,-1.05833 z m 2.11667,-0.52917 v -1.5875 h -1.05833 c -0.88195,0 -1.05834,-0.0882 -1.05834,-0.52916 0,-0.44098 0.17639,-0.52917 1.05834,-0.52917 0.88194,0 1.05833,-0.0882 1.05833,-0.52917 0,-0.47037 0.17639,-0.52916 1.5875,-0.52916 1.41111,0 1.5875,0.0588 1.5875,0.52916 0,0.44098 -0.17639,0.52917 -1.05834,0.52917 h -1.05833 v 1.5875 1.5875 h 1.05833 c 0.88195,0 1.05834,0.0882 1.05834,0.52917 0,0.47037 -0.17639,0.52916 -1.5875,0.52916 h -1.5875 z m 4.23333,-1.05833 v -2.64583 h 2.64583 2.64584 v 2.64583 2.64583 h -2.64584 -2.64583 z m 4.23333,0 v -1.5875 h -1.5875 -1.5875 v 1.5875 1.5875 h 1.5875 1.5875 z m -2.11666,0 c 0,-0.35278 0.17639,-0.52917 0.52916,-0.52917 0.35278,0 0.52917,0.17639 0.52917,0.52917 0,0.35278 -0.17639,0.52917 -0.52917,0.52917 -0.35277,0 -0.52916,-0.17639 -0.52916,-0.52917 z m -47.192326,1.6674 c -0.0531,-0.0531 -0.3369,-0.14279 -0.63074,-0.19938 -0.60273,-0.11608 -2.00323,-1.4319 -2.14213,-2.01261 -0.27712,-1.15861 -0.30119,-1.52728 -0.15773,-2.41541 0.13414,-0.83042 1.43192,-2.76037 1.44364,-2.14686 0.002,0.11664 0.0929,0.0724 0.20145,-0.0983 0.20617,-0.32413 6.12187,-2.01729 7.10845,-2.03454 1.12506,-0.0197 2.64702,0.90135 3.14777,1.90489 0.61616,1.23485 0.63171,1.40307 0.17968,1.94349 -0.43222,0.51674 -1.04569,0.36333 -1.7068,-0.42681 -0.25197,-0.30115 -0.58408,-0.69636 -0.73804,-0.87826 -0.41616,-0.49171 -1.43701,-0.40635 -4.20088,0.35123 -2.78588,0.76362 -3.32053,1.14406 -3.36501,2.39442 -0.0261,0.73451 0.10304,0.92913 0.85285,1.28494 0.8001,0.37967 1.03175,0.38094 2.45023,0.0134 1.95598,-0.50684 1.70776,-0.5399 2.69132,0.35844 l 0.83689,0.76438 -0.88671,0.28088 c -2.41067,0.76363 -4.80524,1.19509 -5.08424,0.91609 z m 81.588156,-0.27138 c -0.80036,-0.19641 -1.6338,-0.43175 -1.85208,-0.52298 -0.55395,-0.23153 -0.72506,-0.27306 -1.28045,-0.3108 -0.54772,-0.0372 -1.05281,-0.98482 -0.89897,-1.68654 0.13503,-0.61583 1.10371,-0.83051 2.28089,-0.50547 0.52627,0.14531 0.95686,0.21037 0.95686,0.14459 0,-0.0658 -1.20558,-2.20388 -2.67907,-4.75131 -2.86466,-4.95255 -3.20975,-5.96246 -2.19535,-6.42465 0.91909,-0.41876 1.32278,0.073 4.20332,5.12052 1.4118,2.47385 2.66004,4.59494 2.77389,4.71353 0.11384,0.11859 0.33826,-0.3057 0.4987,-0.94287 0.35545,-1.41163 1.37953,-2.15199 2.04969,-1.48183 0.44158,0.44157 0.51736,1.06369 0.25299,2.07679 -0.0949,0.3638 -0.21607,0.84005 -0.26919,1.05833 -0.0531,0.21829 -0.1148,0.39688 -0.13706,0.39688 -0.0223,0 -0.0839,0.17859 -0.13707,0.39687 -0.0531,0.21829 -0.17003,0.69454 -0.25981,1.05834 -0.0898,0.3638 -0.18938,0.78052 -0.22134,0.92604 -0.22306,1.01546 -1.09526,1.22308 -3.08595,0.73456 z m 9.94117,-15.66422 c -8.2663,-8.26726 -14.91927,-15.0996 -14.78436,-15.18297 0.13491,-0.0834 7.00863,6.61253 15.27493,14.87979 8.26631,8.26725 14.91927,15.09959 14.78436,15.18297 -0.1349,0.0834 -7.00862,-6.61253 -15.27493,-14.87979 z M 41.818754,170.76151 c -0.0834,-0.1349 6.61253,-7.00862 14.87979,-15.27493 8.26725,-8.2663 15.09959,-14.91927 15.18297,-14.78436 0.0834,0.13491 -6.61253,7.00862 -14.87979,15.27493 -8.26726,8.26631 -15.0996,14.91927 -15.18297,14.78436 z m 56.967837,-0.34527 c 0,-0.44097 0.176389,-0.52917 1.058331,-0.52917 h 1.058338 v -1.05833 c 0,-0.88194 0.0882,-1.05833 0.52916,-1.05833 0.47037,0 0.52917,0.17639 0.52917,1.5875 v 1.5875 h -1.5875 c -1.41111,0 -1.587499,-0.0588 -1.587499,-0.52917 z m 8.466659,0 c 0,-0.35278 0.17639,-0.52917 0.52917,-0.52917 0.35278,0 0.52917,0.17639 0.52917,0.52917 0,0.35278 -0.17639,0.52917 -0.52917,0.52917 -0.35278,0 -0.52917,-0.17639 -0.52917,-0.52917 z m -35.319676,-0.2183 c -0.0982,-0.0982 -0.25796,-0.17995 -0.35497,-0.18164 -0.75489,-0.0131 -1.88334,-0.83143 -2.29638,-1.66529 -0.6499,-1.31205 -0.67647,-1.55892 -0.20946,-1.94651 0.64744,-0.53733 1.07408,-0.47523 1.5843,0.23059 1.21226,1.67696 1.45787,1.71183 5.07486,0.7204 2.82062,-0.77314 3.56212,-1.29252 3.43166,-2.40365 -0.17244,-1.46862 -1.21099,-1.8486 -3.45983,-1.26587 -1.48654,0.3852 -2.58175,0.223 -2.58175,-0.38236 0,-0.11816 -0.2632,-0.33228 -0.5849,-0.47583 -0.50343,-0.22463 -0.27308,-0.34674 1.65365,-0.87657 2.20503,-0.60636 3.54548,-0.73676 4.65523,-0.45287 0.64264,0.1644 2.03547,1.48137 2.172468,2.05416 0.27712,1.1586 0.301194,1.52727 0.157732,2.41541 -0.134136,0.83042 -1.43192,2.76037 -1.44364,2.14686 -0.002,-0.11664 -0.0929,-0.0724 -0.20145,0.0983 -0.10857,0.17068 -1.59788,0.68409 -3.30959,1.1409 -3.81743,1.01877 -4.06454,1.06741 -4.28793,0.84401 z m 25.794683,-1.89837 c 0,-0.44097 0.17639,-0.52916 1.058334,-0.52916 0.881941,0 1.058331,0.0882 1.058331,0.52916 0,0.44098 -0.17639,0.52917 -1.058331,0.52917 -0.881944,0 -1.058334,-0.0882 -1.058334,-0.52917 z m 70.159323,-16.54861 c -1.0668,-0.61349 -2.06269,-1.2385 -2.21309,-1.3889 -0.18821,-0.18821 0.1224,-0.96938 0.99648,-2.50608 l 1.26993,-2.23262 2.29025,1.33575 2.29024,1.33575 -1.30545,2.2633 c -0.718,1.24481 -1.32419,2.2734 -1.34709,2.28577 -0.0229,0.0124 -0.91447,-0.47947 -1.98127,-1.09297 z m 2.42829,-1.72636 c 0.41428,-0.73761 0.71194,-1.37115 0.66146,-1.40786 -0.48614,-0.35352 -2.66175,-1.50983 -2.7113,-1.44101 -0.3664,0.50876 -1.50706,2.66111 -1.43871,2.71472 0.27887,0.21869 2.49212,1.47114 2.60302,1.47302 0.0728,0.001 0.47125,-0.60127 0.88553,-1.33887 z m -1.71763,-0.33306 c -0.34619,-0.26038 -0.37144,-0.4146 -0.12345,-0.75374 0.25455,-0.34812 0.39396,-0.36629 0.75948,-0.099 0.36372,0.26597 0.38688,0.40734 0.12344,0.75375 -0.26402,0.34718 -0.40509,0.36557 -0.75947,0.099 z m -127.412486,0.62792 -1.31168,-2.29246 2.28744,-1.33411 2.28743,-1.33412 1.2562,2.20849 c 0.69091,1.21466 1.19048,2.31481 1.11017,2.44476 -0.0803,0.12996 -1.0847,0.7681 -2.23196,1.41809 l -2.08592,1.18181 z m 3.07342,0.082 c 0.66763,-0.3851 1.25414,-0.73294 1.30335,-0.77298 0.0683,-0.0556 -1.06956,-2.20477 -1.43871,-2.71736 -0.0496,-0.0688 -2.22515,1.08749 -2.7113,1.44102 -0.11068,0.0805 1.36825,2.74884 1.52375,2.74923 0.06,1.5e-4 0.65529,-0.31481 1.32291,-0.69991 z m -1.27324,-1.10252 c -0.36809,-0.68779 0.54584,-1.25854 0.95813,-0.59836 0.22304,0.35714 0.17776,0.52198 -0.20991,0.76409 -0.4044,0.25255 -0.54049,0.2224 -0.74822,-0.16573 z m 120.755856,-0.0494 c -0.0899,-0.14552 -0.0788,-0.4017 0.0248,-0.5693 0.10358,-0.1676 -0.0101,-0.44983 -0.25267,-0.62719 -0.40104,-0.29324 -0.35074,-0.48172 0.55489,-2.07931 0.63355,-1.11765 1.14029,-1.72782 1.39277,-1.67707 0.22704,0.0456 0.37187,0.31877 0.33845,0.63825 -0.0321,0.30717 0.11816,0.70504 0.33399,0.88416 0.56543,0.46927 -0.0102,1.13903 -0.67378,0.78392 -0.62548,-0.33475 -0.9714,0.46428 -0.43375,1.00193 0.32775,0.32775 0.32023,0.47983 -0.0564,1.14198 -0.4425,0.7779 -0.93388,0.97898 -1.22827,0.50263 z M 47.623654,148.84573 c -0.10665,-0.27793 0.132,-0.54068 0.76544,-0.84275 0.94529,-0.45078 1.11893,-0.71616 0.65583,-1.00236 -0.39382,-0.2434 -0.32057,-0.58336 0.16591,-0.77004 0.25568,-0.0981 0.56637,0.0206 0.76512,0.29243 0.27629,0.37785 0.40559,0.39874 0.74168,0.11981 0.33912,-0.28145 0.45392,-0.25026 0.68787,0.18689 0.25069,0.4684 0.099,0.62641 -1.4136,1.47229 -1.89976,1.06241 -2.1474,1.11926 -2.36825,0.54373 z m 113.522936,-0.98927 c -0.40166,-0.30074 -0.39341,-0.39378 0.10394,-1.17187 0.3346,-0.52348 0.68495,-0.78966 0.92044,-0.6993 0.49832,0.19123 0.47972,0.44201 -0.10393,1.40176 -0.41072,0.67537 -0.5503,0.74655 -0.92045,0.46941 z M 46.686144,147.17488 c -0.24205,-0.45227 -0.20467,-0.59661 0.2123,-0.81977 0.65636,-0.35127 1.02135,0.42882 0.46224,0.98793 -0.3313,0.3313 -0.41893,0.30946 -0.67454,-0.16816 z m 125.865586,-0.0561 c -0.41921,-0.24443 -0.41341,-0.32549 0.0835,-1.16763 0.33793,-0.57274 0.67328,-0.85149 0.9135,-0.75931 0.20876,0.0801 0.37956,0.25789 0.37956,0.39506 0,0.24903 -0.75428,1.81783 -0.86669,1.80259 -0.0326,-0.004 -0.26206,-0.12624 -0.50983,-0.27071 z M 159.3165,146.7571 c -0.3814,-0.27946 -0.40088,-0.41064 -0.11837,-0.797 0.30239,-0.41354 0.37391,-0.41942 0.67588,-0.0556 0.20354,0.24524 0.25057,0.56189 0.11837,0.79699 -0.17991,0.31996 -0.3014,0.32995 -0.67588,0.0556 z m -108.065766,-2.26578 -1.33411,-2.28743 2.20848,-1.2562 c 1.21467,-0.69091 2.31482,-1.19048 2.44477,-1.11017 0.12996,0.0803 0.7681,1.0847 1.41809,2.23196 l 1.18181,2.08592 -2.29246,1.31168 -2.29246,1.31167 z m 3.06261,0.0893 c 0.66763,-0.3851 1.2581,-0.73691 1.31216,-0.7818 0.0772,-0.0641 -1.11849,-2.31445 -1.43915,-2.70854 -0.0547,-0.0673 -2.13104,1.02933 -2.70978,1.43113 -0.10409,0.0723 1.36725,2.75045 1.51385,2.75557 0.06,0.002 0.65529,-0.31126 1.32292,-0.69636 z m -1.22063,-1.12367 c -0.22716,-0.36375 -0.19141,-0.52518 0.16573,-0.74821 0.35714,-0.22304 0.52199,-0.17776 0.76409,0.20991 0.25256,0.4044 0.22241,0.54049 -0.16573,0.74821 -0.35495,0.18997 -0.54738,0.13711 -0.76409,-0.20991 z m -13.20072,2.57746 c -0.10358,-0.1676 0.0226,-0.45893 0.28031,-0.6474 0.43986,-0.32164 0.41835,-0.42442 -0.3503,-1.67364 -0.79676,-1.2949 -0.80468,-1.3386 -0.292,-1.61297 0.4119,-0.22044 0.56098,-0.19329 0.68289,0.12439 0.10363,0.27006 0.35658,0.35605 0.75396,0.25631 0.71983,-0.18066 1.09043,0.48868 0.52869,0.95488 -0.32208,0.2673 -0.31989,0.41553 0.0157,1.06454 0.5271,1.0193 0.49819,1.17516 -0.28401,1.53155 -0.84539,0.38519 -1.09838,0.38563 -1.33527,0.002 z m 130.899096,0.0691 c -0.21972,-0.13921 -0.29223,-0.43803 -0.18685,-0.77006 0.11736,-0.36976 0.025,-0.62492 -0.28991,-0.80117 -0.39177,-0.21925 -0.40833,-0.32343 -0.10879,-0.68436 0.27294,-0.32887 0.43711,-0.35622 0.7215,-0.1202 0.42789,0.35512 0.41788,0.36285 0.99228,-0.76648 0.39411,-0.77486 0.50031,-0.83286 1.02584,-0.56021 0.97866,0.50773 1.22327,0.78342 1.0638,1.19899 -0.0991,0.25825 -0.35751,0.34574 -0.73861,0.25009 -0.49024,-0.12304 -0.70362,0.0686 -1.30358,1.17094 -0.39455,0.72494 -0.73971,1.31624 -0.76701,1.31402 -0.0273,-0.002 -0.2112,-0.10643 -0.40867,-0.23156 z M 45.618874,145.3061 c -0.21287,-0.39774 -0.10133,-0.56632 0.63815,-0.96455 l 0.8961,-0.48259 -0.50173,-0.98346 c -0.43296,-0.84866 -0.44748,-1.00428 -0.10593,-1.13534 0.26766,-0.10271 0.34449,-0.3563 0.23732,-0.78329 -0.25803,-1.02805 0.54355,-1.09122 1.18154,-0.0931 0.49687,0.77735 0.50528,0.87136 0.10478,1.17125 -0.40227,0.30121 -0.39799,0.39562 0.0562,1.239 0.3997,0.74219 0.57909,0.86615 0.95912,0.66277 0.35197,-0.18838 0.53223,-0.12914 0.72967,0.23977 0.21935,0.40985 0.1164,0.55949 -0.62968,0.91527 -0.78106,0.37246 -0.93186,0.37717 -1.21346,0.0379 -0.2798,-0.33713 -0.43665,-0.31954 -1.20784,0.13548 -0.85207,0.50273 -0.89625,0.50431 -1.14424,0.0409 z m -7.81665,-0.81499 c -0.50007,-0.96703 -0.50085,-1.23124 -0.004,-1.42183 0.25668,-0.0985 0.53436,0.1184 0.79375,0.62001 0.50007,0.96702 0.50084,1.23124 0.004,1.42183 -0.25668,0.0985 -0.53436,-0.11841 -0.79375,-0.62001 z m 123.912986,0.0393 c -1.02941,-0.60437 -1.18967,-0.80091 -0.9713,-1.19111 0.24739,-0.44208 0.31092,-0.43817 1.17624,0.0724 0.7768,0.45833 0.9375,0.48036 1.06576,0.14611 0.17046,-0.4442 0.77532,-0.52566 1.01567,-0.13678 0.17695,0.28631 -0.56107,1.86745 -0.86189,1.84652 -0.10541,-0.007 -0.74642,-0.33904 -1.42448,-0.73712 z m -119.011406,-0.0267 c -0.20019,-0.37406 -0.16351,-0.53134 0.15214,-0.65246 0.50856,-0.19516 0.89731,0.0175 0.89731,0.49088 0,0.58195 -0.76171,0.69923 -1.04945,0.16158 z m 112.936416,0.1721 c -0.39036,-0.25036 -0.38211,-0.35382 0.0923,-1.15785 0.28652,-0.48561 0.63198,-0.88293 0.76769,-0.88293 0.50345,0 0.53441,0.8128 0.0591,1.55244 -0.3904,0.60757 -0.5779,0.70718 -0.91911,0.48834 z m 2.24335,-0.0584 c -0.0842,-0.2194 0.0543,-0.7155 0.30788,-1.10243 0.49512,-0.75564 0.48923,-0.76676 -0.82394,-1.55825 -0.30307,-0.18266 -0.40457,-0.44419 -0.28914,-0.745 0.16278,-0.42418 0.29033,-0.40233 1.50242,0.25738 0.7285,0.3965 1.32455,0.82961 1.32455,0.96247 0,0.41543 -1.36042,2.58475 -1.62095,2.58475 -0.13626,0 -0.31663,-0.17951 -0.40082,-0.39892 z m 9.76083,-0.34392 c -0.47294,-0.22632 -0.8599,-0.51423 -0.8599,-0.6398 0,-0.12556 0.43795,-0.98976 0.97323,-1.92043 0.8391,-1.45892 1.04067,-1.65603 1.46262,-1.43021 0.28022,0.14997 0.40937,0.3976 0.30217,0.57937 -0.10297,0.1746 -0.4717,0.77457 -0.8194,1.33328 -0.5882,0.94515 -0.60073,1.03883 -0.18006,1.34643 0.31202,0.22815 0.37917,0.45644 0.21668,0.73673 -0.21146,0.36475 -0.32305,0.36421 -1.09534,-0.005 z M 44.092704,142.6239 c -0.60673,-1.08002 -0.85274,-1.29916 -1.39778,-1.24512 -0.9348,0.0927 -0.84993,-0.58843 0.14577,-1.16995 l 0.80722,-0.47144 0.97872,1.70166 c 1.0899,1.895 1.14957,2.13209 0.59055,2.34661 -0.26444,0.10147 -0.62285,-0.26882 -1.12448,-1.16176 z M 164.7484,142.5856 c -0.52911,-0.32021 -0.79078,-0.65422 -0.6993,-0.89261 0.19407,-0.50575 0.59858,-0.47798 1.47718,0.10138 0.60717,0.40039 0.6722,0.54635 0.39687,0.89087 -0.29582,0.37017 -0.41517,0.36005 -1.17475,-0.0996 z m 8.49182,-1.19929 -2.14324,-1.23272 1.33352,-2.2864 1.33351,-2.28641 2.29724,1.31441 2.29723,1.31441 -1.22464,2.12506 c -0.67356,1.16878 -1.34294,2.1609 -1.48751,2.20471 -0.14458,0.0438 -1.22733,-0.47507 -2.40611,-1.15306 z m 2.89648,-1.41591 c 0.41429,-0.73761 0.71194,-1.37491 0.66146,-1.41622 -0.38175,-0.31242 -2.64446,-1.51932 -2.70248,-1.44147 -0.58443,0.7842 -1.51496,2.73627 -1.33367,2.79779 0.13211,0.0448 0.71645,0.3748 1.29853,0.73327 0.58209,0.35847 1.11787,0.65535 1.19063,0.65975 0.0728,0.004 0.47125,-0.59551 0.88553,-1.33312 z m -1.72647,-0.34864 c -0.34812,-0.25455 -0.36629,-0.39396 -0.099,-0.75948 0.26597,-0.36373 0.40734,-0.38688 0.75375,-0.12345 0.34718,0.26403 0.36557,0.4051 0.099,0.75948 -0.26039,0.34618 -0.4146,0.37144 -0.75374,0.12345 z M 36.251504,141.7751 c -0.20361,-0.32743 -0.78788,-1.32231 -1.29837,-2.21086 l -0.92817,-1.61553 2.30043,-1.31624 2.30044,-1.31624 1.33411,2.28743 1.33412,2.28743 -2.17941,1.23966 c -1.19867,0.68181 -2.24995,1.23966 -2.33617,1.23966 -0.0862,0 -0.32337,-0.26789 -0.52698,-0.59531 z m 2.16297,-1.43616 c 0.68076,-0.38969 1.278,-0.73753 1.32721,-0.77297 0.0699,-0.0504 -1.10848,-2.26288 -1.44752,-2.71781 -0.058,-0.0778 -2.32072,1.12905 -2.70248,1.44147 -0.0985,0.0806 1.35737,2.75714 1.49988,2.75759 0.0469,1.5e-4 0.64216,-0.31857 1.32291,-0.70828 z m -1.22633,-1.16264 c -0.25255,-0.4044 -0.22241,-0.54049 0.16573,-0.74821 0.68779,-0.36809 1.25854,0.54583 0.59836,0.95812 -0.35714,0.22305 -0.52199,0.17776 -0.76409,-0.20991 z m 124.238546,2.72848 c -0.79297,-0.49117 -0.82482,-0.55897 -0.50188,-1.06805 0.17352,-0.27354 0.38787,-0.24674 1.05786,0.13229 0.7928,0.44851 1.0198,1.12807 0.43621,1.30584 -0.14552,0.0443 -0.59201,-0.1222 -0.99219,-0.37008 z m 8.87308,0.29358 c -0.24619,-0.0999 -0.24948,-0.24509 -0.0141,-0.62202 0.23763,-0.38051 0.41889,-0.43192 0.80129,-0.22726 0.39328,0.21047 0.43006,0.34175 0.18013,0.6429 -0.32879,0.39617 -0.44059,0.42003 -0.96734,0.20638 z m -121.696676,-2.31031 -0.79987,-1.39261 1.40443,-0.75971 1.40444,-0.75972 -0.55721,-0.90159 c -0.46189,-0.74735 -0.4941,-0.94156 -0.18828,-1.13521 0.53963,-0.3417 0.58958,-0.3156 1.0948,0.57209 0.34607,0.60806 0.58931,0.76982 0.97397,0.64774 0.40284,-0.12786 0.65835,0.0858 1.19238,0.99704 0.78338,1.33674 0.83255,1.65946 0.28488,1.86962 -0.26154,0.10037 -0.5408,-0.13566 -0.8274,-0.69929 -0.23793,-0.46794 -0.46667,-0.89007 -0.50829,-0.93808 -0.0416,-0.048 -0.41344,0.12032 -0.82625,0.37407 -0.41281,0.25374 -1.02576,0.62798 -1.36213,0.83164 l -0.61156,0.37028 0.53446,0.90585 c 0.50776,0.86057 0.5109,0.91846 0.063,1.15817 -0.39499,0.2114 -0.60123,0.0264 -1.27135,-1.14029 z m 110.536426,0.65314 c -0.30557,-0.19349 -0.27195,-0.39057 0.19576,-1.14734 0.54766,-0.88613 0.54964,-0.92089 0.0654,-1.15139 -0.47407,-0.22567 -0.45937,-0.30767 0.2909,-1.62339 0.67871,-1.19022 0.85996,-1.34838 1.28475,-1.12104 0.48028,0.25704 0.47913,0.29084 -0.0399,1.17053 l -0.53446,0.90585 0.67771,0.41362 c 2.21918,1.35442 1.95065,1.32233 2.55095,0.3049 0.34428,-0.58352 0.68138,-0.86647 0.9222,-0.77406 0.20876,0.0801 0.37956,0.26054 0.37956,0.40096 0,0.33304 -1.32802,2.59849 -1.52325,2.59849 -0.0825,0 -0.67328,-0.30663 -1.31278,-0.6814 -1.23964,-0.72648 -1.72902,-0.6221 -2.06634,0.44072 -0.1777,0.55987 -0.34457,0.60925 -0.89053,0.26355 z m 6.26838,-0.0476 c -0.41839,-0.23415 -0.41198,-0.31718 0.0903,-1.16842 0.43228,-0.73265 0.6324,-0.86726 0.99828,-0.67145 0.3611,0.19326 0.55665,0.0772 0.92725,-0.55013 0.42906,-0.72634 0.43347,-0.83501 0.0511,-1.25749 -0.67934,-0.75066 -0.0284,-1.17011 1.00269,-0.64614 1.08536,0.55154 1.07818,0.54128 0.69923,0.99789 -0.27536,0.33178 -0.17609,0.48665 0.6088,0.94975 0.59676,0.35209 0.88485,0.69136 0.79216,0.93288 -0.18638,0.48572 -0.64545,0.48257 -1.29523,-0.009 -0.76546,-0.57896 -1.07498,-0.49189 -1.44737,0.40715 -0.27398,0.66144 -0.44945,0.78409 -0.94414,0.65993 -0.38358,-0.0963 -0.68598,-0.0125 -0.82014,0.22724 -0.1514,0.27055 -0.34203,0.30727 -0.66292,0.12769 z M 50.912964,139.75438 c -0.35127,-0.65635 0.42882,-1.02134 0.98793,-0.46223 0.3313,0.3313 0.30945,0.41893 -0.16816,0.67454 -0.45227,0.24205 -0.59661,0.20467 -0.81977,-0.21231 z m -6.19065,-0.14542 c -0.0904,-0.23549 0.17581,-0.58584 0.69929,-0.92045 0.78115,-0.4993 0.87015,-0.5069 1.17447,-0.10038 0.27887,0.37253 0.21812,0.51316 -0.39687,0.9187 -0.87826,0.57914 -1.2831,0.60714 -1.47689,0.10213 z m -1.89739,-1.21453 c -0.13235,-0.41698 -0.26523,-0.46818 -0.66281,-0.25541 -0.65973,0.35308 -1.22023,-0.48402 -0.61862,-0.92393 0.57852,-0.42303 0.18258,-1.26119 -0.43871,-0.92869 -0.38895,0.20816 -0.58173,0.0954 -1.02628,-0.60016 -0.50918,-0.79669 -0.51623,-0.87977 -0.10103,-1.19048 0.37426,-0.28007 0.49087,-0.25098 0.722,0.1801 0.20305,0.3787 0.38983,0.45016 0.70911,0.27128 0.50645,-0.28375 0.60785,-0.17565 1.76102,1.87734 0.79017,1.40674 0.80309,1.47808 0.32202,1.77851 -0.42118,0.26304 -0.52759,0.22975 -0.6667,-0.20856 z m 1.61703,-1.50259 c -0.24573,-0.51532 -0.41192,-0.96572 -0.36931,-1.00088 0.68158,-0.56238 2.40846,-1.4386 2.60087,-1.31968 0.49466,0.30572 0.24517,0.91132 -0.54345,1.31913 -0.64258,0.33229 -0.74936,0.50401 -0.54772,0.88078 0.18642,0.34833 0.12976,0.5434 -0.22155,0.76281 -0.40294,0.25164 -0.53744,0.15764 -0.91884,-0.64216 z m 2.64556,0.52254 c -0.37079,-0.37079 -0.10466,-0.87945 0.6696,-1.27984 0.68413,-0.35377 0.86823,-0.36651 1.05429,-0.0729 0.12398,0.19563 0.22724,0.42293 0.22947,0.50512 0.007,0.24493 -1.78054,1.02048 -1.95336,0.84766 z m 115.000656,-0.0246 c -0.26456,-0.16799 -0.26456,-0.2985 0,-0.65247 0.40703,-0.5446 1.14722,-0.17972 0.90673,0.44698 -0.1798,0.46856 -0.41019,0.52077 -0.90673,0.20549 z m 8.54755,-0.0226 c -0.0818,-0.13239 -0.0769,-0.42787 0.0108,-0.65662 0.12112,-0.31565 0.2784,-0.35232 0.65246,-0.15213 0.28512,0.15259 0.42933,0.42936 0.34212,0.65661 -0.16703,0.43529 -0.77369,0.52708 -1.00542,0.15214 z m -7.30779,-1.71903 -2.26594,-1.34756 1.30917,-2.28176 1.30916,-2.28176 2.12593,1.22515 c 1.16926,0.67382 2.16262,1.34343 2.20747,1.48801 0.0448,0.14457 -0.48127,1.22645 -1.16915,2.40417 l -1.25069,2.14132 z m 2.74472,-1.51201 c 0.40884,-0.7411 0.7065,-1.3768 0.66146,-1.41268 -0.4101,-0.32661 -2.63797,-1.50744 -2.70096,-1.43158 -0.52522,0.63249 -1.52848,2.72897 -1.337,2.79389 0.13854,0.047 0.72814,0.3787 1.31023,0.73717 0.58208,0.35847 1.11786,0.65376 1.19062,0.65621 0.0728,0.002 0.4668,-0.60191 0.87565,-1.34301 z m -1.73791,-0.3508 c -0.36373,-0.26596 -0.38688,-0.40734 -0.12345,-0.75375 0.26403,-0.34718 0.4051,-0.36557 0.75948,-0.099 0.34618,0.26039 0.37144,0.4146 0.12345,0.75375 -0.25455,0.34811 -0.39396,0.36629 -0.75948,0.099 z m 7.09028,1.68597 c -0.67847,-0.42452 -0.83882,-0.44009 -1.19667,-0.11624 -0.51662,0.46753 -1.14374,0.12629 -0.90608,-0.49303 0.106,-0.27623 0.008,-0.57935 -0.25069,-0.7726 -0.29973,-0.22422 -0.35057,-0.43508 -0.17238,-0.71489 0.21542,-0.33826 0.51054,-0.26011 1.99825,0.52917 2.02189,1.07268 2.06087,1.11208 1.63327,1.65137 -0.28774,0.36289 -0.40617,0.35391 -1.1057,-0.0838 z M 42.823194,134.16056 c -0.71144,-1.37578 0.20373,-1.89095 0.9691,-0.54553 0.31642,0.55624 0.35631,0.84587 0.14552,1.05666 -0.45212,0.45212 -0.6676,0.35331 -1.11462,-0.51113 z m 4.50682,-0.66923 c -0.66944,-1.14232 -0.73679,-1.96884 -0.16043,-1.96884 0.14186,0 0.46892,0.35719 0.7268,0.79375 0.53323,0.90268 0.78918,0.96299 1.6193,0.38155 0.32368,-0.22671 0.70736,-0.33875 0.85262,-0.24897 0.56153,0.34705 0.21293,0.86951 -1.0324,1.54731 l -1.29651,0.70565 -0.70938,-1.21046 z m -2.89857,-0.83003 c -0.0926,-0.24145 0.003,-0.61035 0.2123,-0.81977 0.33131,-0.3313 0.41894,-0.30946 0.67455,0.16816 0.24205,0.45227 0.20467,0.59661 -0.21231,0.81977 -0.39387,0.21079 -0.54343,0.17351 -0.67454,-0.16816 z m 3.87101,-1.77277 c -0.47982,-0.81324 -0.48365,-0.88669 -0.06,-1.15129 0.36902,-0.23046 0.5337,-0.14529 0.89208,0.4614 0.53874,0.91202 0.55198,1.22408 0.0599,1.41289 -0.23867,0.0916 -0.56981,-0.17679 -0.89208,-0.723 z m 125.692716,-6.21577 c -11.24106,-2.99936 -20.43864,-5.53151 -20.43906,-5.62699 -5.3e-4,-0.0955 1.45774,0.21581 3.24037,0.69176 1.78263,0.47596 10.98021,2.92446 20.43906,5.44113 9.45886,2.51666 17.24753,4.61638 17.30816,4.66604 0.0606,0.0497 0.0606,0.1333 0,0.18587 -0.0606,0.0526 -9.30747,-2.35845 -20.54853,-5.35781 z m -155.905756,5.04267 c 3.9e-4,-0.0975 8.00736,-2.30926 17.79323,-4.91496 9.78587,-2.6057 19.01288,-5.06675 20.50447,-5.46898 1.49159,-0.40224 2.71165,-0.65155 2.71124,-0.55402 -5.3e-4,0.0975 -8.00736,2.30925 -17.79323,4.91496 -9.78587,2.6057 -19.01288,5.06674 -20.50447,5.46898 -1.49159,0.40224 -2.71165,0.65154 -2.71124,0.55402 z m 12.00547,-17.28987 c -1.2719,-1.24148 -2.21663,-2.38208 -2.21663,-2.67622 0,-0.72047 3.91224,-4.68518 4.62318,-4.68518 1.39169,0 1.5712,1.3092 0.352,2.56709 l -0.84565,0.87249 h 5.62555 c 3.37186,0 5.83057,0.10973 6.13732,0.27389 0.57206,0.30616 0.68034,1.30379 0.19427,1.78986 -0.2277,0.2277 -1.96357,0.3175 -6.13732,0.3175 h -5.81982 l 0.84565,0.87249 c 0.97716,1.00817 1.12422,2.13481 0.33389,2.55779 -0.28148,0.15064 -0.59368,0.27389 -0.69379,0.27389 -0.10011,0 -1.1795,-0.97362 -2.39865,-2.1636 z m 137.747956,1.10526 c 0,-0.88194 0.0882,-1.05833 0.52916,-1.05833 0.44098,0 0.52917,0.17639 0.52917,1.05833 0,0.88195 -0.0882,1.05834 -0.52917,1.05834 -0.44097,0 -0.52916,-0.17639 -0.52916,-1.05834 z m 4.23333,0.52917 c 0,-0.35278 0.17639,-0.52917 0.52917,-0.52917 0.35277,0 0.52916,0.17639 0.52916,0.52917 0,0.35278 -0.17639,0.52917 -0.52916,0.52917 -0.35278,0 -0.52917,-0.17639 -0.52917,-0.52917 z m 2.11667,-0.52917 c 0,-0.88194 0.0882,-1.05833 0.52916,-1.05833 0.44098,0 0.52917,0.17639 0.52917,1.05833 0,0.88195 -0.0882,1.05834 -0.52917,1.05834 -0.44097,0 -0.52916,-0.17639 -0.52916,-1.05834 z m 3.175,0.52917 c 0,-0.35278 -0.17639,-0.52917 -0.52917,-0.52917 -0.48507,0 -0.52917,-0.17639 -0.52917,-2.11666 0,-1.94028 0.0441,-2.11667 0.52917,-2.11667 0.35278,0 0.52917,0.17639 0.52917,0.52917 0,0.35277 0.17639,0.52916 0.52916,0.52916 0.35278,0 0.52917,0.17639 0.52917,0.52917 0,0.35278 -0.17639,0.52917 -0.52917,0.52917 -0.35277,0 -0.52916,0.17639 -0.52916,0.52916 0,0.35278 0.17639,0.52917 0.52916,0.52917 0.44098,0 0.52917,0.17639 0.52917,1.05833 0,0.88195 -0.0882,1.05834 -0.52917,1.05834 -0.35277,0 -0.52916,-0.17639 -0.52916,-0.52917 z m 2.11666,-2.11667 v -2.64583 h 2.64584 2.64583 v 2.64583 2.64584 h -2.64583 -2.64584 z m 4.23334,0 v -1.5875 h -1.5875 -1.5875 v 1.5875 1.5875 h 1.5875 1.5875 z m -2.11667,0 c 0,-0.35277 0.17639,-0.52916 0.52917,-0.52916 0.35277,0 0.52916,0.17639 0.52916,0.52916 0,0.35278 -0.17639,0.52917 -0.52916,0.52917 -0.35278,0 -0.52917,-0.17639 -0.52917,-0.52917 z m -11.64167,0.52917 v -1.05833 h -1.05833 c -0.88194,0 -1.05833,-0.0882 -1.05833,-0.52917 0,-0.47037 0.17639,-0.52917 1.5875,-0.52917 h 1.5875 v 1.5875 c 0,1.41111 -0.0588,1.5875 -0.52917,1.5875 -0.44097,0 -0.52917,-0.17639 -0.52917,-1.05833 z m 2.11667,-1.5875 c 0,-0.44097 0.17639,-0.52917 1.05833,-0.52917 0.88195,0 1.05834,-0.0882 1.05834,-0.52916 0,-0.35278 0.17639,-0.52917 0.52916,-0.52917 0.44098,0 0.52917,0.17639 0.52917,1.05833 v 1.05834 h -1.5875 c -1.41111,0 -1.5875,-0.0588 -1.5875,-0.52917 z m -3.175,-2.64583 c 0,-0.88195 -0.0882,-1.05834 -0.52917,-1.05834 -0.47037,0 -0.52916,-0.17639 -0.52916,-1.5875 0,-1.41111 0.0588,-1.5875 0.52916,-1.5875 0.44098,0 0.52917,0.17639 0.52917,1.05834 v 1.05833 h 1.5875 1.5875 v -1.05833 c 0,-0.88195 0.0882,-1.05834 0.52917,-1.05834 0.47037,0 0.52916,0.17639 0.52916,1.5875 v 1.5875 h -1.5875 -1.5875 v 1.05834 c 0,0.88194 -0.0882,1.05833 -0.52916,1.05833 -0.44098,0 -0.52917,-0.17639 -0.52917,-1.05833 z m 2.11667,0.52916 c 0,-0.44097 0.17639,-0.52916 1.05833,-0.52916 0.88194,0 1.05833,0.0882 1.05833,0.52916 0,0.44098 -0.17639,0.52917 -1.05833,0.52917 -0.88194,0 -1.05833,-0.0882 -1.05833,-0.52917 z m 3.175,-1.05833 c 0,-0.44097 0.17639,-0.52917 1.05833,-0.52917 0.88194,0 1.05833,0.0882 1.05833,0.52917 0,0.44097 -0.17639,0.52917 -1.05833,0.52917 -0.88194,0 -1.05833,-0.0882 -1.05833,-0.52917 z m 3.175,-1.5875 c 0,-1.94028 0.0441,-2.11667 0.52916,-2.11667 0.47037,0 0.52917,0.17639 0.52917,1.5875 0,1.41111 0.0588,1.5875 0.52917,1.5875 0.35277,0 0.52916,0.17639 0.52916,0.52917 0,0.44097 -0.17639,0.52917 -1.05833,0.52917 h -1.05833 z m 4.23333,1.5875 c 0,-0.35278 -0.17639,-0.52917 -0.52917,-0.52917 -0.35277,0 -0.52916,-0.17639 -0.52916,-0.52916 0,-0.35278 0.17639,-0.52917 0.52916,-0.52917 0.44098,0 0.52917,-0.17639 0.52917,-1.05833 v -1.05834 h 1.05833 c 0.88195,0 1.05834,0.0882 1.05834,0.52917 0,0.35278 -0.17639,0.52917 -0.52917,0.52917 -0.47037,0 -0.52917,0.17639 -0.52917,1.5875 0,1.41111 -0.0588,1.5875 -0.52916,1.5875 -0.35278,0 -0.52917,-0.17639 -0.52917,-0.52917 z m 2.11667,-0.52917 c 0,-0.88194 0.0882,-1.05833 0.52916,-1.05833 0.44098,0 0.52917,0.17639 0.52917,1.05833 0,0.88195 -0.0882,1.05834 -0.52917,1.05834 -0.44097,0 -0.52916,-0.17639 -0.52916,-1.05834 z m -144.938746,-0.3175 c -0.54097,-0.54096 -0.35335,-1.34011 0.52815,-2.24959 l 0.84565,-0.87249 h -5.72154 c -4.84863,0 -5.78498,-0.0634 -6.13732,-0.41577 -0.22868,-0.22868 -0.41578,-0.62158 -0.41578,-0.87313 0,-1.01308 0.45504,-1.09235 6.27063,-1.09235 3.09959,0 5.63562,-0.0721 5.63562,-0.16024 0,-0.0881 -0.29765,-0.51399 -0.66145,-0.94634 -0.79188,-0.941094 -0.85657,-1.945383 -0.14969,-2.323695 0.28148,-0.15064 0.59368,-0.273891 0.69379,-0.273891 0.1001,0 1.1795,0.973619 2.39864,2.163598 1.38597,1.352808 2.21663,2.371428 2.21663,2.718188 0,0.72856 -3.91977,4.64321 -4.64929,4.64321 -0.2951,0 -0.67942,-0.14287 -0.85404,-0.3175 z m 135.413746,-1.79916 c 0,-0.88195 0.0882,-1.05834 0.52916,-1.05834 0.44098,0 0.52917,-0.17639 0.52917,-1.05833 0,-0.88194 -0.0882,-1.05833 -0.52917,-1.05833 -0.35277,0 -0.52916,-0.17639 -0.52916,-0.52917 0,-0.44097 0.17639,-0.52917 1.05833,-0.52917 0.88194,0 1.05833,0.0882 1.05833,0.52917 0,0.44097 0.17639,0.52917 1.05834,0.52917 0.88194,0 1.05833,0.0882 1.05833,0.52916 0,0.44098 -0.17639,0.52917 -1.05833,0.52917 h -1.05834 v 1.05833 c 0,0.88195 -0.0882,1.05834 -0.52916,1.05834 -0.35278,0 -0.52917,0.17639 -0.52917,0.52916 0,0.35278 -0.17639,0.52917 -0.52917,0.52917 -0.44097,0 -0.52916,-0.17639 -0.52916,-1.05833 z m -4.23334,-0.52917 c 0,-0.35278 0.17639,-0.52917 0.52917,-0.52917 0.35278,0 0.52917,0.17639 0.52917,0.52917 0,0.35278 -0.17639,0.52917 -0.52917,0.52917 -0.35278,0 -0.52917,-0.17639 -0.52917,-0.52917 z m 9.525,0 c 0,-0.35278 0.17639,-0.52917 0.52917,-0.52917 0.35278,0 0.52917,0.17639 0.52917,0.52917 0,0.35278 -0.17639,0.52917 -0.52917,0.52917 -0.35278,0 -0.52917,-0.17639 -0.52917,-0.52917 z m -11.64166,-4.23333 v -2.645836 h 2.64583 2.64583 v 2.645836 2.64583 h -2.64583 -2.64583 z m 4.23333,0 v -1.587503 h -1.5875 -1.5875 v 1.587503 1.5875 h 1.5875 1.5875 z m -2.11667,0 c 0,-0.35278 0.17639,-0.52917 0.52917,-0.52917 0.35278,0 0.52917,0.17639 0.52917,0.52917 0,0.35277 -0.17639,0.52916 -0.52917,0.52916 -0.35278,0 -0.52917,-0.17639 -0.52917,-0.52916 z m 9.525,0 v -2.645836 h 2.64584 2.64583 v 2.645836 2.64583 h -2.64583 -2.64584 z m 4.23334,0 v -1.587503 h -1.5875 -1.5875 v 1.587503 1.5875 h 1.5875 1.5875 z m -2.11667,0 c 0,-0.35278 0.17639,-0.52917 0.52917,-0.52917 0.35277,0 0.52916,0.17639 0.52916,0.52917 0,0.35277 -0.17639,0.52916 -0.52916,0.52916 -0.35278,0 -0.52917,-0.17639 -0.52917,-0.52916 z m -4.23333,0 c 0,-0.35278 0.17639,-0.52917 0.52916,-0.52917 0.35278,0 0.52917,0.17639 0.52917,0.52917 0,0.35277 -0.17639,0.52916 -0.52917,0.52916 -0.35277,0 -0.52916,-0.17639 -0.52916,-0.52916 z m -2.11667,-1.058336 c 0,-0.352777 -0.17639,-0.529167 -0.52917,-0.529167 -0.35277,0 -0.52916,-0.17639 -0.52916,-0.529167 0,-0.485068 0.17639,-0.529166 2.11666,-0.529166 1.94028,0 2.11667,0.0441 2.11667,0.529166 0,0.440973 -0.17639,0.529167 -1.05833,0.529167 -0.88195,0 -1.05834,0.08819 -1.05834,0.529167 0,0.352777 -0.17639,0.529166 -0.52916,0.529166 -0.35278,0 -0.52917,-0.176389 -0.52917,-0.529166 z m -21.6951,-5.511226 c 5.3e-4,-0.09752 8.00736,-2.309257 17.79323,-4.914961 9.78587,-2.605704 19.01288,-5.066747 20.50447,-5.468982 1.49159,-0.402236 2.71165,-0.651545 2.71125,-0.554022 -5.3e-4,0.09752 -8.00736,2.309257 -17.79323,4.914961 -9.78587,2.605704 -19.01289,5.066747 -20.50447,5.468982 -1.49159,0.402236 -2.71165,0.651545 -2.71125,0.554022 z M 38.528504,88.160251 c -11.24106,-2.999362 -20.43863,-5.531506 -20.43906,-5.626989 -4.2e-4,-0.09548 1.45775,0.215813 3.24038,0.691766 1.78263,0.475954 10.98021,2.924458 20.43906,5.441122 9.45885,2.516664 17.24753,4.616384 17.30816,4.666046 0.0606,0.04966 0.0606,0.133302 0,0.185867 -0.0606,0.05257 -9.30748,-2.358451 -20.54854,-5.357812 z m 8.17991,-6.788457 c -1.0668,-0.613495 -2.06268,-1.238499 -2.21308,-1.388899 -0.18822,-0.188214 0.12239,-0.969385 0.99648,-2.50608 l 1.26993,-2.232625 2.29024,1.335754 2.29024,1.335754 -1.30545,2.263291 c -0.718,1.244811 -1.32419,2.273408 -1.34709,2.285772 -0.0229,0.01236 -0.91447,-0.479472 -1.98127,-1.092967 z m 2.42829,-1.726364 c 0.41429,-0.737608 0.71195,-1.371142 0.66146,-1.407853 -0.48614,-0.353528 -2.66174,-1.509829 -2.7113,-1.441016 -0.36639,0.508767 -1.50706,2.661115 -1.4387,2.71472 0.27887,0.218697 2.49211,1.471147 2.60301,1.47302 0.0728,0.0013 0.47125,-0.601263 0.88553,-1.338871 z m -1.71763,-0.333052 c -0.34618,-0.26039 -0.37144,-0.414602 -0.12345,-0.753748 0.25455,-0.348115 0.39396,-0.366289 0.75948,-0.09902 0.36373,0.265965 0.38688,0.407339 0.12345,0.753748 -0.26402,0.347181 -0.4051,0.365572 -0.75948,0.09901 z m -6.24273,-1.135224 c -1.43168,-0.814665 -1.61566,-1.0052 -1.38562,-1.435029 0.25825,-0.482544 0.28867,-0.481824 1.15155,0.02728 0.76941,0.453964 0.92851,0.472041 1.20652,0.137062 0.47084,-0.567322 1.10323,-0.223858 0.92144,0.500452 -0.10035,0.399838 -0.0135,0.65042 0.26201,0.75615 0.45657,0.175202 0.28769,0.977648 -0.20261,0.962694 -0.16633,-0.0051 -1.04531,-0.431951 -1.95329,-0.948613 z m 10.19622,-1.446022 c -0.41899,-0.236463 -0.41323,-0.317362 0.0824,-1.157399 l 0.53288,-0.903163 -0.67771,-0.413623 c -2.21918,-1.354418 -1.95065,-1.322324 -2.55094,-0.304895 -0.34429,0.58352 -0.68139,0.866468 -0.92221,0.774057 -0.20876,-0.08011 -0.37956,-0.260538 -0.37956,-0.400958 0,-0.333041 1.32802,-2.598494 1.52325,-2.598494 0.0825,0 0.67328,0.306631 1.31278,0.681403 1.23964,0.72648 1.72902,0.622104 2.06635,-0.440714 0.1777,-0.559874 0.34456,-0.609259 0.89052,-0.263551 0.3052,0.193254 0.26939,0.394705 -0.20726,1.165942 -0.57523,0.93073 -0.57529,0.932616 -0.0376,1.103265 0.52798,0.167576 0.52469,0.195336 -0.16701,1.409694 -0.92899,1.63095 -0.94279,1.643642 -1.46587,1.348436 z m -15.06044,-1.384877 -2.28176,-1.309169 1.22514,-2.125924 c 0.67383,-1.16926 1.34344,-2.162622 1.48801,-2.207469 0.14458,-0.04485 1.22646,0.481269 2.40418,1.169149 l 2.14131,1.25069 -1.34756,2.265945 -1.34756,2.265944 z m 2.76053,-1.535091 c 0.40885,-0.741098 0.7065,-1.373037 0.66146,-1.404308 -0.57874,-0.401804 -2.65506,-1.498378 -2.70978,-1.431129 -0.31845,0.391362 -1.51643,2.64381 -1.43916,2.705902 0.27617,0.221925 2.49791,1.479423 2.61183,1.478296 0.0728,-7.94e-4 0.46681,-0.607661 0.87565,-1.348761 z m -1.74777,-0.305046 c -0.34718,-0.264023 -0.36557,-0.405096 -0.099,-0.759479 0.26039,-0.346181 0.4146,-0.371438 0.75375,-0.123446 0.34811,0.254547 0.36629,0.393959 0.099,0.759478 -0.26596,0.363728 -0.40734,0.386882 -0.75375,0.123447 z m 6.56067,2.527845 c -1.05723,-0.543933 -1.04945,-0.532516 -0.67245,-0.98678 0.27536,-0.331784 0.17609,-0.48665 -0.6088,-0.949748 -0.59676,-0.352094 -0.88484,-0.691361 -0.79216,-0.932884 0.18638,-0.485719 0.64546,-0.482565 1.29523,0.0089 0.76546,0.578959 1.07498,0.491892 1.44737,-0.407146 0.27793,-0.67098 0.44577,-0.785016 0.96395,-0.654957 0.42421,0.106468 0.67697,0.02839 0.78036,-0.241054 0.11484,-0.299252 0.27544,-0.332968 0.6447,-0.135345 0.47587,0.254677 0.47424,0.29288 -0.0505,1.182224 -0.43366,0.734986 -0.6339,0.869993 -0.99986,0.674135 -0.3611,-0.193255 -0.55665,-0.07724 -0.92725,0.550137 -0.43363,0.734076 -0.43676,0.831377 -0.0408,1.268857 0.67242,0.743019 -0.011,1.152946 -1.03976,0.62366 z M 169.25551,75.578708 c -1.7894,-0.487752 -3.43948,-1.096884 -3.71756,-1.372352 -1.01789,-1.008319 -1.4373,-1.964055 -1.34505,-3.065042 0.17097,-2.040662 1.96485,-2.181659 2.1789,-0.171259 0.19268,1.809707 0.18437,1.804577 4.85152,2.99647 1.51712,0.387439 1.73708,0.387855 2.54434,0.0048 0.7498,-0.355807 0.87898,-0.550426 0.85285,-1.284936 -0.041,-1.152573 -0.54324,-1.595999 -2.42508,-2.141143 -1.41619,-0.41025 -1.95974,-0.78734 -2.00745,-1.392661 -0.009,-0.112223 -0.11921,-0.396746 -0.24526,-0.632275 -0.12605,-0.235527 -0.16481,-0.492609 -0.0861,-0.571294 0.21903,-0.219032 4.97097,1.144371 5.19208,1.489689 0.10691,0.166973 0.19621,0.208158 0.19844,0.09152 0.0117,-0.613508 1.30951,1.316442 1.44364,2.146858 0.14346,0.888135 0.11939,1.256805 -0.15773,2.415413 -0.13949,0.583213 -1.53774,1.893967 -2.17247,2.036537 -1.4857,0.333714 -2.1079,0.266642 -5.10505,-0.550314 z m -128.203316,0.09105 c -0.50137,-0.28058 -0.35555,-1.032682 0.20021,-1.032682 0.4887,0 0.7195,0.449763 0.46458,0.90529 -0.15203,0.271651 -0.34198,0.308049 -0.66479,0.127392 z m 8.58804,0.105458 c -0.39498,-0.147977 -0.43766,-0.776238 -0.0682,-1.004555 0.14437,-0.08922 0.44321,-0.06109 0.66409,0.06252 0.32815,0.183642 0.34063,0.301665 0.0682,0.645342 -0.18335,0.231328 -0.48219,0.364842 -0.66409,0.296693 z M 161.09596,73.401422 c -1.30969,-0.367406 -2.46872,-0.805233 -2.57564,-0.972949 -0.10691,-0.167717 -0.1962,-0.209511 -0.19843,-0.09287 -0.0117,0.613508 -1.30951,-1.316442 -1.44365,-2.146858 -0.14346,-0.888135 -0.11938,-1.256805 0.15774,-2.415413 0.13978,-0.584436 1.53863,-1.894419 2.17247,-2.034469 0.31053,-0.06861 0.80743,-0.175961 1.10424,-0.238556 0.83887,-0.176914 7.12782,1.590077 7.69473,2.161966 1.05724,1.066538 1.46033,1.968389 1.36869,3.062229 -0.173,2.064899 -1.96031,2.234528 -2.17549,0.206473 -0.19585,-1.845834 -0.18651,-1.839949 -4.7864,-3.013921 -2.31686,-0.591307 -3.34974,-0.223224 -3.52337,1.255619 -0.11864,1.010436 0.55057,1.588207 2.49047,2.150158 1.41677,0.410414 1.97983,0.832654 2.12622,1.594453 0.028,0.145521 0.13461,0.472943 0.237,0.727604 0.22918,0.570021 0.262,0.573038 -2.64858,-0.243464 z M 43.145144,71.922362 c -0.39798,-0.298575 -0.36513,-0.442987 0.36619,-1.609934 0.72173,-1.151628 0.75994,-1.313709 0.37597,-1.59448 -0.25391,-0.185661 -0.35873,-0.491577 -0.2582,-0.753555 0.15707,-0.409305 0.23419,-0.410035 1.07274,-0.01016 0.49692,0.236967 0.9035,0.537591 0.9035,0.668055 0,0.185571 -1.70981,3.287882 -1.96463,3.564657 -0.0321,0.03487 -0.25512,-0.08419 -0.49557,-0.264583 z m 97.627766,-0.115017 c -0.0834,-0.134906 6.61253,-7.008625 14.87979,-15.27493 8.26726,-8.266306 15.0996,-14.91927 15.18298,-14.784361 0.0834,0.134905 -6.61253,7.008624 -14.87979,15.27493 -8.26726,8.266305 -15.0996,14.919269 -15.18298,14.784361 z M 50.302174,71.239446 c -1.07946,-0.651463 -0.82776,-1.742763 0.25864,-1.121384 1.00252,0.573408 1.1421,0.739876 0.97831,1.166728 -0.20222,0.526978 -0.29422,0.523608 -1.23695,-0.04534 z m 6.03809,-14.574737 c -8.2663,-8.267258 -14.91927,-15.099599 -14.78436,-15.182974 0.13491,-0.08338 7.00862,6.612527 15.27493,14.879788 8.26631,8.267258 14.91927,15.099598 14.78436,15.182974 -0.1349,0.08338 -7.00862,-6.612527 -15.27493,-14.879788 z m -2.60793,14.071676 c -0.6863,-0.377417 -1.24783,-0.793818 -1.24783,-0.925335 0,-0.413641 1.3613,-2.582309 1.62095,-2.582309 0.47846,0 0.54954,0.804494 0.12794,1.447943 -0.55715,0.850312 -0.55664,0.852143 0.36778,1.330182 0.75403,0.389921 1.03621,1.009546 0.58637,1.287563 -0.11406,0.07049 -0.76891,-0.180626 -1.45521,-0.558044 z m -12.47479,0.10998 c -0.41355,-0.302387 -0.41942,-0.373909 -0.0556,-0.675881 0.24524,-0.203536 0.56189,-0.250566 0.79699,-0.118372 0.31996,0.179911 0.32995,0.3014 0.0556,0.675881 -0.27946,0.381402 -0.41063,0.400886 -0.79699,0.118372 z m 5.62576,-0.382836 c -0.54639,-0.36036 -0.64989,-0.566889 -0.45689,-0.91176 0.2308,-0.412417 0.31741,-0.405807 1.15448,0.08808 0.57275,0.337926 0.8515,0.67328 0.75932,0.913501 -0.19246,0.501544 -0.59818,0.476533 -1.45691,-0.08982 z m -7.82088,-0.847281 c -0.99075,-0.604083 -0.95009,-1.474197 0.0571,-1.221414 0.48976,0.12292 0.70312,-0.06772 1.29698,-1.158833 0.50491,-0.92768 0.82857,-1.260756 1.11743,-1.149914 0.27364,0.105008 0.35643,0.356063 0.25313,0.767639 -0.10479,0.417507 -0.0101,0.691877 0.29855,0.864573 0.38279,0.21422 0.39791,0.318212 0.0987,0.678723 -0.27294,0.328871 -0.4371,0.356219 -0.7215,0.120195 -0.4277,-0.354965 -0.41817,-0.362308 -0.98998,0.762045 -0.24052,0.472942 -0.46402,0.859451 -0.49667,0.858906 -0.0326,-5.29e-4 -0.44382,-0.235408 -0.91372,-0.52192 z m 16.43344,-0.389432 c -0.0809,-0.210749 0.0611,-0.735555 0.31553,-1.166239 0.37867,-0.641045 0.54464,-0.731803 0.91513,-0.50043 0.42326,0.264332 0.41881,0.339839 -0.0688,1.166239 -0.56139,0.951478 -0.92818,1.109456 -1.16189,0.50043 z m -5.06982,-0.411536 c -0.74304,-0.453863 -0.88979,-0.472884 -1.02049,-0.132273 -0.1718,0.447704 -0.77598,0.531447 -1.01729,0.141004 -0.15571,-0.251957 0.54033,-1.859854 0.80512,-1.859854 0.0742,0 0.72433,0.336659 1.44479,0.748131 1.13737,0.649578 1.26684,0.806418 0.98282,1.190606 -0.30338,0.410382 -0.39006,0.404027 -1.19495,-0.08761 z m -3.8799,-1.033497 c -0.0818,-0.132387 -0.0834,-0.410969 -0.004,-0.619066 0.0799,-0.208101 -0.0403,-0.532297 -0.26699,-0.72044 -0.58124,-0.482383 -0.0246,-1.163515 0.65401,-0.800322 0.62549,0.334751 0.97141,-0.464285 0.43376,-1.001935 -0.32775,-0.32775 -0.32024,-0.480531 0.0564,-1.147228 0.50124,-0.887208 1.22828,-0.899781 1.22828,-0.02125 0,0.329219 0.15315,0.693889 0.34034,0.810377 0.25892,0.161131 0.10069,0.633285 -0.66146,1.97373 -0.94404,1.660348 -1.43683,2.082666 -1.7808,1.526125 z m -7.81028,-0.80604 c -0.3364,-0.212767 -0.3277,-0.369649 0.0663,-1.195816 0.39182,-0.82165 0.52389,-0.913228 0.97155,-0.67365 0.51261,0.274344 0.51233,0.287009 -0.0263,1.199867 -0.2994,0.507428 -0.56236,0.920774 -0.58436,0.918546 -0.022,-0.0021 -0.21425,-0.114255 -0.4272,-0.248947 z m 3.41291,-1.706731 -2.26595,-1.347563 1.30917,-2.281761 1.30917,-2.281759 2.12592,1.225145 c 1.16926,0.673828 2.16263,1.343433 2.20747,1.488009 0.0448,0.144576 -0.48127,1.226457 -1.16915,2.404179 l -1.25069,2.141312 z m 2.74471,-1.512015 c 0.40885,-0.741098 0.70651,-1.376801 0.66146,-1.412676 -0.4101,-0.326618 -2.63796,-1.507445 -2.70096,-1.431579 -0.52521,0.632487 -1.52847,2.728968 -1.337,2.793887 0.13854,0.04697 0.72815,0.378698 1.31023,0.737168 0.58209,0.358469 1.11787,0.653762 1.19063,0.656207 0.0728,0.0024 0.4668,-0.601906 0.87564,-1.343007 z m -1.73791,-0.350798 c -0.36372,-0.265964 -0.38688,-0.407339 -0.12344,-0.753747 0.26402,-0.347181 0.40509,-0.365572 0.75948,-0.09902 0.34618,0.26039 0.37143,0.414602 0.12344,0.753747 -0.25455,0.348115 -0.39396,0.36629 -0.75948,0.09902 z m 9.36026,2.934246 c -0.20354,-0.245245 -0.25056,-0.561896 -0.11837,-0.796994 0.17991,-0.319961 0.3014,-0.329949 0.67588,-0.05557 0.3814,0.279455 0.40089,0.410633 0.11837,0.796991 -0.30239,0.413541 -0.37391,0.41942 -0.67588,0.05557 z m -2.39811,-0.156382 c -0.32735,-0.206352 -0.31055,-0.374484 0.11675,-1.167919 0.41306,-0.767019 0.58226,-0.882383 0.98108,-0.668941 0.35815,0.191678 0.41809,0.373994 0.23337,0.709835 -0.58181,1.05781 -0.9485,1.368261 -1.3312,1.127025 z m 42.87052,-8.149593 c -0.14437,-0.545703 -2.58664,-9.736458 -5.42727,-20.423899 -2.840628,-10.687441 -5.108348,-19.488144 -5.039373,-19.557117 0.06897,-0.06897 0.190156,-0.06066 0.269292,0.01848 0.108562,0.108562 10.958539,40.561136 10.966921,40.888579 0.0011,0.03638 -0.112781,0.06615 -0.252693,0.06615 -0.139912,0 -0.372504,-0.446484 -0.516877,-0.992187 z m 25.643786,0.926042 c 0.008,-0.327443 10.85836,-40.780018 10.96692,-40.88858 0.0791,-0.07914 0.20032,-0.08745 0.26929,-0.01848 0.069,0.06897 -2.19874,8.869676 -5.03937,19.557117 -2.84063,10.687442 -5.2829,19.878196 -5.42727,20.423899 -0.14437,0.545703 -0.37696,0.992188 -0.51688,0.992188 -0.13991,0 -0.25362,-0.02977 -0.25269,-0.06615 z m -51.781696,-4.155633 -1.31167,-2.292462 2.28743,-1.334113 2.28743,-1.334114 1.2562,2.208485 c 0.69091,1.214665 1.19049,2.31481 1.11017,2.444766 -0.0803,0.129955 -1.0847,0.768096 -2.23195,1.41809 l -2.08593,1.181806 z m 3.07343,0.08202 c 0.66763,-0.385099 1.25413,-0.732938 1.30334,-0.772978 0.0683,-0.05559 -1.06956,-2.20477 -1.4387,-2.717358 -0.0496,-0.06881 -2.22516,1.087488 -2.71131,1.441016 -0.11067,0.08049 1.36825,2.748844 1.52375,2.749227 0.06,1.48e-4 0.65529,-0.314809 1.32292,-0.699907 z m -1.27324,-1.102524 c -0.36809,-0.687785 0.54583,-1.258541 0.95812,-0.598361 0.22305,0.357143 0.17776,0.521989 -0.20991,0.76409 -0.4044,0.252553 -0.54049,0.222409 -0.74821,-0.165729 z m 74.652206,2.789002 c -0.47294,-0.278215 -0.85989,-0.617683 -0.85989,-0.754378 0,-0.505248 0.81209,-0.53686 1.56385,-0.06088 0.6372,0.403447 0.71978,0.564192 0.46531,0.905796 -0.27865,0.374052 -0.39478,0.365061 -1.16927,-0.09054 z m -2.53074,-1.422424 c -0.21454,-0.214538 1.13787,-2.738877 1.46735,-2.738877 0.41543,0 2.58475,1.360419 2.58475,1.620946 0,0.478457 -0.8045,0.54954 -1.44795,0.127937 -0.85031,-0.557147 -0.85214,-0.556641 -1.33018,0.367784 -0.38928,0.752792 -0.89594,1.000244 -1.27397,0.62221 z m -67.480276,-1.81075 c -0.10037,-0.261543 0.13566,-0.540803 0.69929,-0.827399 0.46794,-0.237937 0.89008,-0.46667 0.93808,-0.508297 0.048,-0.04163 -0.10082,-0.383675 -0.33073,-0.760103 -0.2299,-0.376428 -0.60414,-0.989382 -0.83164,-1.362125 l -0.41362,-0.677709 -0.90585,0.534461 c -0.86057,0.507754 -0.91846,0.510903 -1.15817,0.06299 -0.2114,-0.394997 -0.0264,-0.601229 1.14029,-1.271355 l 1.39261,-0.799875 0.75972,1.404435 0.75971,1.404435 0.90159,-0.557213 c 0.74735,-0.461886 0.94156,-0.494096 1.13521,-0.188272 0.3417,0.539631 0.3156,0.589574 -0.57209,1.094793 -0.60806,0.34607 -0.76982,0.589312 -0.64773,0.973973 0.12785,0.402844 -0.0858,0.658347 -0.99705,1.19238 -1.33674,0.783378 -1.65946,0.832553 -1.86962,0.284884 z m 63.135196,-0.714401 c -1.19021,-0.678707 -1.34837,-0.859965 -1.12103,-1.284753 0.25704,-0.480282 0.29083,-0.479131 1.17053,0.0399 l 0.90585,0.534461 0.37028,-0.611564 c 0.20365,-0.336362 0.57226,-0.940715 0.81912,-1.343009 0.44766,-0.729554 0.44645,-0.732848 -0.47088,-1.274085 -0.58352,-0.344286 -0.86647,-0.681387 -0.77406,-0.922202 0.0801,-0.208759 0.26054,-0.379561 0.40096,-0.379561 0.33304,0 2.59849,1.328018 2.59849,1.523248 0,0.08253 -0.30663,0.67328 -0.6814,1.312781 -0.72648,1.239642 -0.62211,1.72902 0.44071,2.066345 0.55988,0.1777 0.60926,0.344565 0.26355,0.890527 -0.19349,0.30557 -0.39056,0.271944 -1.14733,-0.195765 -0.88613,-0.547658 -0.92089,-0.549635 -1.15139,-0.06542 -0.22567,0.474065 -0.30768,0.459373 -1.6234,-0.290901 z m 9.34104,0.49348 c -0.41354,-0.302387 -0.41942,-0.37391 -0.0556,-0.675881 0.24525,-0.203536 0.5619,-0.250566 0.797,-0.118372 0.31996,0.179911 0.32995,0.3014 0.0556,0.675881 -0.27945,0.381402 -0.41063,0.400886 -0.79699,0.118372 z M 72.350724,51.6603 c -0.24205,-0.452273 -0.20467,-0.596614 0.21231,-0.819771 0.65635,-0.351269 1.02134,0.42882 0.46223,0.98793 -0.3313,0.331301 -0.41893,0.309454 -0.67454,-0.168159 z m 70.796836,-0.08654 c -0.44271,-0.247753 -0.43886,-0.310776 0.0719,-1.176504 0.45832,-0.776798 0.48035,-0.937498 0.14611,-1.06576 -0.44421,-0.170458 -0.52567,-0.775319 -0.13678,-1.015661 0.25195,-0.155718 1.85985,0.540327 1.85985,0.805114 0,0.07418 -0.3315,0.715306 -0.73667,1.424728 -0.61788,1.081865 -0.8121,1.247648 -1.20444,1.028083 z M 64.015414,49.919472 c -1.0624,-1.899759 -1.11926,-2.147401 -0.54373,-2.368251 0.27793,-0.106651 0.54068,0.131998 0.84275,0.765442 0.45078,0.94529 0.71616,1.118923 1.00237,0.655828 0.24339,-0.393819 0.58335,-0.320575 0.77003,0.16591 0.0981,0.25568 -0.0206,0.566372 -0.29243,0.765116 -0.37785,0.276291 -0.39874,0.405591 -0.11981,0.741683 0.28145,0.339119 0.25026,0.453922 -0.18689,0.687874 -0.4684,0.250682 -0.62641,0.09897 -1.47229,-1.413602 z m 76.629166,1.473131 c -0.27351,-0.173501 -0.24669,-0.38689 0.13229,-1.052608 0.4788,-0.841073 0.96724,-1.062162 1.26876,-0.574296 0.15885,0.257024 -0.63433,1.856663 -0.91661,1.848574 -0.0778,-0.0021 -0.29576,-0.101981 -0.48444,-0.22167 z m 5.84786,-0.325718 c -0.52349,-0.334608 -0.78966,-0.684959 -0.6993,-0.920443 0.19122,-0.498316 0.44201,-0.479721 1.40175,0.103933 0.67538,0.410718 0.74656,0.550299 0.46942,0.920444 -0.30075,0.401666 -0.39378,0.393416 -1.17187,-0.103934 z m -14.66574,-1.12063 -2.28176,-1.309168 1.22515,-2.125925 c 0.67383,-1.16926 1.34343,-2.162622 1.48801,-2.207469 0.14457,-0.04485 1.22645,0.481269 2.40418,1.169149 l 2.14131,1.250691 -1.34756,2.265944 -1.34757,2.265945 z m 2.76053,-1.535091 c 0.40885,-0.741098 0.7065,-1.373037 0.66146,-1.404308 -0.57874,-0.401804 -2.65506,-1.498377 -2.70978,-1.431128 -0.31844,0.391361 -1.51643,2.643809 -1.43915,2.705901 0.27616,0.221925 2.4979,1.479423 2.61183,1.478296 0.0728,-7.93e-4 0.4668,-0.60766 0.87564,-1.348761 z m -1.74776,-0.305046 c -0.34719,-0.264022 -0.36558,-0.405096 -0.099,-0.759478 0.26039,-0.346181 0.4146,-0.371438 0.75375,-0.123447 0.34811,0.254548 0.36629,0.393959 0.099,0.759478 -0.26596,0.363728 -0.40734,0.386882 -0.75374,0.123447 z m -54.518186,1.157354 -0.70565,-1.296517 1.21046,-0.709377 c 1.14231,-0.669441 1.96883,-0.73679 1.96883,-0.160433 0,0.141862 -0.357187,0.468924 -0.79375,0.726808 -0.90268,0.533226 -0.96299,0.789176 -0.38155,1.619298 0.22672,0.323675 0.33875,0.707355 0.24897,0.85262 -0.34705,0.561533 -0.86951,0.212931 -1.54731,-1.032399 z m 58.245486,1.006284 c -0.50137,-0.28058 -0.35555,-1.032682 0.20022,-1.032682 0.48869,0 0.7195,0.449763 0.46457,0.905291 -0.15203,0.27165 -0.34197,0.308049 -0.66479,0.127391 z M 67.225594,49.111971 c -0.37246,-0.781058 -0.37716,-0.93186 -0.0379,-1.213456 0.33714,-0.279796 0.31955,-0.436655 -0.13547,-1.207844 -0.50273,-0.852069 -0.50431,-0.896249 -0.041,-1.144235 0.39774,-0.212863 0.56632,-0.10133 0.96456,0.638151 l 0.48258,0.896099 0.98346,-0.501727 c 0.84867,-0.432956 1.00428,-0.447477 1.13535,-0.105931 0.1027,0.267658 0.35629,0.34449 0.78328,0.23732 1.02805,-0.258024 1.09122,0.543555 0.0931,1.181537 -0.77735,0.496877 -0.87136,0.505288 -1.17124,0.104786 -0.30122,-0.402276 -0.39563,-0.397995 -1.23901,0.05619 -0.74218,0.399696 -0.86615,0.579086 -0.66276,0.959115 0.18837,0.351973 0.12913,0.532238 -0.23978,0.729673 -0.40985,0.219348 -0.55949,0.116401 -0.91527,-0.629682 z m 13.480296,0.01013 c -0.09159,-0.238668 0.176794,-0.569809 0.723005,-0.89208 0.813237,-0.479822 0.88669,-0.483648 1.15129,-0.05995 0.230457,0.369019 0.145282,0.533698 -0.461407,0.892079 -0.912019,0.538742 -1.224079,0.551985 -1.412888,0.05996 z m 64.97468,-0.901705 c -1.6499,-0.96351 -2.12553,-1.827271 -0.93777,-1.70302 0.30716,0.03213 0.70503,-0.118166 0.88415,-0.333992 0.46927,-0.565433 1.13904,0.01024 0.78392,0.673778 -0.33475,0.625488 0.46429,0.971404 1.00194,0.433755 0.32775,-0.32775 0.48053,-0.320236 1.14723,0.05642 0.89266,0.504325 0.90216,1.260306 0.0146,1.163675 -0.33041,-0.03597 -0.6606,0.110595 -0.74507,0.330729 -0.19748,0.514622 -0.21001,0.511 -2.14902,-0.62135 z m -70.508046,-0.14699 c -0.23581,-0.494495 -0.35708,-0.970745 -0.26949,-1.058333 0.37079,-0.37079 0.87945,-0.104661 1.27984,0.669607 0.35377,0.684123 0.36651,0.868225 0.0729,1.054283 -0.54633,0.34625 -0.62336,0.298926 -1.08329,-0.665557 z m 66.212566,0.111292 c -0.34665,-0.219136 -0.33382,-0.366519 0.10238,-1.176491 0.41266,-0.766257 0.5818,-0.88148 0.98065,-0.668025 0.46203,0.247274 0.45945,0.296119 -0.0624,1.180541 -0.29939,0.507429 -0.56235,0.920774 -0.58436,0.918546 -0.022,-0.0021 -0.21834,-0.116787 -0.4363,-0.254571 z M 64.935234,47.271151 c -0.25094,-0.302368 -0.20651,-0.435983 0.22108,-0.664821 0.43563,-0.233143 0.58551,-0.192291 0.80599,0.219684 0.20822,0.389069 0.1752,0.542782 -0.14282,0.664821 -0.54604,0.209534 -0.52335,0.215172 -0.88425,-0.219684 z m 74.137006,-0.471453 c -0.68145,-0.412207 -0.80673,-0.612476 -0.61144,-0.977384 0.19416,-0.362781 0.079,-0.557353 -0.54942,-0.928589 -0.72634,-0.429059 -0.835,-0.433478 -1.25749,-0.05113 -0.75066,0.679336 -1.17011,0.02842 -0.64614,-1.002689 0.55155,-1.085365 0.54129,-1.078179 0.99789,-0.69923 0.33179,0.27536 0.48666,0.176088 0.94975,-0.608806 0.3521,-0.596752 0.69136,-0.884841 0.93289,-0.79216 0.48572,0.186388 0.48256,0.645459 -0.009,1.295236 -0.57896,0.765455 -0.4919,1.074978 0.40714,1.447371 0.66144,0.273979 0.78409,0.449448 0.65993,0.94414 -0.0987,0.393411 -0.0111,0.686736 0.24853,0.832043 0.3275,0.183279 0.33991,0.300995 0.0677,0.642032 -0.30142,0.377595 -0.41547,0.367935 -1.19041,-0.10083 z M 61.916084,46.260512 c -0.20361,-0.327422 -0.78787,-1.322306 -1.29837,-2.210851 l -0.92817,-1.615535 2.30044,-1.316241 2.30043,-1.316241 1.33411,2.287431 1.33412,2.287434 -2.1794,1.239658 c -1.19868,0.681812 -2.24996,1.239657 -2.33618,1.239657 -0.0862,0 -0.32337,-0.26789 -0.52698,-0.595312 z m 2.16298,-1.436151 c 0.68075,-0.389699 1.278,-0.737539 1.32721,-0.772977 0.0699,-0.05036 -1.10848,-2.262878 -1.44753,-2.717808 -0.058,-0.07785 -2.32072,1.129048 -2.70248,1.441468 -0.0984,0.08056 1.35737,2.757144 1.49988,2.757594 0.0468,1.48e-4 0.64216,-0.318574 1.32292,-0.708277 z m -1.22633,-1.162642 c -0.25256,-0.404403 -0.22241,-0.540491 0.16573,-0.748215 0.68778,-0.368091 1.25854,0.545838 0.59836,0.958127 -0.35715,0.223041 -0.52199,0.177755 -0.76409,-0.209912 z m 9.84307,2.247969 c -0.43615,-0.809885 -0.44899,-0.957268 -0.10238,-1.175608 0.2802,-0.176506 0.49885,-0.115443 0.74641,0.208452 0.79764,1.043623 0.86431,1.35277 0.35094,1.627516 -0.41695,0.223147 -0.57602,0.117573 -0.99497,-0.66036 z m 3.7312,0.147944 c -0.33229,-0.642578 -0.50401,-0.749361 -0.88078,-0.547719 -0.34833,0.18642 -0.5434,0.129759 -0.76281,-0.221557 -0.25164,-0.402939 -0.15764,-0.537432 0.64216,-0.918832 0.51532,-0.245737 0.96572,-0.411927 1.00088,-0.369311 0.56238,0.681575 1.4386,2.408455 1.31968,2.60087 -0.30572,0.49466 -0.91132,0.245163 -1.31913,-0.543451 z m 71.148636,-0.450461 -2.14324,-1.232718 1.33352,-2.286404 1.33351,-2.286405 2.29723,1.314407 2.29724,1.314411 -1.22465,2.125059 c -0.67355,1.168784 -1.34293,2.160905 -1.48751,2.204712 -0.14457,0.04381 -1.22732,-0.475067 -2.4061,-1.153062 z m 2.89648,-1.415907 c 0.41429,-0.737608 0.71194,-1.374908 0.66146,-1.41622 -0.38176,-0.31242 -2.64446,-1.519319 -2.70248,-1.441468 -0.58444,0.784193 -1.51496,2.73627 -1.33367,2.797789 0.13211,0.04483 0.71645,0.374795 1.29853,0.733266 0.58209,0.358468 1.11787,0.655357 1.19063,0.659749 0.0728,0.0044 0.47125,-0.595508 0.88553,-1.333116 z m -1.72648,-0.348642 c -0.34811,-0.254547 -0.36629,-0.393959 -0.099,-0.759478 0.26596,-0.363728 0.40734,-0.386882 0.75375,-0.123447 0.34718,0.264023 0.36557,0.405096 0.099,0.759479 -0.26039,0.34618 -0.4146,0.371438 -0.75375,0.123446 z m -80.213886,1.302126 c -0.10147,-0.26444 0.26882,-0.622853 1.16176,-1.124479 1.08003,-0.606727 1.29916,-0.852736 1.24512,-1.397778 -0.0927,-0.934797 0.58843,-0.849934 1.16995,0.145767 l 0.47145,0.807225 -1.70167,0.978712 c -1.895,1.089904 -2.13209,1.149573 -2.34661,0.590553 z m 10.95621,-0.111196 c -0.35127,-0.656352 0.42882,-1.021345 0.987929,-0.462238 0.3313,0.331303 0.309454,0.418933 -0.168159,0.674545 -0.45227,0.242048 -0.59661,0.204668 -0.81977,-0.212307 z M 141.5168,44.568938 c -0.87313,-0.51925 -1.61604,-0.969955 -1.65092,-1.001564 -0.0349,-0.03161 0.0842,-0.254209 0.26459,-0.494668 0.29857,-0.397978 0.44298,-0.36513 1.60993,0.366194 1.15163,0.721728 1.31371,0.759944 1.59448,0.375968 0.18566,-0.253908 0.49158,-0.358725 0.75355,-0.258194 0.40931,0.157064 0.41004,0.234185 0.0102,1.072732 -0.23696,0.496927 -0.55762,0.89903 -0.71257,0.893564 -0.15495,-0.0055 -0.9961,-0.434782 -1.86922,-0.954032 z m -36.05676,-0.506241 c -1.03898,-0.727731 -0.51814,-2.498539 0.73488,-2.498539 1.25302,0 1.77386,1.770808 0.73488,2.498539 -0.32342,0.226531 -0.65412,0.411877 -0.73488,0.411877 -0.0808,0 -0.41146,-0.185346 -0.73488,-0.411877 z M 77.645724,43.865376 c -0.45212,-0.452117 -0.3533,-0.667594 0.51114,-1.114612 1.37578,-0.711444 1.89095,0.203726 0.54552,0.969092 -0.55624,0.316425 -0.84587,0.356311 -1.05666,0.14552 z m -3.9313,-0.446182 c -0.26303,-0.42118 -0.22974,-0.527593 0.20856,-0.666703 0.41698,-0.132347 0.46818,-0.265229 0.25541,-0.662807 -0.35308,-0.659736 0.48403,-1.22023 0.92393,-0.618628 0.42303,0.578525 1.26119,0.182584 0.92869,-0.438706 -0.20816,-0.38895 -0.0954,-0.581726 0.60016,-1.026284 0.79669,-0.509177 0.87977,-0.516228 1.19048,-0.101026 0.28007,0.374256 0.25098,0.490871 -0.1801,0.722003 -0.3787,0.203047 -0.45016,0.389829 -0.27128,0.709105 0.28375,0.506455 0.17565,0.607853 -1.87734,1.761024 -1.40673,0.790168 -1.47808,0.803087 -1.77851,0.322022 z m -6.2428,-0.13121 c -0.0872,-0.227253 0.057,-0.50402 0.34212,-0.656611 0.37406,-0.200192 0.53134,-0.163518 0.65246,0.152133 0.0878,0.228748 0.0926,0.524224 0.0108,0.656611 -0.23173,0.374949 -0.83838,0.283154 -1.00541,-0.152133 z m 65.776946,0.208063 c -0.49891,-0.186912 -0.41597,-0.502864 0.61684,-2.349703 0.8243,-1.473986 1.01219,-1.659843 1.44426,-1.42861 0.484,0.259032 0.48333,0.288433 -0.0263,1.152104 -0.45397,0.769414 -0.47204,0.928516 -0.13706,1.206524 0.54042,0.448508 0.22459,1.133763 -0.4272,0.926891 -0.30938,-0.09819 -0.64238,-0.0072 -0.82857,0.226264 -0.17121,0.214738 -0.46012,0.334679 -0.64202,0.26653 z m 8.07627,-1.513951 c -0.38141,-0.279455 -0.40089,-0.410633 -0.11838,-0.796991 0.30239,-0.413541 0.37391,-0.41942 0.67588,-0.05557 0.20354,0.245245 0.25057,0.561896 0.11838,0.796994 -0.17992,0.319961 -0.3014,0.329949 -0.67588,0.05557 z m 2.19588,0.0024 c -0.2118,-0.255206 -0.22205,-0.427569 -0.0324,-0.544782 0.47774,-0.295262 0.3089,-0.556384 -0.65785,-1.017397 -0.8509,-0.405768 -0.90741,-0.4997 -0.62635,-1.041191 0.51288,-0.988108 0.78724,-1.232609 1.20378,-1.072764 0.25825,0.0991 0.34575,0.357508 0.25009,0.738611 -0.12292,0.489757 0.0677,0.70312 1.15884,1.29698 0.92768,0.504907 1.26075,0.828572 1.14991,1.117425 -0.10679,0.278291 -0.35533,0.356619 -0.78745,0.248163 -0.4306,-0.108077 -0.68063,-0.03019 -0.7862,0.244901 -0.19303,0.503039 -0.47186,0.512644 -0.87237,0.03005 z M 66.236744,41.020161 c -0.26222,-0.633063 -0.26532,-0.877033 -0.0143,-1.124479 0.24904,-0.245483 0.40205,-0.205679 0.6856,0.178356 0.35072,0.475025 0.41707,0.462325 1.69596,-0.324581 1.2949,-0.796763 1.33859,-0.804674 1.61297,-0.292002 0.22044,0.411906 0.19329,0.560988 -0.12439,0.682895 -0.27006,0.103629 -0.35605,0.356576 -0.25631,0.753962 0.18066,0.719831 -0.48868,1.090422 -0.95488,0.528683 -0.2673,-0.322078 -0.41553,-0.31989 -1.06454,0.01572 -1.04737,0.541618 -1.19904,0.501443 -1.58012,-0.418563 z m 70.186846,0.590378 c -0.26456,-0.167986 -0.26456,-0.2985 0,-0.65247 0.40703,-0.5446 1.14722,-0.179716 0.90673,0.446984 -0.1798,0.468561 -0.41019,0.520772 -0.90673,0.205486 z M 71.170124,39.01314 c -0.69091,-1.214665 -1.19049,-2.31481 -1.11017,-2.444765 0.0803,-0.129956 1.0847,-0.768096 2.23196,-1.41809 l 2.08592,-1.181807 1.31168,2.292459 1.31167,2.292461 -2.28743,1.334114 -2.28743,1.334113 z m 2.9631,-0.0096 c 0.68076,-0.389699 1.28197,-0.741508 1.33603,-0.781796 0.0791,-0.05893 -1.13769,-2.335334 -1.44797,-2.708989 -0.063,-0.07587 -2.29087,1.10496 -2.70096,1.431578 -0.0915,0.07289 1.35594,2.757943 1.48999,2.763941 0.0468,0.0021 0.64216,-0.315032 1.32291,-0.704734 z m -1.20202,-1.123725 c -0.22304,-0.357143 -0.17776,-0.521989 0.20991,-0.76409 0.4044,-0.252553 0.54049,-0.222409 0.74821,0.165729 0.3681,0.687785 -0.54583,1.258541 -0.95812,0.598361 z m 64.732146,1.989209 -2.26594,-1.347563 1.30916,-2.281761 1.30917,-2.281759 2.12593,1.225145 c 1.16926,0.673828 2.16262,1.343433 2.20747,1.488009 0.0448,0.144576 -0.48127,1.226458 -1.16915,2.404179 l -1.25069,2.141312 z m 2.74472,-1.512014 c 0.40884,-0.741098 0.7065,-1.376802 0.66146,-1.412677 -0.4101,-0.326618 -2.63797,-1.507445 -2.70097,-1.431578 -0.52521,0.632486 -1.52847,2.728968 -1.337,2.793886 0.13855,0.04697 0.72815,0.378698 1.31024,0.737169 0.58208,0.358468 1.11786,0.653761 1.19062,0.656206 0.0728,0.0024 0.4668,-0.601906 0.87565,-1.343006 z m -1.73791,-0.350798 c -0.36373,-0.265965 -0.38688,-0.40734 -0.12345,-0.753748 0.26402,-0.347181 0.4051,-0.365572 0.75948,-0.09901 0.34618,0.26039 0.37144,0.414602 0.12345,0.753748 -0.25455,0.348115 -0.39396,0.366289 -0.75948,0.09902 z m -33.48065,1.917533 c -0.44111,-0.441105 -0.42985,-4.605642 0.0132,-4.892405 0.18191,-0.117729 0.7348,-0.33338 1.22866,-0.479227 1.18262,-0.349244 2.00617,-1.445852 1.77564,-2.364356 -0.38638,-1.539452 -2.00713,-2.213078 -3.2426,-1.347716 -0.30497,0.213609 -0.68987,0.92602 -0.85534,1.58314 -0.33256,1.320718 -1.10318,1.762384 -2.12286,1.21667 -1.18473,-0.634047 -0.47843,-3.676814 1.13707,-4.898527 2.46402,-1.863405 5.9737,-1.163722 7.31095,1.457497 0.58407,1.14487 0.70154,3.380033 0.22626,4.30513 -0.44147,0.859295 -1.59014,2.029537 -2.41507,2.460419 -0.62099,0.324361 -0.7276,0.545759 -0.7276,1.510961 0,1.300247 -0.34885,1.765914 -1.32292,1.765914 -0.37835,0 -0.83079,-0.142875 -1.00541,-0.3175 z m 40.50889,-0.249521 c -0.52733,-0.326313 -0.79047,-0.666527 -0.6993,-0.904121 0.18571,-0.483944 0.45494,-0.479231 1.43007,0.02503 0.66613,0.344474 0.74289,0.484748 0.50672,0.926042 -0.15309,0.286041 -0.30391,0.510212 -0.33517,0.498155 -0.0313,-0.01206 -0.43731,-0.25735 -0.90232,-0.5451 z M 67.206294,38.523537 c -0.0985,-0.256678 0.11841,-0.534361 0.62001,-0.79375 0.96703,-0.500068 1.23124,-0.500846 1.42183,-0.0042 0.0985,0.256677 -0.1184,0.53436 -0.62001,0.79375 -0.96702,0.500067 -1.23124,0.500845 -1.42183,0.0042 z"
       id="path1022"
       inkscape:connector-curvature="0" />
    <rect
       style="opacity:1;fill:none;fill-opacity:1;fill-rule:nonzero;stroke:#0000fc;stroke-width:0.25;stroke-linecap:round;stroke-linejoin:round;stroke-miterlimit:4;stroke-dasharray:none;stroke-dashoffset:0.39999998;stroke-opacity:1;paint-order:normal"
       id="rect1379"
       width="190"
       height="190"
       x="11.339283"
       y="11.249998"
       rx="20"
       ry="20" />
    <circle
       style="opacity:1;fill:none;fill-opacity:1;fill-rule:nonzero;stroke:#0000ff;stroke-width:0.0825;stroke-linecap:round;stroke-linejoin:round;stroke-miterlimit:4;stroke-dasharray:none;stroke-dashoffset:0.40000001;stroke-opacity:1;paint-order:normal"
       id="path1381-3-15"
       cx="73.695885"
       cy="215.9355"
       r="1.65" />
    <path
       style="opacity:1;fill:none;fill-opacity:1;fill-rule:nonzero;stroke:#000000;stroke-width:0.163672;stroke-linecap:round;stroke-linejoin:round;stroke-miterlimit:4;stroke-dasharray:none;stroke-dashoffset:0.40000001;stroke-opacity:1;paint-order:normal"
       d="m 49.936226,204.54912 -33.53901,11.44574 33.66467,11.327 -0.0364,-6.15125 h 52.549154 l 8.25039,4.89329 20.1695,0.0823 -7.91363,-4.97554 h 1.21768 v -10.47023 l -1.44277,-0.007 8.07271,-5.07484 -20.17205,0.082 -8.43232,5.00043 H 49.972596 Z"
       id="rect1404-8-9"
       inkscape:connector-curvature="0"
       sodipodi:nodetypes="cccccccccccccccc" />
    <circle
       style="opacity:1;fill:none;fill-opacity:1;fill-rule:nonzero;stroke:#0000ff;stroke-width:0.0825;stroke-linecap:round;stroke-linejoin:round;stroke-miterlimit:4;stroke-dasharray:none;stroke-dashoffset:0.40000001;stroke-opacity:1;paint-order:normal"
       id="path1381-3-15-4"
       cx="106.33929"
       cy="106.25"
       r="1.65" />
  </g>
</svg>
