<?xml version="1.0" encoding="UTF-8" standalone="no"?>
<!-- Created with Inkscape (http://www.inkscape.org/) -->

<svg
   xmlns:dc="http://purl.org/dc/elements/1.1/"
   xmlns:cc="http://creativecommons.org/ns#"
   xmlns:rdf="http://www.w3.org/1999/02/22-rdf-syntax-ns#"
   xmlns:svg="http://www.w3.org/2000/svg"
   xmlns="http://www.w3.org/2000/svg"
   xmlns:sodipodi="http://sodipodi.sourceforge.net/DTD/sodipodi-0.dtd"
   xmlns:inkscape="http://www.inkscape.org/namespaces/inkscape"
   width="210mm"
   height="297mm"
   viewBox="0 0 210 297"
   version="1.1"
   id="svg834"
   inkscape:version="0.92.5 (2060ec1f9f, 2020-04-08)"
   sodipodi:docname="spinner.svg">
  <defs
     id="defs828" />
  <sodipodi:namedview
     id="base"
     pagecolor="#ffffff"
     bordercolor="#666666"
     borderopacity="1.0"
     inkscape:pageopacity="0.0"
     inkscape:pageshadow="2"
     inkscape:zoom="0.70710678"
     inkscape:cx="73.07166"
     inkscape:cy="565.58996"
     inkscape:document-units="mm"
     inkscape:current-layer="layer1"
     showgrid="false"
     inkscape:window-width="1608"
     inkscape:window-height="986"
     inkscape:window-x="72"
     inkscape:window-y="27"
     inkscape:window-maximized="1" />
  <metadata
     id="metadata831">
    <rdf:RDF>
      <cc:Work
         rdf:about="">
        <dc:format>image/svg+xml</dc:format>
        <dc:type
           rdf:resource="http://purl.org/dc/dcmitype/StillImage" />
        <dc:title />
      </cc:Work>
    </rdf:RDF>
  </metadata>
  <g
     inkscape:label="Layer 1"
     inkscape:groupmode="layer"
     id="layer1">
    <rect
       style="opacity:1;fill:none;fill-opacity:1;fill-rule:nonzero;stroke:#0000fc;stroke-width:0.25;stroke-linecap:round;stroke-linejoin:round;stroke-miterlimit:4;stroke-dasharray:none;stroke-dashoffset:0.39999998;stroke-opacity:1;paint-order:normal"
       id="rect1379"
       width="190"
       height="190"
       x="11.339283"
       y="11.249998"
       rx="20"
       ry="20" />
    <circle
       style="opacity:1;fill:none;fill-opacity:1;fill-rule:nonzero;stroke:#0aff80;stroke-width:0.07926829;stroke-linecap:round;stroke-linejoin:round;stroke-miterlimit:4;stroke-dasharray:none;stroke-dashoffset:0.39999998;stroke-opacity:0.95183486;paint-order:normal"
       id="path1381-3"
       cx="67.580772"
       cy="217.74265"
       r="1.5853659" />
    <path
       style="opacity:1;fill:none;fill-opacity:1;fill-rule:nonzero;stroke:#0000fc;stroke-width:0.18056111;stroke-linecap:round;stroke-linejoin:round;stroke-miterlimit:4;stroke-dasharray:none;stroke-dashoffset:0.39999998;stroke-opacity:1;paint-order:normal"
       d="m 43.821055,203.88512 -33.539009,13.92979 33.664668,13.78527 -0.03638,-7.48625 h 52.549147 l 8.250399,5.95528 20.16951,0.10009 -7.91363,-6.05537 h 1.21768 v -12.74256 l -1.44277,-0.009 8.07271,-6.17621 -20.17206,0.0998 -8.432326,6.08566 H 43.857442 Z"
       id="rect1404-8"
       inkscape:connector-curvature="0"
       sodipodi:nodetypes="cccccccccccccccc" />
    <path
       style="fill:#000000;stroke-width:0.26458332"
       d="m 82.775524,194.09166 c 0.49353,-2.1904 10.5386,-39.80246 10.74068,-40.21666 l 0.25816,-0.52917 -0.11968,0.52917 c -0.50253,2.22183 -10.53949,39.80347 -10.74071,40.21666 l -0.25769,0.52917 z m 46.744706,-0.5686 c -1.92365,-7.274 -10.41537,-39.25368 -10.52794,-39.64806 -0.0831,-0.29105 -0.071,-0.45397 0.0269,-0.36207 0.23561,0.22129 11.01835,40.78119 10.87869,40.92084 -0.0595,0.0595 -0.22943,-0.35032 -0.37763,-0.91071 z M 97.740324,182.05312 v -2.64583 h 2.645826 2.64584 v 2.64583 2.64583 h -2.64584 -2.645826 z m 4.233326,0 v -1.5875 h -1.5875 -1.587496 v 1.5875 1.5875 h 1.587496 1.5875 z m -2.116656,0 c 0,-0.35278 0.176386,-0.52917 0.529156,-0.52917 0.35278,0 0.52917,0.17639 0.52917,0.52917 0,0.35278 -0.17639,0.52917 -0.52917,0.52917 -0.35277,0 -0.529156,-0.17639 -0.529156,-0.52917 z m 4.233326,2.11667 c 0,-0.44098 0.17639,-0.52917 1.05833,-0.52917 0.88195,0 1.05834,0.0882 1.05834,0.52917 0,0.44097 -0.17639,0.52916 -1.05834,0.52916 -0.88194,0 -1.05833,-0.0882 -1.05833,-0.52916 z m 5.29167,-2.11667 v -2.64583 h 2.64583 2.64583 v 2.64583 2.64583 h -2.64583 -2.64583 z m 4.23333,0 v -1.5875 h -1.5875 -1.5875 v 1.5875 1.5875 h 1.5875 1.5875 z m -2.11667,0 c 0,-0.35278 0.17639,-0.52917 0.52917,-0.52917 0.35278,0 0.52917,0.17639 0.52917,0.52917 0,0.35278 -0.17639,0.52917 -0.52917,0.52917 -0.35278,0 -0.52917,-0.17639 -0.52917,-0.52917 z m -4.23333,1.05833 c 0,-0.47037 -0.17639,-0.52916 -1.5875,-0.52916 -1.41111,0 -1.5875,-0.0588 -1.5875,-0.52917 0,-0.35278 0.17639,-0.52917 0.52917,-0.52917 0.35277,0 0.52916,-0.17639 0.52916,-0.52916 0,-0.35278 0.17639,-0.52917 0.52917,-0.52917 0.35278,0 0.52917,0.17639 0.52917,0.52917 0,0.44097 0.17639,0.52916 1.05833,0.52916 h 1.05833 v 1.05834 c 0,0.88194 -0.0882,1.05833 -0.52916,1.05833 -0.35278,0 -0.52917,-0.17639 -0.52917,-0.52917 z m 0,-3.175 c 0,-0.35277 0.17639,-0.52916 0.52917,-0.52916 0.35277,0 0.52916,0.17639 0.52916,0.52916 0,0.35278 -0.17639,0.52917 -0.52916,0.52917 -0.35278,0 -0.52917,-0.17639 -0.52917,-0.52917 z m -3.175,-1.5875 v -1.05833 h 2.11667 c 1.94027,0 2.11666,0.0441 2.11666,0.52917 0,0.47037 -0.17639,0.52916 -1.5875,0.52916 -1.41111,0 -1.5875,0.0588 -1.5875,0.52917 0,0.35278 -0.17639,0.52917 -0.52916,0.52917 -0.44098,0 -0.52917,-0.17639 -0.52917,-1.05834 z m -6.349996,-0.52916 c 0,-0.35278 0.17639,-0.52917 0.52917,-0.52917 0.35278,0 0.52916,-0.17639 0.52916,-0.52917 0,-0.48507 0.17639,-0.52916 2.116666,-0.52916 1.94028,0 2.11667,0.0441 2.11667,0.52916 0,0.35278 -0.17639,0.52917 -0.52917,0.52917 -0.35278,0 -0.52917,0.17639 -0.52917,0.52917 0,0.35277 -0.17638,0.52916 -0.52916,0.52916 -0.35278,0 -0.52917,-0.17639 -0.52917,-0.52916 0,-0.35278 -0.17639,-0.52917 -0.52917,-0.52917 -0.35277,0 -0.529156,0.17639 -0.529156,0.52917 0,0.44097 -0.17639,0.52916 -1.05834,0.52916 -0.88194,0 -1.05833,-0.0882 -1.05833,-0.52916 z m 11.641666,-0.52917 v -1.05833 h -1.05834 c -0.88194,0 -1.05833,-0.0882 -1.05833,-0.52917 0,-0.35278 -0.17639,-0.52917 -0.52917,-0.52917 -0.35277,0 -0.52916,-0.17639 -0.52916,-0.52916 0,-0.44098 0.17639,-0.52917 1.05833,-0.52917 0.88194,0 1.05833,0.0882 1.05833,0.52917 0,0.44097 0.17639,0.52916 1.05834,0.52916 0.88194,0 1.05833,-0.0882 1.05833,-0.52916 0,-0.35278 0.17639,-0.52917 0.52917,-0.52917 0.44097,0 0.52916,0.17639 0.52916,1.05833 0,0.88195 -0.0882,1.05834 -0.52916,1.05834 -0.44098,0 -0.52917,0.17639 -0.52917,1.05833 0,0.88194 -0.0882,1.05833 -0.52917,1.05833 -0.44097,0 -0.52916,-0.17639 -0.52916,-1.05833 z m 2.11666,0.52917 c 0,-0.35278 0.17639,-0.52917 0.52917,-0.52917 0.35278,0 0.52917,0.17639 0.52917,0.52917 0,0.35277 -0.17639,0.52916 -0.52917,0.52916 -0.35278,0 -0.52917,-0.17639 -0.52917,-0.52916 z m 2.11667,-0.52917 c 0,-0.88194 -0.0882,-1.05833 -0.52917,-1.05833 -0.35277,0 -0.52916,-0.17639 -0.52916,-0.52917 0,-0.35278 0.17639,-0.52917 0.52916,-0.52917 0.35278,0 0.52917,-0.17639 0.52917,-0.52916 0,-0.35278 0.17639,-0.52917 0.52917,-0.52917 0.48507,0 0.52916,0.17639 0.52916,2.11667 0,1.94027 -0.0441,2.11666 -0.52916,2.11666 -0.44098,0 -0.52917,-0.17639 -0.52917,-1.05833 z m -9.525,-2.11667 c 0,-0.88194 0.0882,-1.05833 0.52917,-1.05833 0.44097,0 0.52916,0.17639 0.52916,1.05833 0,0.88195 -0.0882,1.05834 -0.52916,1.05834 -0.44098,0 -0.52917,-0.17639 -0.52917,-1.05834 z m 37.00042,0.51135 c -0.23345,-0.13065 -1.65559,-2.38274 -3.16033,-5.00465 -1.50473,-2.62191 -2.82411,-4.76711 -2.93195,-4.76711 -0.10784,0 -0.31876,0.45561 -0.46871,1.01247 -0.34106,1.26663 -1.38947,1.95713 -2.01769,1.3289 -0.44158,-0.44157 -0.51736,-1.06369 -0.25299,-2.07679 0.0949,-0.3638 0.21606,-0.84005 0.26918,-1.05833 0.0531,-0.21828 0.1148,-0.39688 0.13707,-0.39688 0.0223,0 0.0839,-0.17859 0.13707,-0.39687 0.0531,-0.21828 0.17003,-0.69453 0.25981,-1.05834 0.0898,-0.3638 0.19543,-0.82675 0.23479,-1.02878 0.11,-0.56462 0.93849,-1.06039 1.57473,-0.94231 1.7377,0.32251 3.26216,0.75303 3.58895,1.01356 0.20427,0.16284 0.41263,0.26631 0.46302,0.22993 0.36362,-0.2625 1.10906,0.0359 1.3219,0.52917 0.59284,1.37393 -0.33649,2.05759 -2.12549,1.56363 -0.52627,-0.14532 -0.95686,-0.21038 -0.95686,-0.1446 0,0.0658 1.20666,2.20575 2.68148,4.75548 1.47482,2.54973 2.68176,4.83779 2.6821,5.08459 0.001,0.89448 -0.08,1.09588 -0.54177,1.34301 -0.28173,0.15077 -0.6398,0.15635 -0.89431,0.0139 z m -43.350416,-1.04051 c 0,-0.44098 0.17639,-0.52917 1.05833,-0.52917 0.88195,0 1.05834,0.0882 1.05834,0.52917 0,0.44097 -0.17639,0.52916 -1.05834,0.52916 -0.88194,0 -1.05833,-0.0882 -1.05833,-0.52916 z m 3.174996,-1.05834 c 0,-1.41111 0.0588,-1.5875 0.52917,-1.5875 0.44097,0 0.52916,0.17639 0.52916,1.05834 0,0.88194 0.0882,1.05833 0.52917,1.05833 0.35278,0 0.52917,0.17639 0.52917,0.52917 0,0.44097 -0.17639,0.52916 -1.05834,0.52916 h -1.05833 z m -3.174996,-1.05833 c 0,-0.35278 0.17639,-0.52917 0.52917,-0.52917 0.35278,0 0.52916,0.17639 0.52916,0.52917 0,0.35278 -0.17638,0.52917 -0.52916,0.52917 -0.35278,0 -0.52917,-0.17639 -0.52917,-0.52917 z m 5.291666,-0.52917 c 0,-0.88194 0.0882,-1.05833 0.52916,-1.05833 0.44098,0 0.52917,0.17639 0.52917,1.05833 0,0.88195 -0.0882,1.05834 -0.52917,1.05834 -0.44097,0 -0.52916,-0.17639 -0.52916,-1.05834 z m 2.11666,-0.52916 v -1.5875 h -1.05833 c -0.88194,0 -1.05833,-0.0882 -1.05833,-0.52917 0,-0.44097 0.17639,-0.52917 1.05833,-0.52917 0.88194,0 1.05833,-0.0882 1.05833,-0.52916 0,-0.47037 0.17639,-0.52917 1.5875,-0.52917 1.41111,0 1.5875,0.0588 1.5875,0.52917 0,0.44097 -0.17639,0.52916 -1.05833,0.52916 h -1.05833 v 1.5875 1.5875 h 1.05833 c 0.88194,0 1.05833,0.0882 1.05833,0.52917 0,0.47037 -0.17639,0.52917 -1.5875,0.52917 h -1.5875 z m 4.23334,-1.05834 v -2.64583 h 2.64583 2.64583 v 2.64583 2.64584 h -2.64583 -2.64583 z m 4.23333,0 v -1.5875 h -1.5875 -1.5875 v 1.5875 1.5875 h 1.5875 1.5875 z m -2.11667,0 c 0,-0.35277 0.17639,-0.52916 0.52917,-0.52916 0.35278,0 0.52917,0.17639 0.52917,0.52916 0,0.35278 -0.17639,0.52917 -0.52917,0.52917 -0.35278,0 -0.52917,-0.17639 -0.52917,-0.52917 z M 64.045224,171.864 c -1.7974,-0.61792 -2.76046,-1.90311 -2.69058,-3.59055 0.0484,-1.16934 0.91318,-2.61512 1.90543,-3.18567 0.93127,-0.53548 6.09243,-1.89914 6.42049,-1.69639 0.13307,0.0822 0.31793,0.0266 0.4108,-0.12369 0.0929,-0.15026 0.30946,-0.18379 0.48131,-0.0745 0.30453,0.19367 0.4433,0.23789 0.96027,0.30602 0.3854,0.0508 1.47847,1.1463 1.88098,1.88516 0.79687,1.46276 -0.39081,2.57267 -1.53189,1.43158 -0.1845,-0.1845 -0.33546,-0.45996 -0.33546,-0.61214 0,-0.15217 -0.32742,-0.44474 -0.7276,-0.65014 -0.65933,-0.33842 -1.02187,-0.29295 -3.86364,0.48459 -1.72482,0.47192 -3.24441,1.02388 -3.37687,1.22656 -0.32209,0.49285 -0.18979,1.87138 0.22084,2.30105 0.5238,0.54807 1.38333,0.5991 3.00649,0.1785 0.83043,-0.21519 1.56054,-0.39125 1.62247,-0.39125 0.0619,0 0.49933,0.34528 0.972,0.76729 l 0.85942,0.76728 -0.87791,0.27617 c -3.00374,0.94488 -4.17692,1.0988 -5.33655,0.70014 z m 81.849266,-0.0565 c -0.80037,-0.19641 -1.63381,-0.43175 -1.85209,-0.52298 -0.55394,-0.23152 -0.72506,-0.27306 -1.28044,-0.3108 -0.54772,-0.0372 -1.05282,-0.98482 -0.89897,-1.68654 0.13502,-0.61583 1.1037,-0.8305 2.28088,-0.50547 0.52628,0.14531 0.95687,0.21038 0.95687,0.14459 0,-0.0658 -1.20559,-2.20387 -2.67907,-4.75131 -2.86466,-4.95255 -3.20975,-5.96245 -2.19535,-6.42465 0.91909,-0.41876 1.32277,0.073 4.20332,5.12052 1.41179,2.47385 2.66004,4.59494 2.77389,4.71353 0.11384,0.11859 0.33826,-0.3057 0.4987,-0.94287 0.35545,-1.41162 1.37953,-2.15199 2.04969,-1.48183 0.44157,0.44157 0.51736,1.06369 0.25299,2.07679 -0.0949,0.36381 -0.21607,0.84006 -0.26919,1.05834 -0.0531,0.21828 -0.1148,0.39687 -0.13707,0.39687 -0.0223,0 -0.0839,0.1786 -0.13706,0.39688 -0.0531,0.21828 -0.17004,0.69453 -0.25981,1.05833 -0.0898,0.3638 -0.18938,0.78052 -0.22135,0.92604 -0.22305,1.01546 -1.09525,1.22308 -3.08594,0.73456 z M 56.597624,155.8594 c 8.29372,-8.29469 15.13903,-15.08125 15.21179,-15.08125 0.0728,0 -6.65348,6.78656 -14.94721,15.08125 -8.29373,8.29469 -15.13904,15.08125 -15.2118,15.08125 -0.0728,0 6.65349,-6.78656 14.94722,-15.08125 z m 42.20103,14.55208 c 0,-0.44097 0.17639,-0.52916 1.05834,-0.52916 h 1.058326 v -1.05834 c 0,-0.88194 0.0882,-1.05833 0.52917,-1.05833 0.47037,0 0.52916,0.17639 0.52916,1.5875 v 1.5875 h -1.5875 c -1.411106,0 -1.587496,-0.0588 -1.587496,-0.52917 z m 8.466666,0 c 0,-0.35277 0.17639,-0.52916 0.52917,-0.52916 0.35277,0 0.52916,0.17639 0.52916,0.52916 0,0.35278 -0.17639,0.52917 -0.52916,0.52917 -0.35278,0 -0.52917,-0.17639 -0.52917,-0.52917 z m 48.55017,-14.61823 -15.08038,-15.14739 15.1474,15.08038 c 8.33106,8.29421 15.14739,15.11053 15.14739,15.14739 0,0.18579 -1.1965,-1.00017 -15.21441,-15.08038 z m -83.869846,14.39994 c -0.0982,-0.0982 -0.28772,-0.19346 -0.42112,-0.21165 -0.13339,-0.0182 -0.35546,-0.048 -0.49348,-0.0662 -0.3854,-0.0508 -1.47848,-1.14629 -1.88098,-1.88516 -0.79687,-1.46276 0.39081,-2.57267 1.53189,-1.43158 0.1845,0.1845 0.33546,0.45996 0.33546,0.61214 0,0.15218 0.32742,0.44475 0.7276,0.65015 0.65933,0.33842 1.02187,0.29294 3.86364,-0.48459 1.72482,-0.47193 3.24441,-1.02388 3.37687,-1.22656 0.32209,-0.49285 0.18979,-1.87139 -0.22084,-2.30105 -0.5238,-0.54808 -1.38333,-0.59911 -3.00649,-0.1785 -0.83043,0.21518 -1.56054,0.39124 -1.62247,0.39124 -0.0619,0 -0.50459,-0.34997 -0.9837,-0.77772 l -0.8711,-0.77772 1.41876,-0.39727 c 0.78032,-0.2185 1.83549,-0.50455 2.34481,-0.63568 3.54482,-0.91262 6.38185,2.45507 4.60734,5.46914 -0.70796,1.20251 -1.67821,1.70934 -4.85373,2.53549 -3.46511,0.90149 -3.6349,0.93303 -3.85246,0.71547 z m 25.79468,-1.89837 c 0,-0.44098 0.17639,-0.52917 1.05833,-0.52917 0.88195,0 1.05834,0.0882 1.05834,0.52917 0,0.44097 -0.17639,0.52916 -1.05834,0.52916 -0.88194,0 -1.05833,-0.0882 -1.05833,-0.52916 z M 167.89964,151.7462 c -1.06679,-0.61349 -2.06268,-1.2385 -2.21308,-1.38889 -0.18822,-0.18822 0.1224,-0.96939 0.99648,-2.50609 l 1.26993,-2.23262 2.29024,1.33575 2.29025,1.33576 -1.30546,2.26329 c -0.718,1.24481 -1.32419,2.27341 -1.34708,2.28577 -0.0229,0.0124 -0.91448,-0.47947 -1.98128,-1.09297 z m 2.4283,-1.72636 c 0.41428,-0.73761 0.71194,-1.37114 0.66145,-1.40785 -0.48614,-0.35353 -2.66174,-1.50983 -2.7113,-1.44102 -0.36639,0.50877 -1.50706,2.66112 -1.4387,2.71472 0.27887,0.2187 2.49211,1.47115 2.60301,1.47302 0.0728,0.001 0.47125,-0.60126 0.88554,-1.33887 z m -1.71764,-0.33305 c -0.34618,-0.26039 -0.37144,-0.4146 -0.12345,-0.75375 0.25455,-0.34811 0.39396,-0.36629 0.75948,-0.099 0.36373,0.26597 0.38688,0.40734 0.12345,0.75375 -0.26402,0.34718 -0.4051,0.36557 -0.75948,0.099 z m -127.412476,0.62791 -1.31168,-2.29246 2.28743,-1.33411 2.28744,-1.33411 1.2562,2.20848 c 0.69091,1.21467 1.19048,2.31481 1.11017,2.44477 -0.0803,0.12995 -1.0847,0.76809 -2.23196,1.41809 l -2.08592,1.1818 z m 3.07342,0.082 c 0.66763,-0.3851 1.25414,-0.73294 1.30335,-0.77297 0.0683,-0.0556 -1.06956,-2.20477 -1.43871,-2.71736 -0.0496,-0.0688 -2.22516,1.08748 -2.7113,1.44101 -0.11068,0.0805 1.36825,2.74885 1.52375,2.74923 0.06,1.5e-4 0.65529,-0.31481 1.32291,-0.69991 z m -1.27324,-1.10252 c -0.36809,-0.68779 0.54584,-1.25854 0.95813,-0.59836 0.22304,0.35714 0.17776,0.52199 -0.20991,0.76409 -0.4044,0.25255 -0.54049,0.22241 -0.74822,-0.16573 z m 120.755856,-0.0494 c -0.0899,-0.14552 -0.0788,-0.40171 0.0248,-0.56931 0.10358,-0.16759 -0.0101,-0.44983 -0.25268,-0.62719 -0.40103,-0.29324 -0.35073,-0.48172 0.55489,-2.07931 0.63356,-1.11765 1.14029,-1.72782 1.39277,-1.67707 0.22704,0.0456 0.37188,0.31877 0.33846,0.63826 -0.0321,0.30716 0.11816,0.70503 0.33399,0.88415 0.56543,0.46927 -0.0102,1.13904 -0.67378,0.78392 -0.62549,-0.33475 -0.9714,0.46428 -0.43376,1.00193 0.32775,0.32775 0.32024,0.47984 -0.0564,1.14198 -0.44251,0.7779 -0.93388,0.97898 -1.22828,0.50264 z M 47.635724,148.84095 c -0.10665,-0.27793 0.132,-0.54069 0.76544,-0.84276 0.94529,-0.45078 1.11893,-0.71615 0.65583,-1.00236 -0.39382,-0.24339 -0.32057,-0.58336 0.16591,-0.77004 0.25568,-0.0981 0.56637,0.0206 0.76512,0.29243 0.27629,0.37786 0.40559,0.39874 0.74168,0.11981 0.33912,-0.28145 0.45392,-0.25025 0.68787,0.18689 0.25069,0.4684 0.099,0.62641 -1.4136,1.47229 -1.89976,1.06241 -2.1474,1.11927 -2.36825,0.54374 z m 113.522936,-0.98927 c -0.40167,-0.30075 -0.39342,-0.39379 0.10393,-1.17188 0.33461,-0.52348 0.68496,-0.78966 0.92045,-0.69929 0.49831,0.19122 0.47972,0.442 -0.10394,1.40175 -0.41072,0.67537 -0.5503,0.74656 -0.92044,0.46942 z M 46.698214,147.1701 c -0.24205,-0.45228 -0.20467,-0.59662 0.2123,-0.81978 0.65635,-0.35126 1.02135,0.42883 0.46224,0.98794 -0.3313,0.3313 -0.41893,0.30945 -0.67454,-0.16816 z M 172.5638,147.1139 c -0.41921,-0.24443 -0.41342,-0.32549 0.0835,-1.16763 0.33792,-0.57274 0.67328,-0.85149 0.9135,-0.75931 0.20876,0.0801 0.37956,0.25789 0.37956,0.39507 0,0.24902 -0.75429,1.81783 -0.86669,1.80259 -0.0327,-0.004 -0.26207,-0.12625 -0.50983,-0.27072 z m -13.23523,-0.36163 c -0.3814,-0.27946 -0.40089,-0.41063 -0.11837,-0.79699 0.30238,-0.41354 0.3739,-0.41942 0.67588,-0.0556 0.20353,0.24524 0.25056,0.5619 0.11837,0.79699 -0.17991,0.31996 -0.3014,0.32995 -0.67588,0.0556 z m -108.065766,-2.26577 -1.33411,-2.28744 2.20848,-1.2562 c 1.21467,-0.69091 2.31481,-1.19048 2.44477,-1.11016 0.12996,0.0803 0.7681,1.08469 1.41809,2.23195 l 1.18181,2.08592 -2.29246,1.31168 -2.29246,1.31168 z m 3.06261,0.0893 c 0.66763,-0.3851 1.2581,-0.73691 1.31216,-0.7818 0.0772,-0.0641 -1.11849,-2.31444 -1.43915,-2.70854 -0.0547,-0.0673 -2.13104,1.02933 -2.70978,1.43113 -0.10409,0.0723 1.36725,2.75045 1.51385,2.75557 0.06,0.002 0.65529,-0.31126 1.32292,-0.69636 z m -1.22063,-1.12366 c -0.22716,-0.36375 -0.19141,-0.52518 0.16573,-0.74822 0.35714,-0.22304 0.52199,-0.17775 0.76409,0.20991 0.25255,0.40441 0.22241,0.54049 -0.16573,0.74822 -0.35495,0.18996 -0.54738,0.1371 -0.76409,-0.20991 z m -13.20072,2.57745 c -0.10358,-0.1676 0.0226,-0.45893 0.28031,-0.6474 0.43986,-0.32163 0.41835,-0.42442 -0.3503,-1.67364 -0.79677,-1.2949 -0.80468,-1.33859 -0.292,-1.61297 0.4119,-0.22044 0.56098,-0.19328 0.68289,0.1244 0.10363,0.27006 0.35658,0.35605 0.75396,0.25631 0.71983,-0.18067 1.09042,0.48867 0.52869,0.95487 -0.32208,0.26731 -0.31989,0.41553 0.0157,1.06454 0.5271,1.0193 0.4982,1.17516 -0.28401,1.53156 -0.84539,0.38518 -1.09838,0.38563 -1.33527,0.002 z m 130.899086,0.0691 c -0.21972,-0.13922 -0.29222,-0.43804 -0.18684,-0.77006 0.11736,-0.36977 0.025,-0.62493 -0.28992,-0.80118 -0.39177,-0.21925 -0.40833,-0.32343 -0.10878,-0.68436 0.27294,-0.32887 0.43711,-0.35622 0.7215,-0.12019 0.42789,0.35512 0.41788,0.36285 0.99228,-0.76649 0.3941,-0.77486 0.5003,-0.83285 1.02583,-0.56021 0.97867,0.50774 1.22327,0.78342 1.0638,1.19899 -0.0991,0.25825 -0.35751,0.34574 -0.73861,0.25009 -0.49023,-0.12304 -0.70362,0.0686 -1.30357,1.17094 -0.39456,0.72494 -0.73972,1.31625 -0.76701,1.31402 -0.0273,-0.002 -0.21121,-0.10643 -0.40868,-0.23155 z M 45.630944,145.30132 c -0.21287,-0.39774 -0.10133,-0.56632 0.63815,-0.96456 l 0.8961,-0.48258 -0.50173,-0.98346 c -0.43296,-0.84867 -0.44748,-1.00429 -0.10593,-1.13535 0.26765,-0.10271 0.34449,-0.3563 0.23732,-0.78329 -0.25803,-1.02805 0.54355,-1.09122 1.18153,-0.0931 0.49688,0.77735 0.50529,0.87136 0.10479,1.17125 -0.40228,0.30121 -0.39799,0.39562 0.0562,1.239 0.3997,0.74219 0.57909,0.86615 0.95911,0.66277 0.35198,-0.18837 0.53224,-0.12914 0.72968,0.23977 0.21935,0.40985 0.1164,0.55949 -0.62968,0.91527 -0.78106,0.37246 -0.93186,0.37717 -1.21346,0.0379 -0.2798,-0.33714 -0.43666,-0.31955 -1.20784,0.13547 -0.85207,0.50273 -0.89625,0.50431 -1.14424,0.041 z m -7.81665,-0.815 c -0.50007,-0.96702 -0.50085,-1.23124 -0.004,-1.42183 0.25667,-0.0985 0.53436,0.11841 0.79375,0.62001 0.50006,0.96703 0.50084,1.23124 0.004,1.42183 -0.25668,0.0985 -0.53436,-0.1184 -0.79375,-0.62001 z m 123.912986,0.0393 c -1.02941,-0.60437 -1.18968,-0.8009 -0.97131,-1.19111 0.2474,-0.44207 0.31093,-0.43817 1.17625,0.0724 0.7768,0.45832 0.9375,0.48035 1.06576,0.1461 0.17046,-0.4442 0.77532,-0.52566 1.01566,-0.13678 0.17695,0.28632 -0.56106,1.86745 -0.86189,1.84653 -0.1054,-0.007 -0.74641,-0.33904 -1.42447,-0.73713 z m -119.011406,-0.0267 c -0.20019,-0.37406 -0.16352,-0.53133 0.15214,-0.65246 0.50856,-0.19516 0.89731,0.0175 0.89731,0.49088 0,0.58195 -0.76171,0.69923 -1.04945,0.16158 z m 112.936416,0.1721 c -0.39036,-0.25036 -0.38212,-0.35381 0.0923,-1.15785 0.28651,-0.48561 0.63198,-0.88293 0.76769,-0.88293 0.50345,0 0.53441,0.8128 0.0591,1.55245 -0.39039,0.60756 -0.57789,0.70718 -0.9191,0.48833 z m 2.24334,-0.0584 c -0.0842,-0.21941 0.0544,-0.71551 0.30789,-1.10244 0.49511,-0.75564 0.48923,-0.76676 -0.82395,-1.55825 -0.30306,-0.18266 -0.40456,-0.44419 -0.28913,-0.745 0.16277,-0.42418 0.29033,-0.40232 1.50242,0.25738 0.7285,0.3965 1.32454,0.82961 1.32454,0.96247 0,0.41544 -1.36042,2.58475 -1.62094,2.58475 -0.13626,0 -0.31663,-0.17951 -0.40083,-0.39891 z m 9.76084,-0.34393 c -0.47295,-0.22632 -0.8599,-0.51423 -0.8599,-0.63979 0,-0.12557 0.43795,-0.98976 0.97323,-1.92044 0.8391,-1.45892 1.04067,-1.65602 1.46261,-1.43021 0.28022,0.14997 0.40937,0.3976 0.30218,0.57937 -0.10298,0.1746 -0.47171,0.77458 -0.81941,1.33328 -0.58819,0.94515 -0.60072,1.03883 -0.18005,1.34643 0.31202,0.22816 0.37916,0.45645 0.21668,0.73673 -0.21146,0.36476 -0.32305,0.36421 -1.09534,-0.005 z M 44.104774,142.61912 c -0.60673,-1.08003 -0.85274,-1.29917 -1.39778,-1.24513 -0.9348,0.0927 -0.84993,-0.58842 0.14577,-1.16995 l 0.80722,-0.47144 0.97871,1.70167 c 1.08991,1.89499 1.14958,2.13209 0.59056,2.3466 -0.26444,0.10148 -0.62286,-0.26882 -1.12448,-1.16175 z m 120.655696,-0.0383 c -0.52912,-0.32021 -0.79078,-0.65421 -0.6993,-0.89261 0.19407,-0.50574 0.59858,-0.47798 1.47718,0.10138 0.60717,0.40039 0.67219,0.54636 0.39687,0.89088 -0.29582,0.37016 -0.41517,0.36004 -1.17475,-0.0996 z m 8.49182,-1.19929 -2.14324,-1.23272 1.33352,-2.2864 1.33351,-2.28641 2.29723,1.31441 2.29724,1.31441 -1.22465,2.12506 c -0.67355,1.16878 -1.34293,2.16091 -1.48751,2.20471 -0.14457,0.0438 -1.22732,-0.47506 -2.4061,-1.15306 z m 2.89648,-1.41591 c 0.41428,-0.7376 0.71194,-1.3749 0.66146,-1.41622 -0.38176,-0.31242 -2.64446,-1.51932 -2.70249,-1.44146 -0.58443,0.78419 -1.51495,2.73627 -1.33366,2.79778 0.13211,0.0448 0.71645,0.3748 1.29853,0.73327 0.58208,0.35847 1.11787,0.65536 1.19063,0.65975 0.0728,0.004 0.47125,-0.59551 0.88553,-1.33312 z m -1.72648,-0.34864 c -0.34811,-0.25455 -0.36629,-0.39396 -0.099,-0.75948 0.26596,-0.36372 0.40734,-0.38688 0.75374,-0.12344 0.34719,0.26402 0.36558,0.40509 0.099,0.75948 -0.26039,0.34618 -0.4146,0.37143 -0.75375,0.12344 z m -138.158716,2.15333 c -0.20361,-0.32742 -0.78788,-1.32231 -1.29837,-2.21085 l -0.92817,-1.61554 2.30043,-1.31624 2.30044,-1.31624 1.33411,2.28743 1.33411,2.28744 -2.1794,1.23965 c -1.19867,0.68182 -2.24995,1.23966 -2.33618,1.23966 -0.0862,0 -0.32336,-0.26789 -0.52697,-0.59531 z m 2.16297,-1.43615 c 0.68076,-0.3897 1.278,-0.73754 1.32721,-0.77298 0.0699,-0.0504 -1.10848,-2.26288 -1.44752,-2.71781 -0.058,-0.0778 -2.32072,1.12905 -2.70248,1.44147 -0.0984,0.0806 1.35737,2.75714 1.49988,2.75759 0.0469,1.5e-4 0.64216,-0.31857 1.32291,-0.70827 z m -1.22633,-1.16265 c -0.25255,-0.4044 -0.22241,-0.54049 0.16573,-0.74821 0.68779,-0.36809 1.25854,0.54584 0.59836,0.95813 -0.35714,0.22304 -0.52199,0.17775 -0.76409,-0.20992 z m 124.238546,2.72848 c -0.79297,-0.49117 -0.82483,-0.55896 -0.50189,-1.06805 0.17353,-0.27354 0.38787,-0.24674 1.05786,0.13229 0.7928,0.44851 1.01981,1.12807 0.43621,1.30585 -0.14552,0.0443 -0.592,-0.12221 -0.99218,-0.37009 z m 8.87308,0.29358 c -0.2462,-0.0999 -0.24948,-0.24509 -0.0141,-0.62202 0.23764,-0.3805 0.41889,-0.43191 0.80129,-0.22726 0.39329,0.21048 0.43007,0.34176 0.18013,0.64291 -0.32879,0.39617 -0.44058,0.42002 -0.96733,0.20637 z m -121.696676,-2.3103 -0.79987,-1.39262 1.40443,-0.75971 1.40444,-0.75972 -0.55722,-0.90159 c -0.46188,-0.74734 -0.49409,-0.94155 -0.18827,-1.13521 0.53963,-0.34169 0.58958,-0.3156 1.0948,0.57209 0.34606,0.60806 0.58931,0.76983 0.97397,0.64774 0.40284,-0.12786 0.65835,0.0858 1.19238,0.99705 0.78338,1.33673 0.83255,1.65946 0.28488,1.86962 -0.26154,0.10036 -0.5408,-0.13566 -0.8274,-0.6993 -0.23793,-0.46793 -0.46667,-0.89007 -0.50829,-0.93808 -0.0416,-0.048 -0.41344,0.12032 -0.82625,0.37407 -0.41281,0.25375 -1.02577,0.62799 -1.36213,0.83164 l -0.61156,0.37028 0.53446,0.90585 c 0.50775,0.86058 0.5109,0.91846 0.063,1.15818 -0.395,0.21139 -0.60123,0.0264 -1.27135,-1.14029 z m 110.536426,0.65313 c -0.30557,-0.19349 -0.27195,-0.39056 0.19576,-1.14733 0.54766,-0.88613 0.54964,-0.92089 0.0654,-1.1514 -0.47406,-0.22567 -0.45937,-0.30767 0.29091,-1.62339 0.6787,-1.19021 0.85996,-1.34837 1.28475,-1.12103 0.48028,0.25704 0.47913,0.29083 -0.0399,1.17053 l -0.53446,0.90584 0.6777,0.41363 c 2.21918,1.35442 1.95066,1.32232 2.55095,0.30489 0.34429,-0.58352 0.68139,-0.86647 0.92221,-0.77405 0.20875,0.0801 0.37956,0.26053 0.37956,0.40095 0,0.33304 -1.32802,2.5985 -1.52325,2.5985 -0.0825,0 -0.67328,-0.30663 -1.31278,-0.68141 -1.23964,-0.72648 -1.72902,-0.6221 -2.06635,0.44072 -0.1777,0.55987 -0.34456,0.60926 -0.89052,0.26355 z m 6.26838,-0.0477 c -0.4184,-0.23414 -0.41198,-0.31717 0.0903,-1.16841 0.43228,-0.73266 0.6324,-0.86726 0.99827,-0.67145 0.3611,0.19325 0.55665,0.0772 0.92725,-0.55014 0.42906,-0.72634 0.43348,-0.83501 0.0511,-1.25749 -0.67934,-0.75066 -0.0284,-1.17011 1.00268,-0.64614 1.08537,0.55154 1.07818,0.54128 0.69923,0.99789 -0.27535,0.33179 -0.17608,0.48665 0.60881,0.94975 0.59675,0.35209 0.88484,0.69136 0.79216,0.93288 -0.18639,0.48572 -0.64546,0.48257 -1.29524,-0.009 -0.76545,-0.57896 -1.07497,-0.49189 -1.44737,0.40715 -0.27398,0.66144 -0.44944,0.78409 -0.94414,0.65993 -0.38357,-0.0963 -0.68597,-0.0125 -0.82013,0.22724 -0.15141,0.27055 -0.34203,0.30727 -0.66292,0.12769 z M 50.925034,139.7496 c -0.35127,-0.65635 0.42882,-1.02135 0.98793,-0.46224 0.3313,0.3313 0.30945,0.41893 -0.16816,0.67454 -0.45227,0.24205 -0.59661,0.20467 -0.81977,-0.2123 z m -6.19065,-0.14543 c -0.0904,-0.23548 0.17581,-0.58584 0.69929,-0.92044 0.78115,-0.4993 0.87015,-0.50691 1.17447,-0.10039 0.27887,0.37253 0.21812,0.51316 -0.39687,0.9187 -0.87826,0.57915 -1.2831,0.60714 -1.47689,0.10213 z m -1.89739,-1.21452 c -0.13235,-0.41698 -0.26523,-0.46819 -0.66281,-0.25542 -0.65973,0.35309 -1.22023,-0.48402 -0.61862,-0.92392 0.57852,-0.42303 0.18258,-1.2612 -0.43871,-0.92869 -0.38895,0.20816 -0.58173,0.0954 -1.02628,-0.60016 -0.50918,-0.7967 -0.51623,-0.87977 -0.10103,-1.19049 0.37426,-0.28007 0.49087,-0.25098 0.722,0.1801 0.20305,0.3787 0.38983,0.45016 0.70911,0.27128 0.50645,-0.28375 0.60785,-0.17565 1.76102,1.87734 0.79017,1.40674 0.80309,1.47809 0.32202,1.77852 -0.42118,0.26303 -0.52759,0.22974 -0.6667,-0.20856 z m 1.61703,-1.5026 c -0.24573,-0.51532 -0.41192,-0.96571 -0.36931,-1.00088 0.68158,-0.56238 2.40846,-1.43859 2.60087,-1.31968 0.49466,0.30572 0.24517,0.91133 -0.54345,1.31914 -0.64258,0.33229 -0.74936,0.504 -0.54772,0.88077 0.18642,0.34833 0.12976,0.54341 -0.22155,0.76281 -0.40294,0.25164 -0.53744,0.15765 -0.91884,-0.64216 z m 2.64556,0.52254 c -0.37079,-0.37079 -0.10466,-0.87944 0.6696,-1.27983 0.68413,-0.35378 0.86823,-0.36651 1.05429,-0.0729 0.12398,0.19562 0.22724,0.42292 0.22947,0.50511 0.007,0.24494 -1.78054,1.02049 -1.95336,0.84766 z m 115.000646,-0.0246 c -0.26455,-0.16799 -0.26455,-0.2985 0,-0.65247 0.40704,-0.5446 1.14723,-0.17972 0.90674,0.44698 -0.1798,0.46857 -0.41019,0.52078 -0.90674,0.20549 z m 8.54755,-0.0226 c -0.0818,-0.13239 -0.0769,-0.42786 0.0108,-0.65661 0.12113,-0.31565 0.27841,-0.35233 0.65247,-0.15214 0.28511,0.15259 0.42932,0.42936 0.34212,0.65662 -0.16704,0.43528 -0.77369,0.52708 -1.00542,0.15213 z m -7.30778,-1.71902 -2.26594,-1.34757 1.30916,-2.28176 1.30917,-2.28176 2.12592,1.22515 c 1.16926,0.67383 2.16263,1.34343 2.20747,1.48801 0.0448,0.14457 -0.48127,1.22646 -1.16914,2.40418 l -1.2507,2.14131 z m 2.74472,-1.51202 c 0.40884,-0.7411 0.7065,-1.3768 0.66145,-1.41267 -0.41009,-0.32662 -2.63796,-1.50745 -2.70096,-1.43158 -0.52521,0.63248 -1.52847,2.72897 -1.337,2.79388 0.13855,0.047 0.72815,0.3787 1.31023,0.73717 0.58209,0.35847 1.11787,0.65376 1.19063,0.65621 0.0728,0.002 0.4668,-0.60191 0.87565,-1.34301 z m -1.73791,-0.3508 c -0.36373,-0.26596 -0.38689,-0.40733 -0.12345,-0.75374 0.26402,-0.34718 0.40509,-0.36558 0.75948,-0.099 0.34618,0.26039 0.37144,0.4146 0.12344,0.75375 -0.25454,0.34811 -0.39396,0.36629 -0.75947,0.099 z m 7.09027,1.68597 c -0.67846,-0.42451 -0.83882,-0.44009 -1.19666,-0.11624 -0.51662,0.46753 -1.14374,0.12629 -0.90608,-0.49303 0.10599,-0.27623 0.008,-0.57935 -0.25069,-0.77259 -0.29973,-0.22422 -0.35058,-0.43508 -0.17238,-0.7149 0.21542,-0.33826 0.51053,-0.26011 1.99824,0.52917 2.0219,1.07268 2.06088,1.11209 1.63327,1.65137 -0.28774,0.36289 -0.40616,0.35392 -1.1057,-0.0838 z M 42.835264,134.15577 c -0.71144,-1.37578 0.20373,-1.89095 0.9691,-0.54552 0.31642,0.55624 0.35631,0.84587 0.14552,1.05666 -0.45212,0.45211 -0.6676,0.3533 -1.11462,-0.51114 z m 4.50682,-0.66923 c -0.66944,-1.14232 -0.73679,-1.96884 -0.16044,-1.96884 0.14187,0 0.46893,0.35719 0.72681,0.79375 0.53323,0.90268 0.78918,0.96299 1.6193,0.38155 0.32368,-0.22671 0.70736,-0.33875 0.85262,-0.24897 0.56153,0.34705 0.21293,0.86952 -1.0324,1.54731 l -1.29652,0.70566 -0.70937,-1.21047 z m -2.89857,-0.83003 c -0.0926,-0.24145 0.003,-0.61035 0.2123,-0.81977 0.33131,-0.3313 0.41894,-0.30945 0.67455,0.16816 0.24205,0.45227 0.20467,0.59661 -0.21231,0.81977 -0.39387,0.21079 -0.54343,0.17351 -0.67454,-0.16816 z m 3.87101,-1.77277 c -0.47983,-0.81324 -0.48365,-0.88669 -0.06,-1.15129 0.36902,-0.23046 0.5337,-0.14528 0.89208,0.46141 0.53874,0.91201 0.55198,1.22407 0.06,1.41288 -0.23867,0.0916 -0.56981,-0.17679 -0.89208,-0.723 z M 18.497623,129.6753 c 0.41319,-0.20121 37.994831,-10.23817 40.216661,-10.7407 l 0.52917,-0.11968 -0.52917,0.25816 c -0.4142,0.20207 -38.02626,10.24715 -40.216661,10.74068 l -0.52917,0.11923 z m 155.477797,-5.17448 c -11.11304,-2.96584 -20.28086,-5.47263 -20.37292,-5.57064 -0.0921,-0.098 0.0707,-0.11019 0.36178,-0.0271 0.29104,0.0831 9.33979,2.48291 20.10833,5.33283 17.68242,4.67969 21.21111,5.65966 20.37292,5.65788 -0.14552,-2.7e-4 -9.35707,-2.42716 -20.47011,-5.39301 z M 30.106954,112.42077 c -1.2719,-1.24148 -2.21663,-2.38207 -2.21663,-2.67622 0,-0.72047 3.91224,-4.68518 4.62318,-4.68518 1.39168,0 1.5712,1.3092 0.352,2.56709 l -0.84565,0.87249 h 5.62555 c 3.37186,0 5.83057,0.10973 6.13732,0.2739 0.57206,0.30615 0.68034,1.30378 0.19427,1.78985 -0.2277,0.2277 -1.96357,0.3175 -6.13732,0.3175 h -5.81982 l 0.84565,0.8725 c 0.97716,1.00816 1.12422,2.1348 0.33388,2.55778 -0.28147,0.15064 -0.59367,0.27389 -0.69378,0.27389 -0.10011,0 -1.1795,-0.97362 -2.39865,-2.1636 z m 137.747946,1.10527 c 0,-0.88195 0.0882,-1.05834 0.52917,-1.05834 0.44097,0 0.52917,0.17639 0.52917,1.05834 0,0.88194 -0.0882,1.05833 -0.52917,1.05833 -0.44097,0 -0.52917,-0.17639 -0.52917,-1.05833 z m 4.23334,0.52916 c 0,-0.35277 0.17639,-0.52916 0.52916,-0.52916 0.35278,0 0.52917,0.17639 0.52917,0.52916 0,0.35278 -0.17639,0.52917 -0.52917,0.52917 -0.35277,0 -0.52916,-0.17639 -0.52916,-0.52917 z m 2.11666,-0.52916 c 0,-0.88195 0.0882,-1.05834 0.52917,-1.05834 0.44097,0 0.52917,0.17639 0.52917,1.05834 0,0.88194 -0.0882,1.05833 -0.52917,1.05833 -0.44097,0 -0.52917,-0.17639 -0.52917,-1.05833 z m 3.175,0.52916 c 0,-0.35277 -0.17639,-0.52916 -0.52916,-0.52916 -0.48507,0 -0.52917,-0.17639 -0.52917,-2.11667 0,-1.94028 0.0441,-2.11667 0.52917,-2.11667 0.35277,0 0.52916,0.17639 0.52916,0.52917 0,0.35278 0.17639,0.52917 0.52917,0.52917 0.35278,0 0.52917,0.17639 0.52917,0.52916 0,0.35278 -0.17639,0.52917 -0.52917,0.52917 -0.35278,0 -0.52917,0.17639 -0.52917,0.52917 0,0.35277 0.17639,0.52916 0.52917,0.52916 0.44097,0 0.52917,0.17639 0.52917,1.05834 0,0.88194 -0.0882,1.05833 -0.52917,1.05833 -0.35278,0 -0.52917,-0.17639 -0.52917,-0.52917 z m 2.11667,-2.11666 v -2.64584 h 2.64583 2.64584 v 2.64584 2.64583 h -2.64584 -2.64583 z m 4.23333,0 v -1.5875 h -1.5875 -1.5875 v 1.5875 1.5875 h 1.5875 1.5875 z m -2.11666,0 c 0,-0.35278 0.17639,-0.52917 0.52916,-0.52917 0.35278,0 0.52917,0.17639 0.52917,0.52917 0,0.35277 -0.17639,0.52916 -0.52917,0.52916 -0.35277,0 -0.52916,-0.17639 -0.52916,-0.52916 z m -11.64167,0.52916 v -1.05833 h -1.05833 c -0.88195,0 -1.05834,-0.0882 -1.05834,-0.52917 0,-0.47037 0.17639,-0.52916 1.5875,-0.52916 h 1.5875 v 1.5875 c 0,1.41111 -0.0588,1.5875 -0.52916,1.5875 -0.44098,0 -0.52917,-0.17639 -0.52917,-1.05834 z m 2.11667,-1.5875 c 0,-0.44097 0.17639,-0.52916 1.05833,-0.52916 0.88194,0 1.05833,-0.0882 1.05833,-0.52917 0,-0.35278 0.17639,-0.52917 0.52917,-0.52917 0.44097,0 0.52917,0.17639 0.52917,1.05834 v 1.05833 h -1.5875 c -1.41111,0 -1.5875,-0.0588 -1.5875,-0.52917 z m -3.175,-2.64583 c 0,-0.88194 -0.0882,-1.05833 -0.52917,-1.05833 -0.47037,0 -0.52917,-0.17639 -0.52917,-1.5875 0,-1.41111 0.0588,-1.5875 0.52917,-1.5875 0.44097,0 0.52917,0.17639 0.52917,1.05833 v 1.05833 h 1.5875 1.5875 v -1.05833 c 0,-0.88194 0.0882,-1.05833 0.52916,-1.05833 0.47037,0 0.52917,0.17639 0.52917,1.5875 v 1.5875 h -1.5875 -1.5875 v 1.05833 c 0,0.88194 -0.0882,1.05833 -0.52917,1.05833 -0.44097,0 -0.52916,-0.17639 -0.52916,-1.05833 z m 2.11666,0.52917 c 0,-0.44098 0.17639,-0.52917 1.05834,-0.52917 0.88194,0 1.05833,0.0882 1.05833,0.52917 0,0.44097 -0.17639,0.52916 -1.05833,0.52916 -0.88195,0 -1.05834,-0.0882 -1.05834,-0.52916 z m 3.175,-1.05834 c 0,-0.44097 0.17639,-0.52916 1.05834,-0.52916 0.88194,0 1.05833,0.0882 1.05833,0.52916 0,0.44098 -0.17639,0.52917 -1.05833,0.52917 -0.88195,0 -1.05834,-0.0882 -1.05834,-0.52917 z m 3.175,-1.5875 c 0,-1.94027 0.0441,-2.11666 0.52917,-2.11666 0.47037,0 0.52917,0.17639 0.52917,1.5875 0,1.41111 0.0588,1.5875 0.52916,1.5875 0.35278,0 0.52917,0.17639 0.52917,0.52916 0,0.44098 -0.17639,0.52917 -1.05833,0.52917 h -1.05834 z m 4.23334,1.5875 c 0,-0.35277 -0.17639,-0.52916 -0.52917,-0.52916 -0.35278,0 -0.52917,-0.17639 -0.52917,-0.52917 0,-0.35278 0.17639,-0.52917 0.52917,-0.52917 0.44097,0 0.52917,-0.17639 0.52917,-1.05833 v -1.05833 h 1.05833 c 0.88194,0 1.05833,0.0882 1.05833,0.52916 0,0.35278 -0.17639,0.52917 -0.52916,0.52917 -0.47038,0 -0.52917,0.17639 -0.52917,1.5875 0,1.41111 -0.0588,1.5875 -0.52917,1.5875 -0.35277,0 -0.52916,-0.17639 -0.52916,-0.52917 z m 2.11666,-0.52916 c 0,-0.88195 0.0882,-1.05834 0.52917,-1.05834 0.44097,0 0.52917,0.17639 0.52917,1.05834 0,0.88194 -0.0882,1.05833 -0.52917,1.05833 -0.44097,0 -0.52917,-0.17639 -0.52917,-1.05833 z m -144.938736,-0.3175 c -0.54097,-0.54097 -0.35335,-1.34012 0.52815,-2.24959 l 0.84565,-0.8725 h -5.72154 c -4.84863,0 -5.78498,-0.0634 -6.13732,-0.41577 -0.22868,-0.22867 -0.41578,-0.62158 -0.41578,-0.87313 0,-1.01308 0.45504,-1.09235 6.27063,-1.09235 3.09959,0 5.63562,-0.0721 5.63562,-0.16024 0,-0.0881 -0.29765,-0.51399 -0.66145,-0.94634 -0.79188,-0.94109 -0.85657,-1.94538 -0.14969,-2.32369 0.28147,-0.15064 0.59368,-0.27389 0.69379,-0.27389 0.1001,0 1.17949,0.97362 2.39864,2.1636 1.38597,1.35281 2.21663,2.37142 2.21663,2.71818 0,0.72857 -3.91978,4.64322 -4.64929,4.64322 -0.2951,0 -0.67942,-0.14288 -0.85404,-0.3175 z M 174.2049,105.05937 c 0,-0.88194 0.0882,-1.05833 0.52917,-1.05833 0.44097,0 0.52917,-0.17639 0.52917,-1.05834 0,-0.88194 -0.0882,-1.05833 -0.52917,-1.05833 -0.35278,0 -0.52917,-0.17639 -0.52917,-0.52917 0,-0.44097 0.17639,-0.52916 1.05834,-0.52916 0.88194,0 1.05833,0.0882 1.05833,0.52916 0,0.44098 0.17639,0.52917 1.05833,0.52917 0.88195,0 1.05834,0.0882 1.05834,0.52917 0,0.44097 -0.17639,0.52916 -1.05834,0.52916 h -1.05833 v 1.05834 c 0,0.88194 -0.0882,1.05833 -0.52917,1.05833 -0.35277,0 -0.52916,0.17639 -0.52916,0.52917 0,0.35277 -0.17639,0.52916 -0.52917,0.52916 -0.44097,0 -0.52917,-0.17639 -0.52917,-1.05833 z m -4.23333,-0.52917 c 0,-0.35277 0.17639,-0.52916 0.52917,-0.52916 0.35277,0 0.52916,0.17639 0.52916,0.52916 0,0.35278 -0.17639,0.52917 -0.52916,0.52917 -0.35278,0 -0.52917,-0.17639 -0.52917,-0.52917 z m 9.525,0 c 0,-0.35277 0.17639,-0.52916 0.52917,-0.52916 0.35277,0 0.52916,0.17639 0.52916,0.52916 0,0.35278 -0.17639,0.52917 -0.52916,0.52917 -0.35278,0 -0.52917,-0.17639 -0.52917,-0.52917 z m -11.64167,-4.23333 v -2.64583 h 2.64584 2.64583 v 2.64583 2.64583 h -2.64583 -2.64584 z m 4.23334,0 v -1.5875 h -1.5875 -1.5875 v 1.5875 1.5875 h 1.5875 1.5875 z m -2.11667,0 c 0,-0.35278 0.17639,-0.52917 0.52917,-0.52917 0.35277,0 0.52916,0.17639 0.52916,0.52917 0,0.35278 -0.17639,0.52917 -0.52916,0.52917 -0.35278,0 -0.52917,-0.17639 -0.52917,-0.52917 z m 9.525,0 v -2.64583 h 2.64583 2.64584 v 2.64583 2.64583 h -2.64584 -2.64583 z m 4.23333,0 v -1.5875 h -1.5875 -1.5875 v 1.5875 1.5875 h 1.5875 1.5875 z m -2.11666,0 c 0,-0.35278 0.17639,-0.52917 0.52916,-0.52917 0.35278,0 0.52917,0.17639 0.52917,0.52917 0,0.35278 -0.17639,0.52917 -0.52917,0.52917 -0.35277,0 -0.52916,-0.17639 -0.52916,-0.52917 z m -4.23334,0 c 0,-0.35278 0.17639,-0.52917 0.52917,-0.52917 0.35278,0 0.52917,0.17639 0.52917,0.52917 0,0.35278 -0.17639,0.52917 -0.52917,0.52917 -0.35278,0 -0.52917,-0.17639 -0.52917,-0.52917 z m -2.11666,-1.05833 c 0,-0.35278 -0.17639,-0.52917 -0.52917,-0.52917 -0.35278,0 -0.52917,-0.17639 -0.52917,-0.52917 0,-0.48506 0.17639,-0.52916 2.11667,-0.52916 1.94028,0 2.11667,0.0441 2.11667,0.52916 0,0.44098 -0.17639,0.52917 -1.05834,0.52917 -0.88194,0 -1.05833,0.0882 -1.05833,0.52917 0,0.35277 -0.17639,0.52916 -0.52917,0.52916 -0.35277,0 -0.52916,-0.17639 -0.52916,-0.52916 z M 38.507604,88.25133 C 27.393924,85.28508 18.226113,82.77848 18.134683,82.6811 c -0.0914,-0.0974 0.0719,-0.10923 0.36294,-0.0263 0.29104,0.0829 9.339791,2.48244 20.108331,5.33234 17.66558,4.67522 21.21678,5.66153 20.37291,5.65839 -0.14552,-5.3e-4 -9.35759,-2.42792 -20.47126,-5.39416 z m 115.456676,5.17558 c 0.4142,-0.20207 38.02627,-10.24714 40.21666,-10.74068 l 0.52917,-0.11923 -0.52917,0.25769 c -0.41319,0.20121 -37.99483,10.23818 -40.21666,10.7407 l -0.52917,0.11969 z M 46.720484,81.367013 c -1.0668,-0.6135 -2.06268,-1.2385 -2.21308,-1.3889 -0.18822,-0.18821 0.12239,-0.96939 0.99647,-2.50608 l 1.26994,-2.23263 2.29024,1.33576 2.29024,1.33575 -1.30545,2.26329 c -0.718,1.24481 -1.32419,2.273407 -1.34709,2.285777 -0.0229,0.0123 -0.91447,-0.479477 -1.98127,-1.092967 z m 2.42829,-1.72637 c 0.41429,-0.7376 0.71195,-1.37114 0.66146,-1.40785 -0.48614,-0.35353 -2.66174,-1.50983 -2.7113,-1.44102 -0.36639,0.50877 -1.50706,2.66112 -1.4387,2.71472 0.27887,0.2187 2.49211,1.47115 2.60301,1.47302 0.0728,0.001 0.47125,-0.60126 0.88553,-1.33887 z m -1.71763,-0.33305 c -0.34618,-0.26039 -0.37144,-0.4146 -0.12345,-0.75375 0.25455,-0.34811 0.39396,-0.36629 0.75948,-0.099 0.36373,0.26596 0.38688,0.40734 0.12345,0.75375 -0.26402,0.34718 -0.4051,0.36557 -0.75948,0.099 z m -6.24273,-1.13522 c -1.43168,-0.81467 -1.61566,-1.0052 -1.38562,-1.43503 0.25825,-0.48255 0.28867,-0.48183 1.15155,0.0273 0.76941,0.45397 0.92851,0.47204 1.20652,0.13707 0.47084,-0.56733 1.10323,-0.22386 0.92144,0.50045 -0.10035,0.39983 -0.0135,0.65042 0.26201,0.75615 0.45657,0.1752 0.28769,0.97765 -0.20261,0.96269 -0.16633,-0.005 -1.04531,-0.43195 -1.95329,-0.94861 z m 10.19622,-1.44602 c -0.41899,-0.23647 -0.41323,-0.31737 0.0824,-1.15741 l 0.53288,-0.90316 -0.67771,-0.41362 c -2.21918,-1.35442 -1.95065,-1.32233 -2.55095,-0.3049 -0.34428,0.58352 -0.68138,0.86647 -0.9222,0.77406 -0.20876,-0.0801 -0.37956,-0.26054 -0.37956,-0.40096 0,-0.33304 1.32802,-2.59849 1.52325,-2.59849 0.0825,0 0.67328,0.30663 1.31278,0.6814 1.23964,0.72648 1.72902,0.6221 2.06634,-0.44071 0.1777,-0.55988 0.34457,-0.60926 0.89053,-0.26355 0.3052,0.19325 0.26939,0.3947 -0.20727,1.16594 -0.57522,0.93073 -0.57528,0.93261 -0.0376,1.10326 0.52799,0.16758 0.5247,0.19534 -0.167,1.4097 -0.929,1.63095 -0.94279,1.64364 -1.46587,1.34844 z m -15.06044,-1.38488 -2.28176,-1.30917 1.22514,-2.12593 c 0.67383,-1.16926 1.34344,-2.16262 1.48801,-2.20747 0.14458,-0.0448 1.22646,0.48127 2.40418,1.16915 l 2.14131,1.25069 -1.34756,2.26595 -1.34756,2.26595 z m 2.76053,-1.5351 c 0.40885,-0.74109 0.7065,-1.37303 0.66146,-1.4043 -0.57875,-0.40181 -2.65506,-1.49838 -2.70978,-1.43113 -0.31845,0.39136 -1.51643,2.64381 -1.43916,2.7059 0.27617,0.22192 2.4979,1.47942 2.61183,1.4783 0.0728,-8e-4 0.46681,-0.60767 0.87565,-1.34877 z m -1.74777,-0.30504 c -0.34718,-0.26402 -0.36557,-0.4051 -0.099,-0.75948 0.26039,-0.34618 0.4146,-0.37144 0.75375,-0.12345 0.34811,0.25455 0.36629,0.39396 0.099,0.75948 -0.26597,0.36373 -0.40734,0.38688 -0.75375,0.12345 z m 6.56067,2.52785 c -1.05723,-0.54394 -1.04945,-0.53252 -0.67245,-0.98679 0.27536,-0.33178 0.17609,-0.48665 -0.6088,-0.94974 -0.59676,-0.3521 -0.88485,-0.69137 -0.79216,-0.93289 0.18638,-0.48572 0.64545,-0.48256 1.29523,0.009 0.76546,0.57896 1.07498,0.49189 1.44737,-0.40714 0.27793,-0.67099 0.44576,-0.78502 0.96395,-0.65496 0.42421,0.10647 0.67697,0.0284 0.78036,-0.24106 0.11484,-0.29925 0.27543,-0.33296 0.6447,-0.13534 0.47587,0.25468 0.47424,0.29288 -0.0505,1.18222 -0.43366,0.73499 -0.6339,0.87 -0.99986,0.67414 -0.3611,-0.19326 -0.55665,-0.0772 -0.92725,0.55014 -0.43363,0.73407 -0.43676,0.83137 -0.0408,1.26885 0.67242,0.74302 -0.011,1.15295 -1.03976,0.62367 z m 125.354006,-0.49279 c -3.97498,-1.08656 -4.94608,-1.9086 -4.97507,-4.2114 -0.0159,-1.2639 0.44387,-1.83339 1.30559,-1.61711 0.6346,0.15927 1.09197,1.10116 0.66336,1.36606 -0.19192,0.11862 0.0365,0.64944 0.71659,1.66524 0.17398,0.25986 5.84772,1.60398 6.3705,1.50918 1.10591,-0.20054 1.60645,-1.1446 1.2853,-2.42417 -0.127,-0.50598 -0.5158,-0.72497 -2.10921,-1.18795 -1.82987,-0.53169 -1.9786,-0.63148 -2.34989,-1.5767 -0.21801,-0.555 -0.34,-1.06546 -0.27109,-1.13437 0.18311,-0.1831 4.34587,1.00025 5.06077,1.43864 0.90499,0.55495 1.71631,2.02245 1.77255,3.20615 0.0838,1.76371 -1.45357,3.42714 -3.44554,3.72805 -0.44646,0.0674 -2.21661,-0.26761 -4.02386,-0.76162 z m -128.187366,0.12858 c -0.50137,-0.28058 -0.35555,-1.03269 0.20021,-1.03269 0.48869,0 0.7195,0.44977 0.46458,0.90529 -0.15203,0.27166 -0.34198,0.30806 -0.66479,0.1274 z m 8.58804,0.10546 c -0.39498,-0.14798 -0.43766,-0.77624 -0.0682,-1.00456 0.14437,-0.0892 0.44321,-0.0611 0.66409,0.0625 0.32815,0.18364 0.34063,0.30166 0.0682,0.64534 -0.18335,0.23133 -0.48219,0.36485 -0.66409,0.2967 z m 111.720306,-2.31768 c -2.54481,-0.7024 -3.16495,-1.05721 -3.89411,-2.22795 -1.4722,-2.36378 -0.0139,-5.276164 2.83578,-5.663572 1.1596,-0.157641 7.09197,1.478653 7.75132,2.138002 0.85985,0.85985 1.22455,1.69181 1.24143,2.83201 0.0188,1.26581 -0.43583,1.83301 -1.29604,1.61712 -0.6346,-0.15928 -1.09197,-1.10117 -0.66336,-1.36607 0.19192,-0.11861 -0.0365,-0.64943 -0.71659,-1.66523 -0.17398,-0.25987 -5.84772,-1.60398 -6.3705,-1.50919 -1.10591,0.20055 -1.60645,1.1446 -1.2853,2.42418 0.12699,0.50598 0.5158,0.72496 2.10921,1.18795 1.83687,0.53372 1.97751,0.62872 2.35554,1.59109 0.22112,0.56292 0.32267,1.06902 0.22566,1.12468 -0.097,0.0557 -1.12887,-0.1617 -2.29304,-0.48302 z M 43.157214,71.917573 c -0.39798,-0.29857 -0.36513,-0.44298 0.36619,-1.60993 0.72173,-1.15163 0.75994,-1.31371 0.37597,-1.59448 -0.25391,-0.18566 -0.35873,-0.49158 -0.2582,-0.75356 0.15707,-0.4093 0.23419,-0.41003 1.07274,-0.0102 0.49692,0.23697 0.9035,0.53759 0.9035,0.66806 0,0.18557 -1.70981,3.28788 -1.96463,3.56466 -0.0321,0.0349 -0.25512,-0.0842 -0.49557,-0.26459 z m 7.15702,-0.68291 c -1.07945,-0.65147 -0.82775,-1.74277 0.25865,-1.12139 1.00252,0.57341 1.1421,0.73988 0.97831,1.16673 -0.20223,0.52698 -0.29422,0.52361 -1.23696,-0.0453 z m 6.28251,-14.660187 -15.08037,-15.147396 15.14739,15.080379 c 8.33107,8.294209 15.1474,15.110534 15.1474,15.147394 0,0.18579 -1.19651,-1.00017 -15.21442,-15.080377 z m 99.219616,0.06614 c 8.29373,-8.294687 15.13904,-15.081249 15.2118,-15.081249 0.0728,0 -6.65349,6.786562 -14.94722,15.081249 -8.29372,8.294688 -15.13904,15.081247 -15.2118,15.081247 -0.0728,0 6.65349,-6.786559 14.94722,-15.081247 z M 53.744404,70.731603 c -0.6863,-0.37742 -1.24783,-0.79382 -1.24783,-0.92534 0,-0.41364 1.3613,-2.58231 1.62095,-2.58231 0.47846,0 0.54954,0.8045 0.12794,1.44794 -0.55715,0.85032 -0.55664,0.85215 0.36778,1.33019 0.75403,0.38992 1.03621,1.00954 0.58637,1.28756 -0.11406,0.0705 -0.76891,-0.18063 -1.45521,-0.55804 z m -12.4748,0.10998 c -0.41354,-0.30239 -0.41942,-0.37391 -0.0556,-0.67589 0.24525,-0.20353 0.5619,-0.25056 0.797,-0.11837 0.31996,0.17991 0.32995,0.3014 0.0556,0.67588 -0.27946,0.38141 -0.41063,0.40089 -0.79699,0.11838 z m 5.62577,-0.38284 c -0.5464,-0.36036 -0.64989,-0.56689 -0.45689,-0.91176 0.2308,-0.41242 0.31741,-0.40581 1.15448,0.0881 0.57275,0.33793 0.8515,0.67328 0.75932,0.9135 -0.19247,0.50154 -0.59818,0.47653 -1.45691,-0.0898 z m -7.82088,-0.84728 c -0.99075,-0.60408 -0.95009,-1.4742 0.0571,-1.22142 0.48976,0.12292 0.70312,-0.0677 1.29698,-1.15883 0.50491,-0.927678 0.82857,-1.260754 1.11743,-1.149912 0.27364,0.105008 0.35643,0.356063 0.25313,0.767638 -0.10479,0.417504 -0.0101,0.691874 0.29855,0.864574 0.38279,0.21422 0.39791,0.31821 0.0987,0.67872 -0.27294,0.32887 -0.43711,0.35622 -0.7215,0.1202 -0.4277,-0.35497 -0.41817,-0.36231 -0.98998,0.76204 -0.24052,0.47294 -0.46402,0.85945 -0.49667,0.85891 -0.0326,-5.3e-4 -0.44382,-0.23541 -0.91372,-0.52192 z m 16.43344,-0.38943 c -0.0809,-0.21075 0.0611,-0.73556 0.31552,-1.16624 0.37868,-0.64105 0.54465,-0.73181 0.91514,-0.50043 0.42326,0.26433 0.41881,0.33984 -0.0688,1.16624 -0.56139,0.95147 -0.92818,1.10945 -1.16189,0.50043 z m -5.06982,-0.41154 c -0.74305,-0.45386 -0.88979,-0.47288 -1.0205,-0.13227 -0.17179,0.4477 -0.77597,0.53144 -1.01728,0.141 -0.15571,-0.25196 0.54033,-1.859852 0.80512,-1.859852 0.0742,0 0.72433,0.336662 1.44479,0.748132 1.13737,0.64958 1.26684,0.80642 0.98282,1.1906 -0.30338,0.41039 -0.39006,0.40403 -1.19495,-0.0876 z m -3.87991,-1.0335 c -0.0818,-0.13238 -0.0834,-0.41097 -0.004,-0.619063 0.0799,-0.2081 -0.0403,-0.532296 -0.26698,-0.720439 -0.58124,-0.482383 -0.0246,-1.163516 0.65401,-0.800322 0.62549,0.334751 0.97141,-0.464286 0.43376,-1.001935 -0.32775,-0.32775 -0.32024,-0.480531 0.0564,-1.147228 0.50124,-0.887209 1.22827,-0.899782 1.22827,-0.02125 0,0.329219 0.15316,0.693888 0.34035,0.810377 0.25892,0.161131 0.10069,0.633285 -0.66146,1.97373 -0.94404,1.66035 -1.43683,2.08266 -1.7808,1.52612 z m -7.81027,-0.806036 c -0.3364,-0.212767 -0.3277,-0.369649 0.0663,-1.195816 0.39182,-0.82165 0.52389,-0.913228 0.97154,-0.67365 0.51262,0.274344 0.51234,0.287009 -0.0263,1.199867 -0.29939,0.507428 -0.56235,0.920775 -0.58435,0.918545 -0.022,-0.002 -0.21425,-0.114254 -0.4272,-0.248946 z m 3.41291,-1.706731 -2.26595,-1.347563 1.30917,-2.281761 1.30917,-2.281759 2.12592,1.225145 c 1.16926,0.673828 2.16262,1.343433 2.20747,1.488009 0.0448,0.144576 -0.48127,1.226457 -1.16915,2.404179 l -1.25069,2.141312 z m 2.74471,-1.512015 c 0.40885,-0.741098 0.7065,-1.376802 0.66146,-1.412676 -0.4101,-0.326618 -2.63796,-1.507445 -2.70096,-1.431579 -0.52521,0.632487 -1.52847,2.728968 -1.337,2.793886 0.13854,0.04698 0.72815,0.378699 1.31023,0.737169 0.58209,0.358468 1.11787,0.653762 1.19063,0.656207 0.0728,0.0024 0.4668,-0.601906 0.87564,-1.343007 z m -1.73791,-0.350798 c -0.36372,-0.265964 -0.38688,-0.407339 -0.12344,-0.753747 0.26402,-0.347181 0.40509,-0.365572 0.75948,-0.09901 0.34618,0.260389 0.37143,0.414602 0.12344,0.753747 -0.25455,0.348115 -0.39396,0.36629 -0.75948,0.09902 z m 9.36026,2.934245 c -0.20354,-0.245245 -0.25057,-0.561895 -0.11837,-0.796993 0.17991,-0.319961 0.3014,-0.329949 0.67588,-0.05557 0.3814,0.279456 0.40089,0.410634 0.11837,0.796992 -0.30239,0.413541 -0.37391,0.41942 -0.67588,0.05557 z m -2.39811,-0.156382 c -0.32735,-0.206351 -0.31055,-0.374483 0.11675,-1.167918 0.41306,-0.767019 0.58226,-0.882383 0.98108,-0.668941 0.35815,0.191678 0.41809,0.373994 0.23337,0.709835 -0.58181,1.057809 -0.94851,1.368261 -1.3312,1.127024 z m 43.28306,-7.600486 c -0.0783,-0.265629 -2.47697,-9.293585 -5.33027,-20.062127 -2.85331,-10.768541 -5.25565,-19.817291 -5.33854,-20.108333 -0.0829,-0.291042 -0.0712,-0.454496 0.0261,-0.363233 0.22667,0.212793 11.02027,40.781602 10.88595,40.91592 -0.0554,0.0554 -0.16483,-0.116599 -0.24318,-0.382227 z M 119.02388,58.625 c 0.50253,-2.22183 10.53949,-39.803472 10.74071,-40.216666 l 0.25769,-0.529167 -0.11924,0.529167 c -0.49353,2.190399 -10.5386,39.802461 -10.74068,40.216666 l -0.25816,0.529167 z m -52.161476,-3.824904 -1.31167,-2.292461 2.28743,-1.334114 2.28743,-1.334113 1.2562,2.208485 c 0.69091,1.214665 1.19048,2.31481 1.11017,2.444766 -0.0803,0.129955 -1.0847,0.768096 -2.23196,1.418089 l -2.08592,1.181807 z m 3.07343,0.08202 c 0.66762,-0.385099 1.25413,-0.732939 1.30334,-0.772978 0.0683,-0.05559 -1.06956,-2.20477 -1.4387,-2.717358 -0.0496,-0.06881 -2.22516,1.087488 -2.71131,1.441016 -0.11067,0.08049 1.36825,2.748844 1.52375,2.749227 0.06,1.48e-4 0.65529,-0.314809 1.32292,-0.699907 z m -1.27324,-1.102524 c -0.3681,-0.687785 0.54583,-1.258541 0.95812,-0.598361 0.22304,0.357143 0.17776,0.521989 -0.20991,0.76409 -0.4044,0.252553 -0.54049,0.222409 -0.74821,-0.165729 z m 74.652206,2.789002 c -0.47294,-0.278215 -0.8599,-0.617683 -0.8599,-0.754378 0,-0.505248 0.81209,-0.536861 1.56386,-0.06087 0.6372,0.403447 0.71978,0.564192 0.46531,0.905796 -0.27865,0.374052 -0.39478,0.365061 -1.16927,-0.09054 z m -2.53074,-1.422424 c -0.21454,-0.214538 1.13787,-2.738877 1.46734,-2.738877 0.41544,0 2.58475,1.360419 2.58475,1.620946 0,0.478457 -0.80449,0.54954 -1.44794,0.127937 -0.85031,-0.557147 -0.85214,-0.556641 -1.33018,0.367784 -0.38929,0.752792 -0.89594,1.000244 -1.27397,0.62221 z M 73.303784,53.335422 c -0.10037,-0.261543 0.13566,-0.540803 0.69929,-0.827399 0.46794,-0.237938 0.89007,-0.46667 0.93808,-0.508297 0.048,-0.04163 -0.10082,-0.383675 -0.33073,-0.760103 -0.22991,-0.376428 -0.60415,-0.989383 -0.83164,-1.362125 l -0.41362,-0.677709 -0.90585,0.534461 c -0.86057,0.507754 -0.91846,0.510903 -1.15817,0.06299 -0.2114,-0.394997 -0.0264,-0.601229 1.14028,-1.271355 l 1.39262,-0.799875 0.75971,1.404435 0.75972,1.404435 0.90159,-0.557213 c 0.74735,-0.461886 0.94156,-0.494096 1.13521,-0.188272 0.3417,0.539631 0.3156,0.589574 -0.57209,1.094793 -0.60806,0.346069 -0.76982,0.589311 -0.64774,0.973973 0.12786,0.402844 -0.0858,0.658347 -0.99704,1.192379 -1.33674,0.783379 -1.65946,0.832554 -1.86962,0.284885 z m 63.135196,-0.714401 c -1.19021,-0.678707 -1.34838,-0.859965 -1.12103,-1.284753 0.25704,-0.480283 0.29083,-0.479132 1.17053,0.0399 l 0.90584,0.53446 0.37029,-0.611563 c 0.20365,-0.336362 0.57225,-0.940715 0.81911,-1.343009 0.44767,-0.729554 0.44645,-0.732848 -0.47088,-1.274085 -0.58352,-0.344286 -0.86647,-0.681387 -0.77405,-0.922203 0.0801,-0.208758 0.26053,-0.37956 0.40095,-0.37956 0.33304,0 2.5985,1.328018 2.5985,1.523248 0,0.08253 -0.30663,0.67328 -0.68141,1.312781 -0.72648,1.239642 -0.6221,1.72902 0.44072,2.066345 0.55987,0.1777 0.60926,0.344565 0.26355,0.890527 -0.19349,0.30557 -0.39056,0.271944 -1.14733,-0.195765 -0.88613,-0.547659 -0.92089,-0.549635 -1.1514,-0.06542 -0.22567,0.474065 -0.30767,0.459373 -1.62339,-0.290901 z m 9.34104,0.49348 c -0.41354,-0.302387 -0.41942,-0.37391 -0.0556,-0.675881 0.24524,-0.203536 0.5619,-0.250566 0.79699,-0.118372 0.31996,0.179911 0.32995,0.3014 0.0556,0.675881 -0.27946,0.381402 -0.41063,0.400886 -0.79699,0.118372 z M 72.362794,51.655519 c -0.24205,-0.452273 -0.20467,-0.596614 0.21231,-0.819772 0.65635,-0.351268 1.02134,0.428821 0.46223,0.987931 -0.3313,0.3313 -0.41893,0.309454 -0.67454,-0.168159 z m 70.796836,-0.08654 c -0.44272,-0.247753 -0.43887,-0.310777 0.0719,-1.176504 0.45832,-0.776798 0.48035,-0.937498 0.1461,-1.06576 -0.4442,-0.170458 -0.52566,-0.775319 -0.13678,-1.015661 0.25196,-0.155718 1.85986,0.540326 1.85986,0.805113 0,0.07418 -0.3315,0.715307 -0.73667,1.424729 -0.61788,1.081865 -0.8121,1.247648 -1.20444,1.028083 z M 64.027484,49.914686 c -1.06241,-1.899759 -1.11926,-2.147401 -0.54373,-2.368251 0.27793,-0.106651 0.54068,0.131998 0.84275,0.765442 0.45078,0.94529 0.71616,1.118923 1.00236,0.655828 0.2434,-0.393819 0.58336,-0.320575 0.77004,0.165909 0.0981,0.255681 -0.0206,0.566373 -0.29243,0.765117 -0.37785,0.276291 -0.39874,0.405591 -0.11981,0.741683 0.28145,0.339119 0.25026,0.453922 -0.18689,0.687874 -0.4684,0.250682 -0.62641,0.09897 -1.47229,-1.413602 z m 76.629156,1.473131 c -0.27351,-0.173501 -0.24669,-0.38689 0.13229,-1.052608 0.47881,-0.841073 0.96725,-1.062162 1.26876,-0.574297 0.15885,0.257025 -0.63432,1.856664 -0.9166,1.848575 -0.0778,-0.0021 -0.29577,-0.101981 -0.48445,-0.22167 z m 5.84786,-0.325718 c -0.52348,-0.334608 -0.78966,-0.684959 -0.69929,-0.920443 0.19122,-0.498317 0.442,-0.479722 1.40175,0.103933 0.67537,0.410718 0.74656,0.550299 0.46942,0.920443 -0.30075,0.401667 -0.39379,0.393417 -1.17188,-0.103933 z m -14.66573,-1.12063 -2.28176,-1.309169 1.22514,-2.125924 c 0.67383,-1.16926 1.34344,-2.162622 1.48801,-2.207469 0.14458,-0.04485 1.22646,0.481269 2.40418,1.169149 l 2.14131,1.25069 -1.34756,2.265945 -1.34756,2.265945 z m 2.76053,-1.535091 c 0.40884,-0.741098 0.7065,-1.373037 0.66146,-1.404308 -0.57875,-0.401804 -2.65506,-1.498377 -2.70978,-1.431128 -0.31845,0.391361 -1.51643,2.643809 -1.43916,2.705901 0.27617,0.221925 2.4979,1.479423 2.61183,1.478296 0.0728,-7.94e-4 0.46681,-0.60766 0.87565,-1.348761 z m -1.74777,-0.305046 c -0.34718,-0.264022 -0.36557,-0.405096 -0.099,-0.759479 0.26039,-0.34618 0.4146,-0.371438 0.75374,-0.123446 0.34812,0.254547 0.36629,0.393959 0.099,0.759478 -0.26597,0.363728 -0.40734,0.386882 -0.75375,0.123447 z m -54.518176,1.157354 -0.70565,-1.296517 1.21046,-0.709377 c 1.14231,-0.669441 1.96883,-0.73679 1.96883,-0.160433 0,0.141862 -0.35719,0.468924 -0.79375,0.726808 -0.90268,0.533225 -0.96299,0.789175 -0.38155,1.619298 0.22671,0.323675 0.33875,0.707355 0.24897,0.852619 -0.34705,0.561534 -0.86951,0.212932 -1.54731,-1.032398 z m 58.245486,1.006284 c -0.50137,-0.28058 -0.35555,-1.032682 0.20021,-1.032682 0.48869,0 0.7195,0.449763 0.46458,0.905291 -0.15203,0.27165 -0.34198,0.308049 -0.66479,0.127391 z M 67.237664,49.107185 c -0.37246,-0.781058 -0.37716,-0.93186 -0.0379,-1.213456 0.33714,-0.279797 0.31954,-0.436655 -0.13547,-1.207844 -0.50273,-0.852069 -0.50431,-0.896249 -0.041,-1.144235 0.39774,-0.212863 0.56632,-0.10133 0.96456,0.638151 l 0.48258,0.896099 0.98346,-0.501727 c 0.84866,-0.432956 1.00428,-0.447477 1.13534,-0.105931 0.10271,0.267657 0.3563,0.34449 0.78329,0.23732 1.02805,-0.258024 1.09122,0.543555 0.0931,1.181537 -0.77735,0.496877 -0.87136,0.505288 -1.17125,0.104785 -0.30121,-0.402275 -0.39562,-0.397994 -1.239,0.0562 -0.74218,0.399696 -0.86615,0.579086 -0.66276,0.959115 0.18837,0.351972 0.12913,0.532238 -0.23978,0.729673 -0.40985,0.219348 -0.55948,0.116401 -0.91527,-0.629682 z m 13.48029,0.01013 c -0.0916,-0.238668 0.1768,-0.56981 0.72301,-0.89208 0.81324,-0.479822 0.88669,-0.483648 1.15129,-0.05996 0.23046,0.36902 0.14528,0.533699 -0.46141,0.89208 -0.91202,0.538742 -1.22408,0.551984 -1.41289,0.05995 z m 64.974686,-0.901706 c -1.6499,-0.963509 -2.12553,-1.82727 -0.93777,-1.703019 0.30716,0.03213 0.70503,-0.118166 0.88415,-0.333992 0.46927,-0.565433 1.13904,0.01024 0.78392,0.673778 -0.33475,0.625488 0.46428,0.971404 1.00193,0.433755 0.32775,-0.32775 0.48053,-0.320236 1.14723,0.05643 0.89267,0.504325 0.90217,1.260306 0.0146,1.163674 -0.3304,-0.03597 -0.66059,0.110596 -0.74506,0.33073 -0.19748,0.514622 -0.21001,0.511 -2.14903,-0.621351 z M 75.184594,48.06862 c -0.23581,-0.494495 -0.35708,-0.970745 -0.26949,-1.058333 0.37079,-0.37079 0.87945,-0.104661 1.27984,0.669607 0.35377,0.684123 0.36651,0.868225 0.0729,1.054283 -0.54633,0.34625 -0.62336,0.298926 -1.08329,-0.665557 z m 66.212566,0.111292 c -0.34665,-0.219136 -0.33382,-0.366519 0.10238,-1.176491 0.41265,-0.766257 0.5818,-0.881481 0.98064,-0.668025 0.46204,0.247274 0.45946,0.296119 -0.0624,1.180541 -0.29939,0.507429 -0.56235,0.920774 -0.58435,0.918546 -0.022,-0.0021 -0.21834,-0.116787 -0.4363,-0.254571 z M 64.947304,47.266365 c -0.25094,-0.302368 -0.20651,-0.435983 0.22108,-0.664821 0.43563,-0.233143 0.58551,-0.192291 0.80599,0.219684 0.20822,0.389069 0.1752,0.542782 -0.14282,0.664821 -0.54604,0.209534 -0.52335,0.215172 -0.88425,-0.219684 z m 74.137006,-0.471453 c -0.68145,-0.412208 -0.80674,-0.612476 -0.61144,-0.977384 0.19415,-0.362781 0.079,-0.557353 -0.54942,-0.92859 -0.72634,-0.429058 -0.83501,-0.433477 -1.25749,-0.05113 -0.75066,0.679336 -1.17011,0.02842 -0.64614,-1.002689 0.55154,-1.085366 0.54128,-1.078179 0.99789,-0.69923 0.33179,0.27536 0.48665,0.176088 0.94975,-0.608806 0.35209,-0.596752 0.69136,-0.884841 0.93288,-0.79216 0.48572,0.186388 0.48257,0.645459 -0.009,1.295236 -0.57896,0.765455 -0.49189,1.074978 0.40715,1.447371 0.66144,0.273979 0.78409,0.449448 0.65993,0.944139 -0.0987,0.393412 -0.0111,0.686737 0.24852,0.832044 0.3275,0.183279 0.33991,0.300995 0.0677,0.642032 -0.30142,0.377595 -0.41547,0.367935 -1.19041,-0.10083 z M 61.928154,46.255726 c -0.20361,-0.327422 -0.78787,-1.322306 -1.29837,-2.210851 l -0.92817,-1.615535 2.30043,-1.316241 2.30044,-1.316241 1.33411,2.287431 1.33412,2.287434 -2.1794,1.239658 c -1.19868,0.681812 -2.24996,1.239657 -2.33618,1.239657 -0.0862,0 -0.32337,-0.26789 -0.52698,-0.595312 z m 2.16298,-1.436151 c 0.68075,-0.389699 1.278,-0.737539 1.32721,-0.772977 0.0699,-0.05036 -1.10848,-2.262878 -1.44753,-2.717808 -0.058,-0.07785 -2.32072,1.129048 -2.70248,1.441468 -0.0984,0.08056 1.35737,2.757144 1.49988,2.757594 0.0468,1.48e-4 0.64216,-0.318575 1.32292,-0.708277 z m -1.22634,-1.162642 c -0.25255,-0.404403 -0.2224,-0.540491 0.16573,-0.748216 0.68779,-0.368091 1.25855,0.545838 0.59837,0.958128 -0.35715,0.223041 -0.52199,0.177755 -0.7641,-0.209912 z m 9.84308,2.247968 c -0.43615,-0.809884 -0.44899,-0.957267 -0.10238,-1.175607 0.2802,-0.176506 0.49885,-0.115443 0.74641,0.208452 0.79764,1.043623 0.8643,1.35277 0.35094,1.627516 -0.41696,0.223147 -0.57602,0.117573 -0.99497,-0.660361 z m 3.7312,0.147945 c -0.33229,-0.642578 -0.50401,-0.749361 -0.88078,-0.547719 -0.34833,0.18642 -0.5434,0.129759 -0.76281,-0.221557 -0.25164,-0.402939 -0.15764,-0.537432 0.64216,-0.918832 0.51532,-0.245737 0.96572,-0.411927 1.00088,-0.369311 0.56238,0.681575 1.4386,2.408455 1.31968,2.60087 -0.30572,0.49466 -0.91133,0.245163 -1.31913,-0.543451 z m 71.148636,-0.450461 -2.14324,-1.232718 1.33351,-2.286405 1.33352,-2.286404 2.29723,1.314407 2.29723,1.314411 -1.22464,2.125059 c -0.67355,1.168783 -1.34293,2.160905 -1.48751,2.204712 -0.14458,0.04381 -1.22732,-0.475067 -2.4061,-1.153062 z m 2.89648,-1.415907 c 0.41428,-0.737608 0.71194,-1.374908 0.66146,-1.41622 -0.38176,-0.31242 -2.64447,-1.519319 -2.70249,-1.441468 -0.58443,0.784193 -1.51496,2.73627 -1.33366,2.797789 0.13211,0.04482 0.71644,0.374795 1.29853,0.733266 0.58208,0.358468 1.11786,0.655357 1.19062,0.659749 0.0728,0.0044 0.47126,-0.595508 0.88554,-1.333116 z m -1.72648,-0.348642 c -0.34812,-0.254548 -0.36629,-0.393959 -0.099,-0.759478 0.26597,-0.363728 0.40734,-0.386882 0.75375,-0.123447 0.34718,0.264022 0.36557,0.405096 0.099,0.759479 -0.26039,0.34618 -0.4146,0.371437 -0.75375,0.123446 z m -80.213886,1.302126 c -0.10147,-0.264441 0.26882,-0.622853 1.16176,-1.124479 1.08002,-0.606727 1.29916,-0.852736 1.24512,-1.397778 -0.0927,-0.934797 0.58843,-0.849934 1.16995,0.145767 l 0.47144,0.807225 -1.70166,0.978712 c -1.895,1.089904 -2.13209,1.149572 -2.34661,0.590553 z m 10.95621,-0.111197 c -0.35127,-0.656351 0.42882,-1.021344 0.98793,-0.462237 0.3313,0.331303 0.30945,0.418933 -0.16816,0.674544 -0.45228,0.242049 -0.59662,0.204669 -0.81977,-0.212307 z m 62.028826,-0.464613 c -0.87312,-0.51925 -1.61603,-0.969955 -1.65091,-1.001565 -0.0349,-0.03161 0.0842,-0.254209 0.26458,-0.494667 0.29858,-0.397978 0.44299,-0.36513 1.60994,0.366194 1.15162,0.721728 1.31371,0.759944 1.59448,0.375967 0.18566,-0.253907 0.49157,-0.358724 0.75355,-0.258193 0.40931,0.157064 0.41004,0.234185 0.0102,1.072732 -0.23697,0.496927 -0.55762,0.89903 -0.71257,0.893564 -0.15495,-0.0055 -0.9961,-0.434782 -1.86923,-0.954032 z M 77.657794,43.86059 c -0.45212,-0.452117 -0.3533,-0.667594 0.51114,-1.114612 1.37578,-0.711444 1.89095,0.203726 0.54552,0.969092 -0.55624,0.316425 -0.84587,0.356311 -1.05666,0.14552 z m 27.543776,0.02711 c -0.46757,-0.467569 -0.38637,-1.390237 0.16636,-1.890451 0.62888,-0.569132 1.18075,-0.554418 1.72409,0.04597 0.87487,0.966716 0.38557,2.161979 -0.88503,2.161979 -0.37836,0 -0.83079,-0.142875 -1.00542,-0.3175 z M 73.726494,43.414403 c -0.26304,-0.42118 -0.22975,-0.527593 0.20856,-0.666703 0.41698,-0.132347 0.46818,-0.265229 0.25541,-0.662807 -0.35308,-0.659736 0.48402,-1.22023 0.92393,-0.618628 0.42302,0.578525 1.26119,0.182584 0.92869,-0.438706 -0.20816,-0.38895 -0.0954,-0.581726 0.60016,-1.026284 0.79669,-0.509177 0.87977,-0.516229 1.19048,-0.101026 0.28007,0.374256 0.25098,0.490871 -0.1801,0.722003 -0.3787,0.203047 -0.45016,0.389829 -0.27128,0.709105 0.28375,0.506454 0.17565,0.607853 -1.87734,1.761024 -1.40674,0.790167 -1.47808,0.803087 -1.77851,0.322022 z m -6.2428,-0.13121 c -0.0872,-0.227253 0.057,-0.504021 0.34212,-0.656611 0.37406,-0.200192 0.53134,-0.163518 0.65246,0.152133 0.0878,0.228748 0.0926,0.524224 0.0109,0.656611 -0.23173,0.374949 -0.83838,0.283154 -1.00541,-0.152133 z m 65.776936,0.208063 c -0.49891,-0.186912 -0.41596,-0.502864 0.61685,-2.349704 0.8243,-1.473985 1.01219,-1.659842 1.44425,-1.428609 0.484,0.259032 0.48333,0.288433 -0.0262,1.152104 -0.45397,0.769414 -0.47205,0.928515 -0.13707,1.206524 0.54042,0.448508 0.22459,1.133763 -0.4272,0.926891 -0.30938,-0.09819 -0.64237,-0.0072 -0.82856,0.226263 -0.17121,0.214739 -0.46013,0.33468 -0.64203,0.266531 z m 8.07627,-1.513951 c -0.3814,-0.279456 -0.40088,-0.410633 -0.11837,-0.796991 0.30239,-0.413541 0.37391,-0.41942 0.67588,-0.05557 0.20354,0.245245 0.25057,0.561896 0.11837,0.796994 -0.17991,0.31996 -0.3014,0.329949 -0.67588,0.05557 z m 2.19589,0.0024 c -0.2118,-0.255206 -0.22205,-0.427569 -0.0324,-0.544782 0.47774,-0.295262 0.3089,-0.556384 -0.65785,-1.017397 -0.85091,-0.405768 -0.90742,-0.4997 -0.62635,-1.041191 0.51287,-0.988108 0.78723,-1.232609 1.20378,-1.072764 0.25825,0.0991 0.34574,0.357508 0.25009,0.738611 -0.12292,0.489757 0.0677,0.70312 1.15883,1.29698 0.92768,0.504907 1.26076,0.828571 1.14992,1.117425 -0.10679,0.278291 -0.35533,0.356619 -0.78745,0.248163 -0.43061,-0.108077 -0.68064,-0.03019 -0.7862,0.244901 -0.19303,0.503039 -0.47186,0.512644 -0.87237,0.03005 z m -77.283976,-0.96433 c -0.26222,-0.633063 -0.26532,-0.877033 -0.0143,-1.124479 0.24904,-0.245483 0.40205,-0.205679 0.6856,0.178355 0.35072,0.475025 0.41707,0.462325 1.69596,-0.32458 1.2949,-0.796763 1.3386,-0.804674 1.61297,-0.292002 0.22044,0.411906 0.19329,0.560988 -0.12439,0.682895 -0.27006,0.103629 -0.35605,0.356576 -0.25631,0.753962 0.18066,0.719831 -0.48868,1.090422 -0.95488,0.528682 -0.2673,-0.322077 -0.41553,-0.319889 -1.06454,0.01572 -1.04738,0.541618 -1.19904,0.501443 -1.58012,-0.418563 z m 70.186836,0.590378 c -0.26456,-0.167987 -0.26456,-0.2985 0,-0.65247 0.40703,-0.5446 1.14722,-0.179716 0.90674,0.446984 -0.17981,0.468561 -0.4102,0.520771 -0.90674,0.205486 z M 71.182194,39.008354 c -0.69091,-1.214665 -1.19049,-2.31481 -1.11017,-2.444766 0.0803,-0.129955 1.0847,-0.768096 2.23195,-1.418089 l 2.08593,-1.181807 1.31168,2.292459 1.31167,2.292461 -2.28743,1.334113 -2.28743,1.334114 z m 2.9631,-0.0096 c 0.68076,-0.3897 1.28197,-0.741508 1.33603,-0.781796 0.0791,-0.05893 -1.13769,-2.335334 -1.44797,-2.70899 -0.063,-0.07587 -2.29087,1.104961 -2.70097,1.431579 -0.0915,0.07289 1.35595,2.757942 1.48999,2.763941 0.0469,0.0021 0.64216,-0.315032 1.32292,-0.704734 z m -1.20202,-1.123725 c -0.22305,-0.357143 -0.17776,-0.521989 0.20991,-0.76409 0.4044,-0.252553 0.54049,-0.222409 0.74821,0.165729 0.36809,0.687785 -0.54583,1.258541 -0.95812,0.598361 z m 64.732146,1.989209 -2.26595,-1.347563 1.30917,-2.281761 1.30917,-2.281759 2.12592,1.225145 c 1.16926,0.673828 2.16262,1.343433 2.20747,1.488009 0.0448,0.144576 -0.48127,1.226458 -1.16915,2.404179 l -1.25069,2.141312 z m 2.74471,-1.512015 c 0.40885,-0.741098 0.7065,-1.376801 0.66146,-1.412676 -0.4101,-0.326618 -2.63796,-1.507445 -2.70096,-1.431579 -0.52521,0.632487 -1.52847,2.728969 -1.337,2.793887 0.13854,0.04697 0.72815,0.378698 1.31023,0.737169 0.58209,0.358468 1.11787,0.653761 1.19063,0.656206 0.0728,0.0024 0.4668,-0.601906 0.87564,-1.343007 z m -1.73791,-0.350797 c -0.36372,-0.265965 -0.38688,-0.40734 -0.12344,-0.753748 0.26402,-0.347181 0.40509,-0.365572 0.75947,-0.09902 0.34619,0.26039 0.37144,0.414602 0.12345,0.753748 -0.25455,0.348115 -0.39396,0.366289 -0.75948,0.09902 z m -33.38237,1.819267 c -0.30625,-0.306256 -0.41578,-0.954456 -0.41578,-2.460633 0,-2.103001 0.23652,-2.679851 1.0988,-2.679851 1.2649,0 2.34078,-1.105739 2.34078,-2.405727 0,-0.815752 -1.17189,-1.827606 -2.11666,-1.827606 -0.99294,0 -2.11667,1.025345 -2.11667,1.931342 0,0.704646 -0.74113,1.508241 -1.391,1.508241 -1.15009,0 -1.64919,-1.917256 -0.88158,-3.386577 0.43498,-0.832606 1.60331,-1.964544 2.51067,-2.432457 1.0107,-0.521205 3.01927,-0.402659 4.17403,0.246353 1.65407,0.929643 2.33476,2.168986 2.33476,4.250973 0,1.526985 -0.0997,1.890525 -0.7539,2.748185 -0.41464,0.543626 -1.15878,1.181489 -1.65365,1.417471 -0.8145,0.388411 -0.89975,0.535424 -0.89975,1.551781 0,1.20926 -0.50432,1.954271 -1.32291,1.954271 -0.27026,0 -0.67847,-0.187098 -0.90714,-0.415774 z m 40.41062,-0.151247 c -0.52733,-0.326313 -0.79047,-0.666528 -0.6993,-0.904121 0.18571,-0.483944 0.45494,-0.479232 1.43006,0.02503 0.66614,0.344474 0.7429,0.484748 0.50672,0.926042 -0.15308,0.286041 -0.30391,0.510211 -0.33517,0.498154 -0.0313,-0.01206 -0.4373,-0.257349 -0.90231,-0.545099 z M 67.218364,38.518759 c -0.0985,-0.256678 0.11841,-0.534361 0.62001,-0.79375 0.96703,-0.500068 1.23124,-0.500846 1.42183,-0.0042 0.0985,0.256678 -0.1184,0.534361 -0.62001,0.79375 -0.96702,0.500068 -1.23124,0.500846 -1.42183,0.0042 z"
       id="path1080"
       inkscape:connector-curvature="0" />
    <rect
       style="opacity:1;fill:#ffffff;fill-opacity:1;fill-rule:nonzero;stroke:#0aff80;stroke-width:0.25;stroke-linecap:round;stroke-linejoin:round;stroke-miterlimit:4;stroke-dasharray:none;stroke-dashoffset:0.39999998;stroke-opacity:0.95183486;paint-order:normal"
       id="rect1082"
       width="3.0999999"
       height="1"
       x="104.78928"
       y="105.75" />
  </g>
</svg>
